<?xml version="1.0" standalone="no"?> <!DOCTYPE svg PUBLIC "-//W3C//DTD SVG 1.0//EN" "http://www.w3.org/TR/2001/REC-SVG-20010904/DTD/svg10.dtd" > <svg xmlns="http://www.w3.org/2000/svg" width="100%" height="100%">
<defs >
<font id="segoeit" horiz-adv-x="1074" ><font-face
    font-family="Segoe"
    units-per-em="2048"
    panose-1="2 11 5 2 4 2 0 9 2 3"
    ascent="2181"
    descent="-578"
    alphabetic="0" />
<missing-glyph horiz-adv-x="2048" d="" />
<glyph unicode=" " glyph-name="space" horiz-adv-x="563" d="" />
<glyph unicode="!" glyph-name="exclam" horiz-adv-x="653" d="M367 403H231L432 1434H604L367 403ZM244 -18Q198 -18 166 14T133 92Q133 139 165 171T244 203Q289 203 321 170T354 92Q354 48 322 15T244 -18Z" />
<glyph unicode="&quot;" glyph-name="quotedbl" horiz-adv-x="766" d="M684 987H565L557 1434H694L684 987ZM401 987H285L274 1434H412L401 987Z" />
<glyph unicode="#" glyph-name="numbersign" horiz-adv-x="1210" d="M1202 926H942L879 627H1159L1133 520H858L770 123H643L729 520H479L395 123H270L354 520H92L113 627H377L438 924H162L182 1032H459L543 1434H670L588 1032H838L924 1434H1047L965 1032H1225L1202
926ZM565 926L500 627H754L817 926H565Z" />
<glyph unicode="$" glyph-name="dollar" horiz-adv-x="1104" d="M1018 1233Q899 1298 774 1311L655 758Q814 643 873 558T932 381Q932 210 816 100T492 -16L449 -209H346L387 -14Q214 -3 74 63L102 225Q237 142 414 121L528 651Q355 773 301 862T246 1061Q246
1225 370 1335T698 1450L733 1616H838L801 1446Q919 1438 1047 1386L1018 1233ZM668 1313Q549 1305 482 1234T414 1065Q414 937 565 825L668 1313ZM618 586L522 121Q635 129 699 195T764 365Q764 475 618 586Z" />
<glyph unicode="%" glyph-name="percent" horiz-adv-x="1686" d="M461 713Q318 713 244 797T170 1010Q170 1184 283 1319T565 1454Q696 1454 772 1375T848 1161Q848 983 736 848T461 713ZM561 1343Q452 1343 379 1239T305 1008Q305 927 347 875T465 823Q568 823
640 922T713 1157Q713 1243 674 1293T561 1343ZM338 0H190L1419 1434H1567L338 0ZM1204 -20Q1066 -20 990 61T913 276Q913 449 1026 585T1309 721Q1439 721 1515 643T1591 428Q1591 251 1480 116T1204 -20ZM1305 610Q1196 610 1123 505T1049 274Q1049 193 1090
142T1208 90Q1313 90 1384 190T1456 424Q1456 510 1417 560T1305 610Z" />
<glyph unicode="&amp;" glyph-name="ampersand" horiz-adv-x="1456" d="M1378 754Q1309 471 1106 258L1298 0H1092L981 150Q768 -27 494 -27Q309 -27 201 78T92 340Q92 496 190 606T508 801Q406 948 406 1096Q406 1256 517 1357T803 1458Q965 1458 1058 1374T1151
1161Q1151 1022 1050 927T745 750L1022 375Q1163 541 1212 754H1378ZM985 1145Q985 1221 935 1270T801 1319Q701 1319 638 1258T575 1096Q575 978 662 860Q836 927 909 992T983 1147L985 1145ZM901 260L584 688Q413 619 337 544T260 354Q260 247 328 181T514 115Q723
115 901 260Z" />
<glyph unicode="&apos;" glyph-name="quotesingle" horiz-adv-x="463" d="M393 987H279L268 1434H403L393 987Z" />
<glyph unicode="(" glyph-name="parenleft" horiz-adv-x="623" d="M813 1434Q274 904 274 313Q274 -25 436 -299H295Q127 -30 127 305Q127 926 653 1434H813Z" />
<glyph unicode=")" glyph-name="parenright" horiz-adv-x="623" d="M-23 -299H-184Q356 230 356 821Q356 1160 195 1434H334Q504 1159 504 829Q504 211 -23 -299Z" />
<glyph unicode="*" glyph-name="asterisk" horiz-adv-x="856" d="M600 1049L791 805L680 729L524 993L367 729L256 805L449 1049L172 1104L215 1229L477 1130L455 1434H592L569 1130L831 1229L874 1104L600 1049Z" />
<glyph unicode="+" glyph-name="plus" horiz-adv-x="1403" d="M793 530V127H662V530H256V664H662V1067H793V664H1196V530H793Z" />
<glyph unicode="," glyph-name="comma" horiz-adv-x="446" d="M51 -264H-78L123 227H287L51 -264Z" />
<glyph unicode="-" glyph-name="hyphen" horiz-adv-x="819" d="M678 506H131L160 635H707L678 506Z" />
<glyph unicode="." glyph-name="period" horiz-adv-x="446" d="M133 -23Q89 -23 56 9T23 88Q23 134 55 166T133 199Q180 199 212 167T244 88Q244 41 211 9T133 -23Z" />
<glyph unicode="/" glyph-name="slash" horiz-adv-x="811" d="M4 -238H-164L877 1434H1044L4 -238Z" />
<glyph unicode="0" glyph-name="zero" horiz-adv-x="1104" d="M457 -25Q290 -25 191 101T92 451Q92 840 272 1149T745 1458Q910 1458 1004 1348T1098 1034Q1098 613 926 294T457 -25ZM729 1319Q527 1319 394 1026T260 446Q260 286 317 201T475 115Q674 115 803
414T932 1020Q932 1160 880 1239T729 1319Z" />
<glyph unicode="1" glyph-name="one" horiz-adv-x="1104" d="M51 0L84 143H408L643 1249L289 1153L324 1311L850 1458L569 143H893L862 0H51Z" />
<glyph unicode="2" glyph-name="two" horiz-adv-x="1104" d="M233 152V147H887L856 0H-10L20 143L580 612Q786 785 859 889T932 1110Q932 1205 868 1262T692 1319Q522 1319 324 1184L362 1362Q537 1458 717 1458Q898 1458 999 1368T1100 1130Q1100 987 1009 850T672
510L233 152Z" />
<glyph unicode="3" glyph-name="three" horiz-adv-x="1104" d="M666 739V735Q789 715 862 629T936 422Q936 222 791 99T395 -25Q197 -25 35 57L70 213Q223 115 401 115Q579 115 674 193T770 412Q770 531 682 600T416 670H307L338 811H457Q658 811 770 889T883
1108Q883 1205 820 1262T645 1319Q477 1319 322 1235L356 1399Q506 1458 674 1458Q851 1458 951 1368T1051 1137Q1051 810 666 739Z" />
<glyph unicode="4" glyph-name="four" horiz-adv-x="1104" d="M864 514H1053L1022 381H836L756 0H590L670 379H2L27 492L860 1434H1059L864 514ZM862 1270Q809 1191 780 1159L225 514H698L829 1122Q830 1125 838 1158L866 1270H862Z" />
<glyph unicode="5" glyph-name="five" horiz-adv-x="1104" d="M1053 1284H514L426 866Q484 870 532 870Q735 870 845 770T956 494Q956 272 806 124T379 -25Q184 -25 61 29L98 190Q218 115 391 115Q582 115 685 217T788 465Q788 727 487 727Q367 727 238 717L389
1434H1083L1053 1284Z" />
<glyph unicode="6" glyph-name="six" horiz-adv-x="1104" d="M1081 1262Q978 1319 852 1319Q654 1319 504 1149T293 694H297Q426 897 653 897Q824 897 918 793T1012 510Q1012 289 878 132T530 -25Q335 -25 226 106T117 481Q117 882 328 1170T872 1458Q998 1458
1114 1417L1081 1262ZM596 756Q456 756 371 658T285 426Q285 284 354 200T541 115Q675 115 759 227T844 496Q844 617 780 686T596 756Z" />
<glyph unicode="7" glyph-name="seven" horiz-adv-x="1104" d="M326 0H139L936 1286H227L258 1434H1188L1178 1382L326 0Z" />
<glyph unicode="8" glyph-name="eight" horiz-adv-x="1104" d="M735 731Q981 596 981 373Q981 201 848 88T481 -25Q293 -25 177 74T61 334Q61 640 446 764Q268 897 268 1075Q268 1251 394 1354T717 1458Q890 1458 991 1368T1092 1137Q1092 846 735 731ZM604 811Q773
854 848 927T924 1118Q924 1210 866 1264T707 1319Q580 1319 508 1255T436 1079Q436 921 604 811ZM567 678Q398 630 313 551T227 342Q227 248 298 182T492 115Q642 115 727 184T813 369Q813 558 567 678Z" />
<glyph unicode="9" glyph-name="nine" horiz-adv-x="1104" d="M74 16L96 172Q196 115 317 115Q530 115 684 279T895 729H891Q760 524 543 524Q365 524 268 639T170 924Q170 1140 303 1299T664 1458Q858 1458 964 1324T1071 961Q1071 564 866 270T309 -25Q157 -25
74 16ZM653 1319Q515 1319 427 1210T338 940Q338 817 402 741T582 664Q731 664 817 764T903 1004Q903 1147 833 1233T653 1319Z" />
<glyph unicode=":" glyph-name="colon" horiz-adv-x="446" d="M311 825Q265 825 233 857T201 936Q201 980 233 1013T311 1047Q357 1047 389 1014T422 936Q422 891 390 858T311 825ZM133 -23Q89 -23 56 9T23 88Q23 134 55 166T133 199Q180 199 212 167T244 88Q244
41 211 9T133 -23Z" />
<glyph unicode=";" glyph-name="semicolon" horiz-adv-x="446" d="M311 825Q265 825 233 857T201 936Q201 980 233 1013T311 1047Q357 1047 389 1014T422 936Q422 891 390 858T311 825ZM27 -264H-102L100 227H264L27 -264Z" />
<glyph unicode="&lt;" glyph-name="less" horiz-adv-x="1403" d="M238 559V618L1098 1100V950L455 594V590L1098 276V127L238 559Z" />
<glyph unicode="=" glyph-name="equal" horiz-adv-x="1403" d="M256 743V877H1196V743H256ZM256 317V451H1196V317H256Z" />
<glyph unicode="&gt;" glyph-name="greater" horiz-adv-x="1403" d="M330 127V276L973 588V594L330 948V1100L1188 618V559L330 127Z" />
<glyph unicode="?" glyph-name="question" horiz-adv-x="881" d="M432 403H281Q310 558 364 647T532 811Q655 893 709 966T764 1128Q764 1213 705 1269T549 1325Q401 1325 268 1235L297 1403Q429 1462 578 1462Q737 1462 829 1372T922 1145Q922 1020 858 925T655
733Q540 653 497 582T432 403ZM303 -18Q257 -18 225 14T193 92Q193 138 225 170T303 203Q348 203 381 171T414 92Q414 47 381 15T303 -18Z" />
<glyph unicode="@" glyph-name="at" horiz-adv-x="1966" d="M1153 418H1149Q1026 182 838 182Q729 182 660 267T590 492Q590 728 733 903T1071 1079Q1233 1079 1280 952H1284Q1285 959 1300 1008Q1312 1052 1315 1065H1446Q1278 494 1278 401Q1278 295 1374 295Q1508
295 1604 442T1700 772Q1700 1028 1542 1181T1094 1335Q780 1335 558 1115T336 557Q336 261 506 96T991 -70Q1277 -70 1477 20L1452 -106Q1269 -186 989 -186Q624 -186 415 12T205 557Q205 947 466 1200T1112 1454Q1442 1454 1633 1269T1825 797Q1825 534 1690
357T1356 180Q1261 180 1204 231T1147 365Q1147 382 1153 418ZM1075 969Q936 969 835 829T733 494Q733 405 774 352T877 299Q1025 299 1123 485T1221 811Q1221 886 1181 927T1075 969Z" />
<glyph unicode="A" glyph-name="A" horiz-adv-x="1294" d="M999 0L934 401H326L94 0H-104L750 1434H926L1176 0H999ZM815 1163Q813 1176 813 1212V1260H809Q798 1227 766 1163L412 553H907L815 1163Z" />
<glyph unicode="B" glyph-name="B" horiz-adv-x="1174" d="M801 745V741Q917 722 983 645T1049 453Q1049 241 901 121T512 0H74L377 1434H772Q935 1434 1030 1348T1126 1124Q1126 976 1041 875T801 745ZM950 1092Q950 1179 893 1230T727 1282H518L418 819H606Q769
819 858 891T948 1092H950ZM385 668L279 152H510Q688 152 780 227T872 442Q872 668 575 668H385Z" />
<glyph unicode="C" glyph-name="C" horiz-adv-x="1309" d="M1325 1196Q1156 1307 963 1307Q672 1307 493 1112T313 618Q313 386 437 257T774 127Q984 127 1159 227L1120 51Q954 -25 739 -25Q467 -25 302 148T137 604Q137 984 368 1221T969 1458Q1181 1458 1362
1368L1325 1196Z" />
<glyph unicode="D" glyph-name="D" horiz-adv-x="1458" d="M74 0L379 1434H778Q1064 1434 1232 1277T1401 854Q1401 478 1173 239T528 0H74ZM518 1282L276 152H543Q861 152 1043 344T1225 842Q1225 1052 1102 1167T737 1282H518Z" />
<glyph unicode="E" glyph-name="E" horiz-adv-x="1022" d="M1071 1282H518L414 793H926L893 641H381L276 152H864L834 0H74L377 1434H1104L1071 1282Z" />
<glyph unicode="F" glyph-name="F" horiz-adv-x="1001" d="M1071 1278H518L412 788H926L893 633H379L246 0H74L377 1434H1104L1071 1278Z" />
<glyph unicode="G" glyph-name="G" horiz-adv-x="1409" d="M1350 1190Q1171 1307 944 1307Q660 1307 487 1116T313 629Q313 396 439 262T782 127Q913 127 1030 172L1116 590H784L817 739H1321L1180 78Q982 -27 762 -27Q481 -27 309 151T137 610Q137 983 361 1220T965
1458Q1197 1458 1382 1364L1350 1190Z" />
<glyph unicode="H" glyph-name="H" horiz-adv-x="1450" d="M1151 0H979L1116 647H383L248 0H74L377 1434H551L416 805H1149L1284 1434H1456L1151 0Z" />
<glyph unicode="I" glyph-name="I" horiz-adv-x="545" d="M246 0H74L377 1434H551L246 0Z" />
<glyph unicode="J" glyph-name="J" horiz-adv-x="709" d="M535 508Q422 -25 59 -25Q-38 -25 -106 10L-78 170Q-21 125 59 125Q179 125 250 218T362 500L559 1434H731L535 508Z" />
<glyph unicode="K" glyph-name="K" horiz-adv-x="1194" d="M573 723L1071 0H862L428 653Q414 674 399 707H395L246 0H74L377 1434H551L408 760H412Q434 784 459 809L1118 1434H1346L573 723Z" />
<glyph unicode="L" glyph-name="L" horiz-adv-x="948" d="M817 0H74L377 1434H551L279 156H850L817 0Z" />
<glyph unicode="M" glyph-name="M" horiz-adv-x="1849" d="M1550 0H1380L1610 1073Q1616 1103 1647 1203L1657 1239H1653Q1643 1221 1620 1172Q1601 1132 1581 1102L850 0H770L510 1094Q496 1152 500 1241H496Q490 1214 483 1161Q475 1107 467 1069L240 0H74L377
1434H594L848 358Q856 324 864 260H870Q903 332 924 362L1632 1434H1855L1550 0Z" />
<glyph unicode="N" glyph-name="N" horiz-adv-x="1538" d="M1241 0H1055L526 1149Q507 1190 500 1237H494Q489 1182 479 1128L240 0H74L377 1434H578L1085 309Q1104 266 1122 213H1126Q1131 266 1143 338L1376 1434H1546L1241 0Z" />
<glyph unicode="O" glyph-name="O" horiz-adv-x="1544" d="M719 -25Q459 -25 298 144T137 586Q137 959 359 1208T911 1458Q1170 1458 1328 1289T1487 852Q1487 501 1276 238T719 -25ZM897 1307Q647 1307 480 1093T313 584Q313 377 424 252T727 127Q995 127 1152
347T1309 846Q1309 1058 1197 1182T897 1307Z" />
<glyph unicode="P" glyph-name="P" horiz-adv-x="1178" d="M360 543L246 0H74L377 1434H748Q952 1434 1064 1331T1176 1057Q1176 825 1019 684T578 543H360ZM518 1282L393 694H594Q788 694 893 785T999 1042Q999 1153 925 1217T713 1282H518Z" />
<glyph unicode="Q" glyph-name="Q" horiz-adv-x="1544" d="M881 -6L1169 -346H944L711 -25Q445 -18 291 151T137 582Q137 962 360 1210T915 1458Q1170 1458 1328 1290T1487 848Q1487 538 1319 293T881 -6ZM901 1307Q652 1307 483 1097T313 582Q313 377 424 252T727
127Q991 127 1150 344T1309 842Q1309 1054 1199 1180T901 1307Z" />
<glyph unicode="R" glyph-name="R" horiz-adv-x="1192" d="M739 655V651Q835 620 879 459L999 0H815L709 428Q664 610 502 610H377L246 0H74L377 1434H772Q964 1434 1066 1338T1169 1079Q1169 905 1054 790T739 655ZM518 1282L408 762H606Q790 762 891 842T993
1061Q993 1165 928 1223T739 1282H518Z" />
<glyph unicode="S" glyph-name="S" horiz-adv-x="1018" d="M991 1219Q861 1307 690 1307Q553 1307 480 1238T406 1075Q406 999 444 936T621 772Q763 669 823 580T883 383Q883 206 764 91T408 -25Q208 -25 37 66L66 240Q230 127 418 127Q556 127 631 188T707 362Q707
433 667 492T471 662Q227 836 227 1053Q227 1229 355 1343T702 1458Q859 1458 1024 1393L991 1219Z" />
<glyph unicode="T" glyph-name="T" horiz-adv-x="1077" d="M1190 1282H782L512 0H340L612 1282H195L227 1434H1223L1190 1282Z" />
<glyph unicode="U" glyph-name="U" horiz-adv-x="1411" d="M1247 563Q1177 235 1031 105T633 -25Q421 -25 295 101T168 430Q168 522 188 629L362 1434H535L362 639Q338 529 338 442Q338 292 424 210T653 127Q826 127 925 227T1071 545L1262 1434H1434L1247 563Z" />
<glyph unicode="V" glyph-name="V" horiz-adv-x="1286" d="M596 0H428L213 1434H387L545 311Q556 231 551 186H555Q557 198 614 311L1255 1434H1448L596 0Z" />
<glyph unicode="W" glyph-name="W" horiz-adv-x="1903" d="M1362 0H1184L1092 1063Q1089 1101 1098 1206H1094Q1064 1112 1038 1065L494 0H311L197 1434H375L449 342Q454 272 442 199H446Q477 284 506 342L1063 1434H1217L1307 334Q1312 272 1305 199H1309Q1333
276 1364 338L1890 1434H2077L1362 0Z" />
<glyph unicode="X" glyph-name="X" horiz-adv-x="1210" d="M1364 1434Q1279 1329 866 848Q771 738 758 719Q776 660 1043 44L1061 0H866L653 549Q643 576 637 606Q635 616 633 623H629Q600 565 582 545L127 0H-88L551 733Q545 751 265 1395Q251 1426 248 1434H446L649
899Q667 851 672 825H676Q702 877 723 901L1163 1434H1364Z" />
<glyph unicode="Y" glyph-name="Y" horiz-adv-x="1135" d="M651 545L537 0H365L479 541L211 1434H393L571 774Q581 736 590 688H592Q603 711 643 772L1120 1434H1313L651 545Z" />
<glyph unicode="Z" glyph-name="Z" horiz-adv-x="1167" d="M1309 1391L227 152H1026L993 0H-78L-68 51L1006 1282H262L293 1434H1319L1309 1391Z" />
<glyph unicode="[" glyph-name="bracketleft" horiz-adv-x="623" d="M752 1315H530L207 -207H428L403 -326H35L410 1434H778L752 1315Z" />
<glyph unicode="\" glyph-name="backslash" horiz-adv-x="791" d="M506 -240L158 1434H305L649 -240H506Z" />
<glyph unicode="]" glyph-name="bracketright" horiz-adv-x="623" d="M215 -326H-152L-127 -207H94L418 1313H197L221 1434H590L215 -326Z" />
<glyph unicode="^" glyph-name="asciicircum" horiz-adv-x="1403" d="M1055 625L723 1243H717L410 625H262L684 1458H750L1206 625H1055Z" />
<glyph unicode="_" glyph-name="underscore" horiz-adv-x="850" d="M-172 -297L-147 -178H702L678 -297H-172Z" />
<glyph unicode="`" glyph-name="grave" horiz-adv-x="715" d="M528 1219L289 1546H442L649 1219H528Z" />
<glyph unicode="a" glyph-name="a" horiz-adv-x="1110" d="M905 328Q864 132 864 0H694Q700 113 717 215H713Q626 75 552 25T379 -25Q240 -25 159 73T78 356Q78 626 243 837T713 1049Q844 1049 1047 1008L905 328ZM858 889Q767 909 688 909Q478 909 362 745T246
362Q246 115 422 115Q546 115 648 248T793 578L858 889Z" />
<glyph unicode="b" glyph-name="b" horiz-adv-x="1110" d="M63 68L371 1516H537L434 1026Q405 888 389 827H391Q529 1049 729 1049Q875 1049 953 949T1032 666Q1032 397 869 186T422 -25Q217 -25 63 68ZM250 160Q335 115 442 115Q631 115 747 280T864 662Q864
909 678 909Q560 909 456 779T317 479L250 160Z" />
<glyph unicode="c" glyph-name="c" horiz-adv-x="893" d="M864 821Q760 909 631 909Q455 909 350 752T244 406Q244 263 307 189T479 115Q603 115 750 213L715 49Q578 -25 449 -25Q274 -25 176 88T78 393Q78 668 238 858T651 1049Q801 1049 901 983L864 821Z" />
<glyph unicode="d" glyph-name="d" horiz-adv-x="1110" d="M901 315Q887 247 876 142T864 0H694Q694 67 717 211H713Q632 80 556 28T381 -25Q239 -25 159 75T78 358Q78 633 245 841T700 1049Q786 1049 887 1026L991 1516H1153L901 315ZM858 885Q775 909 690 909Q479
909 363 744T246 365Q246 115 424 115Q548 115 649 250T795 588L858 885Z" />
<glyph unicode="e" glyph-name="e" horiz-adv-x="997" d="M248 422Q246 411 246 399V379Q246 258 314 187T506 115Q657 115 815 217L784 55Q642 -25 483 -25Q286 -25 182 87T78 399Q78 668 242 858T635 1049Q785 1049 871 974T958 784Q958 600 784 512T248 422ZM264
559Q791 559 791 776Q791 839 745 874T621 909Q504 909 402 813T264 559Z" />
<glyph unicode="f" glyph-name="f" horiz-adv-x="604" d="M823 1374Q763 1401 702 1401Q620 1401 576 1348T508 1188L471 1024H713L680 885H438L176 -340H10L274 885H98L129 1024H305L346 1214Q416 1540 717 1540Q785 1540 850 1520L823 1374Z" />
<glyph unicode="g" glyph-name="g" horiz-adv-x="1110" d="M850 74Q787 -226 647 -353T268 -481Q111 -481 -35 -403L-4 -250Q145 -340 283 -340Q445 -340 540 -249T682 53L717 213H713Q634 84 558 30T381 -25Q239 -25 159 75T78 358Q78 642 252 845T690 1049Q844
1049 1047 1010L850 74ZM858 889Q769 909 672 909Q490 909 368 750T246 365Q246 115 418 115Q549 115 650 251T793 575L858 889Z" />
<glyph unicode="h" glyph-name="h" horiz-adv-x="1141" d="M885 0H719L844 600Q866 706 866 745Q866 909 721 909Q600 909 478 778T322 496L215 0H49L373 1516H537L381 784H385Q560 1049 776 1049Q904 1049 970 974T1036 766Q1036 689 1004 561L885 0Z" />
<glyph unicode="i" glyph-name="i" horiz-adv-x="492" d="M426 1280Q383 1280 350 1312T317 1389Q317 1433 349 1463T426 1493Q469 1493 500 1463T532 1389Q532 1346 502 1313T426 1280ZM215 0H49L266 1024H432L215 0Z" />
<glyph unicode="j" glyph-name="j" horiz-adv-x="492" d="M426 1280Q383 1280 350 1312T317 1389Q317 1433 349 1463T426 1493Q469 1493 500 1463T532 1389Q532 1346 502 1313T426 1280ZM225 47Q113 -481 -244 -481Q-323 -481 -391 -451L-362 -297Q-291 -342 -229
-342Q-21 -342 53 16L268 1024H432L225 47Z" />
<glyph unicode="k" glyph-name="k" horiz-adv-x="1004" d="M498 551L860 0H670L334 541H330L215 0H49L373 1516H537L340 590H344L854 1024H1067L498 551Z" />
<glyph unicode="l" glyph-name="l" horiz-adv-x="492" d="M215 0H49L373 1516H537L215 0Z" />
<glyph unicode="m" glyph-name="m" horiz-adv-x="1757" d="M1499 0H1335L1460 600Q1483 710 1483 745Q1483 909 1343 909Q1234 909 1115 778T965 502L858 0H692L819 600Q842 709 842 745Q842 909 702 909Q591 909 473 778T322 500L215 0H49L207 731Q237 869 258
1024H418Q413 985 406 943Q399 900 394 864Q388 822 381 782H385Q553 1049 756 1049Q993 1049 1008 784Q1183 1049 1397 1049Q1653 1049 1653 766Q1653 726 1620 561L1499 0Z" />
<glyph unicode="n" glyph-name="n" horiz-adv-x="1143" d="M885 0H719L844 600Q866 706 866 745Q866 909 721 909Q599 909 476 776T322 500L215 0H49L207 731Q237 869 258 1024H418Q413 985 406 943Q399 900 394 864Q388 822 381 782H385Q557 1049 776 1049Q902
1049 970 976T1038 768Q1038 704 1004 561L885 0Z" />
<glyph unicode="o" glyph-name="o" horiz-adv-x="1096" d="M459 -25Q283 -25 181 83T78 379Q78 666 235 857T635 1049Q810 1049 914 939T1018 645Q1018 358 862 167T459 -25ZM627 909Q463 909 355 754T246 387Q246 263 305 189T469 115Q635 115 742 269T850 637Q850
764 790 836T627 909Z" />
<glyph unicode="p" glyph-name="p" horiz-adv-x="1110" d="M211 12L109 -475H-57L193 709Q206 772 216 878T227 1024H395Q395 966 371 809H375Q516 1049 729 1049Q873 1049 952 950T1032 666Q1032 400 866 188T428 -25Q321 -25 211 12ZM240 152Q331 115 442 115Q629
115 746 280T864 659Q864 909 682 909Q548 909 443 765T303 449L240 152Z" />
<glyph unicode="q" glyph-name="q" horiz-adv-x="1110" d="M735 -475H569L670 -2Q707 173 715 197H713Q570 -25 381 -25Q237 -25 158 76T78 358Q78 634 245 841T707 1049Q869 1049 1047 1001L735 -475ZM858 885Q765 909 688 909Q480 909 363 744T246 365Q246 115
424 115Q552 115 653 252T793 575L858 885Z" />
<glyph unicode="r" glyph-name="r" horiz-adv-x="727" d="M766 850H762Q700 885 645 885Q539 885 445 759T311 446L215 0H51L195 680Q239 887 252 1024H414Q402 910 385 799H389Q527 1049 690 1049Q733 1049 795 1032L766 850Z" />
<glyph unicode="s" glyph-name="s" horiz-adv-x="809" d="M725 844Q622 909 512 909Q418 909 367 866T315 752Q315 698 346 661T465 569Q676 447 676 281Q676 143 574 59T283 -25Q126 -25 16 37L49 193Q169 115 309 115Q508 115 508 266Q508 319 475 358T346 453Q147
574 147 735Q147 870 245 959T514 1049Q654 1049 760 999L725 844Z" />
<glyph unicode="t" glyph-name="t" horiz-adv-x="662" d="M690 885H432L317 342Q299 257 299 217Q299 121 393 121Q435 121 537 162L506 18Q419 -18 342 -18Q131 -18 131 190Q131 252 150 328L268 885H98L129 1024H297L350 1274Q354 1276 381 1284Q423 1295 526
1327L463 1024H721L690 885Z" />
<glyph unicode="u" glyph-name="u" horiz-adv-x="1143" d="M930 291Q899 146 879 0H719L756 242H752Q580 -25 362 -25Q237 -25 168 49T98 258Q98 301 123 413L252 1024H418L291 424Q268 315 268 279Q268 115 414 115Q534 115 657 244T815 524L922 1024H1087L930 291Z" />
<glyph unicode="v" glyph-name="v" horiz-adv-x="969" d="M438 0H299L137 1024H303L393 379Q408 272 408 195H412Q446 274 506 379L872 1024H1059L438 0Z" />
<glyph unicode="w" glyph-name="w" horiz-adv-x="1475" d="M1024 0H862L803 727Q800 770 807 827H803Q789 784 760 725L377 0H215L125 1024H283L332 258Q335 214 328 162H334Q359 234 373 262L772 1024H918L975 256Q978 219 969 160H977Q987 205 1014 258L1382
1024H1548L1024 0Z" />
<glyph unicode="x" glyph-name="x" horiz-adv-x="932" d="M559 500L795 0L614 -2L449 412H444Q418 375 392 343L109 0H-86L375 510L145 1024H326L449 698Q461 667 481 602H485Q492 609 516 642Q538 671 553 688L831 1024H1018L559 500Z" />
<glyph unicode="y" glyph-name="y" horiz-adv-x="991" d="M367 -170Q271 -328 170 -404T-63 -481Q-109 -481 -160 -467L-129 -322Q-94 -340 -43 -340Q89 -340 186 -186L309 4L123 1024H293L412 238Q418 196 414 160H420Q440 207 459 236L913 1024H1094L367 -170Z" />
<glyph unicode="z" glyph-name="z" horiz-adv-x="926" d="M981 975L213 139H795L764 0H-78L-66 53L702 885H168L199 1024H991L981 975Z" />
<glyph unicode="{" glyph-name="braceleft" horiz-adv-x="623" d="M709 1309Q550 1309 508 1112L446 829Q396 600 250 555V551Q340 503 340 373Q340 325 330 279L274 20Q262 -35 262 -72Q262 -185 391 -190L365 -311Q115 -305 115 -90Q115 -46 125 -2L186 283Q195
325 195 362Q195 494 72 504L98 618Q259 625 301 829L362 1118Q429 1434 735 1434L709 1309Z" />
<glyph unicode="|" glyph-name="bar" horiz-adv-x="492" d="M174 -481V1567H319V-481H174Z" />
<glyph unicode="}" glyph-name="braceright" horiz-adv-x="623" d="M524 504Q364 499 322 293L260 6Q224 -161 136 -235T-111 -309L-86 -186Q75 -185 117 12L176 293Q224 523 375 569V573Q283 622 283 752Q283 794 293 846L348 1104Q360 1160 360 1194Q360 1311
233 1313L258 1434Q508 1430 508 1214Q508 1172 498 1126L438 842Q428 795 428 762Q428 627 551 621L524 504Z" />
<glyph unicode="~" glyph-name="asciitilde" horiz-adv-x="1403" d="M1210 750Q1202 600 1128 520T930 440Q867 440 815 461T668 549Q568 616 506 616Q369 616 360 440H225Q232 589 306 669T506 750Q577 750 629 727T800 623Q875 571 938 571Q999 571 1035 620T1075
750H1210Z" />
</font>
</defs>
</svg>
