<?xml version="1.0" standalone="no"?> <!DOCTYPE svg PUBLIC "-//W3C//DTD SVG 1.0//EN" "http://www.w3.org/TR/2001/REC-SVG-20010904/DTD/svg10.dtd" > <svg xmlns="http://www.w3.org/2000/svg" width="100%" height="100%">
<defs >
<font id="segoecbi" horiz-adv-x="919" ><font-face
    font-family="Segoe Condensed"
    units-per-em="2048"
    panose-1="2 11 8 6 4 2 0 9 2 3"
    ascent="2181"
    descent="-578"
    alphabetic="0" />
<missing-glyph horiz-adv-x="2048" d="" />
<glyph unicode=" " glyph-name="space" horiz-adv-x="428" d="" />
<glyph unicode="!" glyph-name="exclam" horiz-adv-x="489" d="M330 461H121L289 1434H573L330 461ZM160 -18Q92 -18 50 22T8 131Q8 209 56 257T178 305Q245 305 287 265T330 158Q330 80 282 31T160 -18Z" />
<glyph unicode="&quot;" glyph-name="quotedbl" horiz-adv-x="799" d="M784 1016H618L592 1458H813L784 1016ZM459 1016H293L266 1458H487L459 1016Z" />
<glyph unicode="#" glyph-name="numbersign" horiz-adv-x="889" d="M901 903H774L717 633H856L817 479H682L602 113H446L524 479H348L268 113H113L188 479H59L92 633H223L283 903H141L172 1057H315L393 1423H553L475 1057H649L727 1423H889L809 1057H936L901 903ZM440
903L381 633H557L616 903H440Z" />
<glyph unicode="$" glyph-name="dollar" horiz-adv-x="918" d="M920 1118Q798 1213 674 1229L582 788Q848 627 848 414Q848 235 734 119T412 0L367 -209H256L303 6Q135 35 20 123L68 344Q178 240 344 207L432 623Q174 772 174 1018Q174 1202 294 1314T604 1432L645
1620H756L717 1425Q852 1406 963 1333L920 1118ZM563 1233Q489 1224 442 1167T395 1028Q395 921 479 852L563 1233ZM532 565L455 201Q629 226 629 399Q629 496 532 565Z" />
<glyph unicode="%" glyph-name="percent" horiz-adv-x="1354" d="M365 711Q251 711 185 789T119 997Q119 1185 214 1320T469 1456Q583 1456 646 1378T709 1171Q709 997 617 854T365 711ZM455 1294Q392 1294 350 1194T307 987Q307 870 383 870Q445 870 485 974T526
1176Q526 1294 455 1294ZM315 0H117L1116 1434H1315L315 0ZM969 -20Q854 -20 790 58T725 266Q725 450 819 587T1073 725Q1189 725 1252 647T1315 440Q1315 265 1223 123T969 -20ZM1059 563Q996 563 955 462T913 256Q913 139 987 139Q1049 139 1089 244T1130 444Q1130
563 1059 563Z" />
<glyph unicode="&amp;" glyph-name="ampersand" horiz-adv-x="1128" d="M1108 774Q1037 477 868 266L999 0H750L696 111Q557 -25 369 -25Q208 -25 113 67T18 319Q18 622 373 803Q309 949 309 1075Q309 1240 412 1349T684 1458Q820 1458 896 1380T973 1182Q973
920 639 750Q780 463 780 455Q847 546 901 774H1108ZM575 901Q754 1002 754 1174Q754 1224 730 1255T666 1286Q607 1286 569 1230T530 1087Q530 994 575 901ZM621 270L459 616Q445 644 444 645Q256 538 256 360Q256 268 303 214T418 160Q527 160 621 270Z" />
<glyph unicode="&apos;" glyph-name="quotesingle" horiz-adv-x="475" d="M457 1016H291L264 1458H485L457 1016Z" />
<glyph unicode="(" glyph-name="parenleft" horiz-adv-x="594" d="M770 1434Q310 849 310 206Q310 -92 389 -313H188Q91 -77 91 247Q91 567 205 874T553 1434H770Z" />
<glyph unicode=")" glyph-name="parenright" horiz-adv-x="594" d="M43 -313H-174Q286 276 286 915Q286 1208 209 1434H408Q505 1198 505 872Q505 193 43 -313Z" />
<glyph unicode="*" glyph-name="asterisk" horiz-adv-x="743" d="M571 1036L766 848L623 721L481 946L336 721L195 846L387 1034L166 1071L219 1255L420 1167L387 1434H578L543 1167L748 1253L799 1071L571 1036Z" />
<glyph unicode="+" glyph-name="plus" horiz-adv-x="1067" d="M635 516V135H473V516H143V680H473V1061H635V680H963V516H635Z" />
<glyph unicode="," glyph-name="comma" horiz-adv-x="479" d="M106 -242H-106L94 258H352L106 -242Z" />
<glyph unicode="-" glyph-name="hyphen" horiz-adv-x="629" d="M516 467H100L139 651H555L516 467Z" />
<glyph unicode="." glyph-name="period" horiz-adv-x="479" d="M154 -18Q85 -18 43 22T0 131Q0 209 48 257T170 305Q237 305 279 265T322 158Q322 80 275 31T154 -18Z" />
<glyph unicode="/" glyph-name="slash" horiz-adv-x="713" d="M57 -238H-188L700 1434H948L57 -238Z" />
<glyph unicode="0" glyph-name="zero" horiz-adv-x="918" d="M375 -25Q224 -25 143 84T61 399Q61 786 214 1122T631 1458Q942 1458 942 1059Q942 653 791 314T375 -25ZM608 1243Q502 1243 410 919T317 354Q317 190 397 190Q502 190 595 515T688 1065Q688 1243 608 1243Z" />
<glyph unicode="1" glyph-name="one" horiz-adv-x="918" d="M709 0H16L59 207H279L487 1188L244 1124L291 1348L803 1464L537 207H752L709 0Z" />
<glyph unicode="2" glyph-name="two" horiz-adv-x="918" d="M287 221V217H745L709 0H-31L2 193L410 621Q655 878 655 1063Q655 1142 613 1190T496 1239Q379 1239 256 1147L307 1384Q443 1456 594 1456Q750 1456 838 1364T926 1110Q926 969 855 833T584 506L287 221Z" />
<glyph unicode="3" glyph-name="three" horiz-adv-x="918" d="M594 725V721Q786 644 786 426Q786 242 660 110T303 -23Q141 -23 2 55L53 285Q160 197 274 197Q386 197 451 265T516 440Q516 524 462 576T309 629H240L283 844H362Q487 844 559 911T631 1083Q631
1239 465 1239Q375 1239 276 1190L330 1409Q432 1456 571 1456Q726 1456 815 1369T905 1124Q905 976 820 865T594 725Z" />
<glyph unicode="4" glyph-name="four" horiz-adv-x="918" d="M754 522H885L846 334H715L645 0H399L469 334H-6L31 522L668 1434H948L754 522ZM639 1122Q596 1039 569 1001L238 522H508L604 967Q617 1028 635 1090L643 1122H639Z" />
<glyph unicode="5" glyph-name="five" horiz-adv-x="918" d="M924 1217H526L455 881Q621 892 718 796T815 516Q815 313 684 145T303 -23Q152 -23 29 43L76 270Q184 195 283 195Q401 195 475 281T549 489Q549 572 494 623T332 674Q278 674 242 668Q206 661 180
657L346 1434H971L924 1217Z" />
<glyph unicode="6" glyph-name="six" horiz-adv-x="918" d="M942 1188Q878 1243 776 1243Q637 1243 528 1103T371 737H377Q479 915 635 915Q751 915 821 829T891 582Q891 363 767 170T432 -23Q265 -23 173 91T80 432Q80 836 267 1146T766 1456Q909 1456 995 1407L942
1188ZM522 702Q442 702 389 600T336 371Q336 190 436 190Q512 190 567 304T623 565Q623 702 522 702Z" />
<glyph unicode="7" glyph-name="seven" horiz-adv-x="918" d="M1014 1296L362 0H61L731 1223H213L258 1434H1042L1014 1296Z" />
<glyph unicode="8" glyph-name="eight" horiz-adv-x="918" d="M678 737V733Q842 599 842 412Q842 223 721 100T391 -23Q231 -23 132 74T33 319Q33 631 348 758V762Q223 885 223 1053Q223 1220 336 1338T637 1456Q792 1456 881 1368T971 1133Q971 1000 894 894T678
737ZM545 850Q629 884 679 959T729 1116Q729 1181 699 1220T616 1260Q552 1260 508 1196T463 1040Q463 924 545 850ZM494 639Q402 610 342 530T281 354Q281 184 420 184Q503 184 551 248T600 406Q600 550 494 639Z" />
<glyph unicode="9" glyph-name="nine" horiz-adv-x="918" d="M20 27L72 248Q146 190 242 190Q531 190 651 694H645Q542 518 391 518Q268 518 198 608T127 856Q127 1079 257 1267T592 1456Q936 1456 936 1014Q936 611 754 294T256 -23Q110 -23 20 27ZM580 1243Q504
1243 449 1137T393 877Q393 731 498 731Q579 731 629 835T680 1069Q680 1243 580 1243Z" />
<glyph unicode=":" glyph-name="colon" horiz-adv-x="479" d="M311 719Q243 719 202 760T160 870Q160 946 207 994T330 1042Q396 1042 438 1003T481 895Q481 817 434 768T311 719ZM152 -18Q83 -18 42 22T0 131Q0 209 48 257T170 305Q237 305 279 265T322 158Q322
80 274 31T152 -18Z" />
<glyph unicode=";" glyph-name="semicolon" horiz-adv-x="479" d="M305 719Q237 719 196 760T154 870Q154 946 201 994T324 1042Q390 1042 432 1003T475 895Q475 817 427 768T305 719ZM100 -242H-111L90 258H348L100 -242Z" />
<glyph unicode="&lt;" glyph-name="less" horiz-adv-x="1067" d="M145 535V651L897 1042V854L369 596V592L899 348V156L145 535Z" />
<glyph unicode="=" glyph-name="equal" horiz-adv-x="1067" d="M143 723V889H963V723H143ZM143 307V471H963V307H143Z" />
<glyph unicode="&gt;" glyph-name="greater" horiz-adv-x="1067" d="M211 158V348L741 592V596L211 854V1044L965 651V535L211 158Z" />
<glyph unicode="?" glyph-name="question" horiz-adv-x="737" d="M403 446H197Q230 705 381 829Q498 926 528 982T559 1096Q559 1241 412 1241Q312 1241 213 1176L268 1417Q395 1473 512 1473Q662 1473 745 1389T829 1165Q829 1035 772 934T571 727Q435 627 403
446ZM250 -18Q182 -18 139 22T96 131Q96 209 144 257T266 305Q333 305 375 265T418 158Q418 80 371 31T250 -18Z" />
<glyph unicode="@" glyph-name="at" horiz-adv-x="1485" d="M842 330Q844 338 844 343V356H842Q760 182 621 182Q533 182 483 258T432 477Q432 709 544 892T821 1075Q920 1075 948 967H952L975 1055H1155L1053 631Q1020 494 1020 442Q1020 369 1071 369Q1141 369
1205 511T1270 838Q1270 1298 881 1298Q639 1298 469 1065T299 457Q299 229 409 97T719 -35Q906 -35 1071 59L1036 -115Q885 -188 674 -188Q415 -188 265 -7T115 477Q115 878 336 1166T899 1454Q1171 1454 1306 1297T1442 844Q1442 592 1319 387T1004 182Q927 182
885 224T842 330ZM829 918Q750 918 693 775T635 498Q635 356 707 356Q786 356 843 535T901 825Q901 918 829 918Z" />
<glyph unicode="A" glyph-name="A" horiz-adv-x="1147" d="M737 0L725 352H375L217 0H-84L606 1434H948L1016 0H737ZM713 1024Q712 1079 721 1157H715Q686 1071 668 1030L461 569H725L713 1024Z" />
<glyph unicode="B" glyph-name="B" horiz-adv-x="1034" d="M774 745V741Q977 698 977 463Q977 270 844 135T467 0H8L313 1434H723Q1063 1434 1063 1118Q1063 984 986 881T774 745ZM539 1198L465 852H588Q675 852 725 911T776 1049Q776 1126 744 1162T631 1198H539ZM418
616L336 238H477Q580 238 635 300T690 457Q690 616 553 616H418Z" />
<glyph unicode="C" glyph-name="C" horiz-adv-x="991" d="M1047 1139Q951 1217 823 1217Q623 1217 501 1023T379 547Q379 217 635 217Q762 217 879 295L821 39Q715 -25 549 -25Q332 -25 213 117T94 524Q94 926 290 1192T823 1458Q977 1458 1104 1399L1047 1139Z" />
<glyph unicode="D" glyph-name="D" horiz-adv-x="1157" d="M8 0L313 1434H680Q908 1434 1030 1298T1153 918Q1153 570 963 285T428 0H8ZM539 1196L338 238H428Q633 238 748 441T864 905Q864 1196 631 1196H539Z" />
<glyph unicode="E" glyph-name="E" horiz-adv-x="870" d="M909 1196H539L463 838H807L760 600H414L336 238H731L682 0H8L313 1434H958L909 1196Z" />
<glyph unicode="F" glyph-name="F" horiz-adv-x="827" d="M913 1196H541L457 799H799L748 563H406L287 0H8L313 1434H963L913 1196Z" />
<glyph unicode="G" glyph-name="G" horiz-adv-x="1135" d="M1094 1118Q970 1217 829 1217Q619 1217 497 1019T375 547Q375 217 608 217Q666 217 711 242L784 582H567L614 803H1106L954 88Q765 -25 565 -25Q339 -25 214 120T88 535Q88 915 287 1186T831 1458Q1013
1458 1153 1380L1094 1118Z" />
<glyph unicode="H" glyph-name="H" horiz-adv-x="1165" d="M932 0H655L782 596H414L287 0H10L315 1434H592L469 854H838L961 1434H1237L932 0Z" />
<glyph unicode="I" glyph-name="I" horiz-adv-x="516" d="M285 0H8L313 1434H590L285 0Z" />
<glyph unicode="J" glyph-name="J" horiz-adv-x="739" d="M629 553Q556 209 432 92T100 -25Q-6 -25 -76 16L-25 254Q31 205 106 205Q200 205 254 276T346 522L539 1434H815L629 553Z" />
<glyph unicode="K" glyph-name="K" horiz-adv-x="1055" d="M700 707L930 0H623L455 633Q448 660 442 709H438L285 0H8L313 1434H590L444 743H449Q479 803 492 823L891 1434H1221L700 707Z" />
<glyph unicode="L" glyph-name="L" horiz-adv-x="786" d="M676 0H8L313 1434H592L338 238H725L676 0Z" />
<glyph unicode="M" glyph-name="M" horiz-adv-x="1454" d="M1223 0H981L1151 793L1237 1182H1227Q1166 1020 1124 924L725 0H504L481 907Q479 983 487 1182H477Q455 997 410 774L244 0H10L313 1434H680L705 557Q707 478 686 309H690Q748 496 774 557L1161 1434H1526L1223
0Z" />
<glyph unicode="N" glyph-name="N" horiz-adv-x="1149" d="M915 0H678L481 821Q464 892 455 1036H451Q426 834 410 758L250 0H10L313 1434H573L760 639Q769 600 778 432H782Q791 551 809 643L979 1434H1221L915 0Z" />
<glyph unicode="O" glyph-name="O" horiz-adv-x="1165" d="M510 -25Q309 -25 200 106T90 473Q90 881 267 1169T750 1458Q951 1458 1059 1330T1167 985Q1167 562 994 269T510 -25ZM727 1217Q577 1217 477 966T377 485Q377 217 539 217Q688 217 784 469T881 975Q881
1217 727 1217Z" />
<glyph unicode="P" glyph-name="P" horiz-adv-x="1020" d="M389 489L285 0H8L313 1434H688Q870 1434 967 1336T1065 1061Q1065 817 932 653T549 489H389ZM541 1196L438 729H549Q657 729 717 814T778 1016Q778 1196 627 1196H541Z" />
<glyph unicode="Q" glyph-name="Q" horiz-adv-x="1165" d="M709 14L920 -379H602L457 -20Q282 -6 186 122T90 473Q90 881 267 1169T750 1458Q951 1458 1059 1330T1167 985Q1167 643 1047 371T709 14ZM727 1217Q576 1217 477 964T377 487Q377 217 539 217Q689 217
785 469T881 973Q881 1217 727 1217Z" />
<glyph unicode="R" glyph-name="R" horiz-adv-x="1014" d="M707 649V645Q819 590 842 410L891 0H606L571 352Q551 551 444 551H401L285 0H8L313 1434H690Q867 1434 960 1345T1053 1096Q1053 921 958 799T707 649ZM541 1202L453 786H539Q651 786 709 859T768 1040Q768
1202 621 1202H541Z" />
<glyph unicode="S" glyph-name="S" horiz-adv-x="856" d="M877 1126Q762 1217 637 1217Q559 1217 508 1165T457 1034Q457 976 478 933T578 823Q695 725 747 632T799 426Q799 248 677 112T332 -25Q141 -25 2 76L59 334Q203 217 330 217Q418 217 465 268T512 391Q512
456 485 504T381 616Q262 716 217 802T172 999Q172 1194 300 1326T629 1458Q800 1458 930 1380L877 1126Z" />
<glyph unicode="T" glyph-name="T" horiz-adv-x="936" d="M1055 1196H754L500 0H223L479 1196H176L225 1434H1106L1055 1196Z" />
<glyph unicode="U" glyph-name="U" horiz-adv-x="1139" d="M1038 584Q959 211 831 93T502 -25Q312 -25 212 81T111 375Q111 470 158 705L313 1434H588L424 653Q383 458 383 397Q383 217 528 217Q607 217 656 275T752 539L942 1434H1219L1038 584Z" />
<glyph unicode="V" glyph-name="V" horiz-adv-x="1010" d="M551 0H242L195 1434H473L475 494Q475 429 461 309H465L477 347Q507 442 530 498L913 1434H1212L551 0Z" />
<glyph unicode="W" glyph-name="W" horiz-adv-x="1593" d="M1178 0H874L901 891Q903 944 912 1040L915 1085H911Q895 1022 852 893L514 0H201L209 1434H489L446 510Q443 438 428 340H432Q449 400 494 512L854 1434H1143L1106 504Q1101 376 1096 342H1100Q1123
438 1151 508L1493 1434H1776L1178 0Z" />
<glyph unicode="X" glyph-name="X" horiz-adv-x="1014" d="M700 711L893 0H596L516 403Q504 463 504 545H502Q473 464 440 412L195 0H-119L401 743L215 1434H508L582 1057Q599 970 596 920H598L610 948Q634 1004 659 1051L889 1434H1198L700 711Z" />
<glyph unicode="Y" glyph-name="Y" horiz-adv-x="961" d="M616 539L502 0H225L340 543L201 1434H483L535 938Q539 901 539 880Q539 858 535 793H541Q571 878 602 936L856 1434H1149L616 539Z" />
<glyph unicode="Z" glyph-name="Z" horiz-adv-x="983" d="M1085 1276L346 238H870L819 0H-57L-23 160L713 1196H233L283 1434H1118L1085 1276Z" />
<glyph unicode="[" glyph-name="bracketleft" horiz-adv-x="594" d="M702 1264H532L229 -158H401L365 -326H-12L362 1434H739L702 1264Z" />
<glyph unicode="\" glyph-name="backslash" horiz-adv-x="707" d="M381 -238L203 1434H424L600 -238H381Z" />
<glyph unicode="]" glyph-name="bracketright" horiz-adv-x="594" d="M231 -326H-145L-109 -158H53L356 1264H193L229 1434H606L231 -326Z" />
<glyph unicode="^" glyph-name="asciicircum" horiz-adv-x="1067" d="M856 678L575 1239H571L305 678H117L514 1452H631L1047 678H856Z" />
<glyph unicode="_" glyph-name="underscore" horiz-adv-x="760" d="M592 -297H-170L-147 -178H614L592 -297Z" />
<glyph unicode="`" glyph-name="grave" horiz-adv-x="696" d="M539 1161L322 1485H547L727 1161H539Z" />
<glyph unicode="a" glyph-name="a" horiz-adv-x="983" d="M848 356Q814 196 803 0H549Q549 79 567 199H563Q438 -18 266 -18Q157 -18 98 71T39 324Q39 613 207 827T657 1042Q818 1042 985 1001L848 356ZM690 838Q648 846 612 846Q488 846 400 694T311 354Q311
205 397 205Q474 205 537 307T623 518L690 838Z" />
<glyph unicode="b" glyph-name="b" horiz-adv-x="979" d="M2 55L311 1516H571L475 1059Q455 962 435 886L422 836H426Q552 1042 721 1042Q827 1042 887 966T948 741Q948 458 782 220T319 -18Q131 -18 2 55ZM293 203Q330 186 377 186Q503 186 590 353T678 690Q678
827 590 827Q523 827 458 744T362 522L293 203Z" />
<glyph unicode="c" glyph-name="c" horiz-adv-x="729" d="M715 776Q665 827 588 827Q476 827 396 698T315 381Q315 197 455 197Q522 197 610 254L569 43Q480 -25 342 -25Q202 -25 124 78T45 356Q45 652 196 849T571 1047Q690 1047 764 993L715 776Z" />
<glyph unicode="d" glyph-name="d" horiz-adv-x="979" d="M850 358Q813 180 803 0H547Q555 111 571 205H569Q444 -18 266 -18Q159 -18 99 70T39 324Q39 610 208 826T629 1042Q683 1042 733 1030L838 1516H1092L850 358ZM690 834Q653 846 616 846Q491 846 401 696T311
362Q311 205 397 205Q552 205 641 604L690 834Z" />
<glyph unicode="e" glyph-name="e" horiz-adv-x="881" d="M307 410Q303 391 303 348Q303 180 455 180Q565 180 715 270L672 57Q539 -18 389 -18Q225 -18 135 81T45 354Q45 647 204 844T588 1042Q726 1042 804 972T883 786Q883 437 307 410ZM332 582Q471 587 552
637T633 766Q633 846 553 846Q487 846 424 773T332 582Z" />
<glyph unicode="f" glyph-name="f" horiz-adv-x="567" d="M756 1309Q728 1325 682 1325Q575 1325 545 1186L508 1024H672L627 811H463L217 -340H-43L203 811H90L135 1024H248L283 1188Q358 1540 686 1540Q741 1540 801 1522L756 1309Z" />
<glyph unicode="g" glyph-name="g" horiz-adv-x="979" d="M793 84Q729 -221 582 -351T186 -481Q48 -481 -59 -436L-14 -209Q90 -266 197 -266Q328 -266 414 -176T528 59L555 186H551Q433 -18 264 -18Q158 -18 99 69T39 319Q39 619 209 830T657 1042Q793 1042 985
1001L793 84ZM690 838Q645 846 612 846Q488 846 400 694T311 354Q311 205 397 205Q472 205 536 304T623 520L690 838Z" />
<glyph unicode="h" glyph-name="h" horiz-adv-x="958" d="M760 0H502L637 639Q651 705 651 750Q651 827 578 827Q510 827 455 765T383 627L252 0H-8L311 1516H571L434 864H438Q552 1042 729 1042Q826 1042 877 989T928 844Q928 778 907 688L760 0Z" />
<glyph unicode="i" glyph-name="i" horiz-adv-x="457" d="M381 1165Q315 1165 273 1204T231 1313Q231 1387 278 1434T397 1481Q462 1481 503 1443T545 1337Q545 1260 498 1213T381 1165ZM252 0H-8L207 1024H467L252 0Z" />
<glyph unicode="j" glyph-name="j" horiz-adv-x="457" d="M381 1165Q313 1165 272 1206T231 1313Q231 1387 278 1434T397 1481Q463 1481 505 1443T547 1337Q547 1262 499 1214T381 1165ZM258 31Q199 -249 96 -365T-164 -481Q-236 -481 -295 -446L-250 -238Q-214
-266 -174 -266Q-114 -266 -78 -213T-16 -37L207 1024H467L258 31Z" />
<glyph unicode="k" glyph-name="k" horiz-adv-x="879" d="M618 524L782 0H500L365 520H360L250 0H-10L311 1516H571L369 555H373L698 1024H997L618 524Z" />
<glyph unicode="l" glyph-name="l" horiz-adv-x="457" d="M252 0H-8L311 1516H571L252 0Z" />
<glyph unicode="m" glyph-name="m" horiz-adv-x="1421" d="M1214 0H954L1092 647Q1108 722 1108 750Q1108 827 1049 827Q983 827 932 767T864 625L733 0H473L610 647Q625 718 625 752Q625 827 565 827Q501 827 451 767T383 627L252 0H-8L150 741Q177 869 195 1024H455Q450
947 434 864H438Q557 1042 719 1042Q884 1042 891 852Q1019 1042 1202 1042Q1288 1042 1335 990T1382 852Q1382 797 1360 694L1214 0Z" />
<glyph unicode="n" glyph-name="n" horiz-adv-x="956" d="M760 0H502L637 639Q651 705 651 750Q651 827 578 827Q510 827 455 765T383 627L252 0H-8L147 737Q183 909 197 1024H457Q452 960 434 866H438Q550 1042 729 1042Q826 1042 877 989T928 844Q928 778 907
688L760 0Z" />
<glyph unicode="o" glyph-name="o" horiz-adv-x="961" d="M389 -18Q228 -18 138 82T47 356Q47 651 186 846T571 1042Q735 1042 824 943T913 659Q913 398 776 190T389 -18ZM543 827Q449 827 383 674T317 344Q317 197 418 197Q514 197 578 356T643 664Q643 827 543 827Z" />
<glyph unicode="p" glyph-name="p" horiz-adv-x="979" d="M250 -4L152 -471H-106L135 666Q176 860 193 1024H444Q439 935 416 819H420Q554 1042 721 1042Q831 1042 890 964T950 741Q950 451 783 217T360 -18Q302 -18 250 -4ZM293 197Q338 182 369 182Q502 182
589 350T676 684Q676 823 592 823Q524 823 459 740T358 502L293 197Z" />
<glyph unicode="q" glyph-name="q" horiz-adv-x="979" d="M674 -471H418L490 -129Q526 47 561 184H557Q424 -18 266 -18Q159 -18 99 68T39 319Q39 612 206 827T657 1042Q809 1042 983 997L674 -471ZM688 836Q663 846 612 846Q489 846 400 694T311 356Q311 205
399 205Q472 205 534 303T623 516L688 836Z" />
<glyph unicode="r" glyph-name="r" horiz-adv-x="666" d="M694 772Q650 791 610 791Q420 791 356 498L252 0H-8L150 741Q166 817 195 1024H455Q454 989 428 850H432Q533 1042 686 1042Q711 1042 748 1032L694 772Z" />
<glyph unicode="s" glyph-name="s" horiz-adv-x="713" d="M676 793Q589 840 514 840Q377 840 377 727Q377 662 465 590Q621 462 621 322Q621 177 516 80T225 -18Q95 -18 -25 33L20 242Q119 180 219 180Q356 180 356 293Q356 366 258 446Q111 568 111 711Q111 853
213 947T494 1042Q596 1042 715 1004L676 793Z" />
<glyph unicode="t" glyph-name="t" horiz-adv-x="606" d="M625 811H455L354 334Q344 287 344 258Q344 197 406 197Q442 197 508 223L463 16Q359 -18 276 -18Q72 -18 72 184Q72 228 88 313L195 811H72L119 1024H242L293 1260Q298 1260 544 1320Q564 1325 565 1325L502
1024H672L625 811Z" />
<glyph unicode="u" glyph-name="u" horiz-adv-x="956" d="M811 287Q779 135 762 0H502Q516 121 524 158H520Q412 -18 227 -18Q133 -18 82 36T31 178Q31 240 49 336L197 1024H457L322 385Q305 305 305 274Q305 197 381 197Q449 197 504 262T573 397L707 1024H967L811 287Z" />
<glyph unicode="v" glyph-name="v" horiz-adv-x="864" d="M469 0H166L106 1024H365L377 397Q379 313 362 201H367Q398 309 432 393L688 1024H975L469 0Z" />
<glyph unicode="w" glyph-name="w" horiz-adv-x="1323" d="M967 0H674L690 588Q692 674 709 762H705Q679 673 649 590L414 0H123V1024H371L342 393Q339 335 324 244H332Q337 269 370 360L381 393L637 1024H901L881 391Q880 374 864 242H872Q910 370 918 389L1155
1024H1413L967 0Z" />
<glyph unicode="x" glyph-name="x" horiz-adv-x="881" d="M588 502L776 0H512L451 242Q428 332 424 365H420Q387 289 358 250L193 0H-90L313 528L133 1024H397L457 793Q468 750 481 672H483Q513 740 541 782L692 1024H979L588 502Z" />
<glyph unicode="y" glyph-name="y" horiz-adv-x="846" d="M412 -80Q298 -313 208 -397T-25 -481Q-109 -481 -172 -449L-127 -238Q-93 -266 -43 -266Q51 -266 115 -143L193 10L96 1024H365L383 442Q385 365 377 285H379Q390 314 403 356Q416 397 434 440L684 1024H950L412
-80Z" />
<glyph unicode="z" glyph-name="z" horiz-adv-x="786" d="M819 834L311 213H688L643 0H-76L-43 156L506 811H131L176 1024H860L819 834Z" />
<glyph unicode="{" glyph-name="braceleft" horiz-adv-x="594" d="M682 1257Q610 1255 577 1213T518 1055L465 809Q412 564 285 516V512Q352 458 352 338Q352 274 334 188L289 -18Q276 -78 276 -115Q276 -214 369 -217L334 -389Q76 -387 76 -137Q76 -67 94 18L143
242Q156 301 156 328Q156 435 66 442L104 625Q221 629 256 786L309 1034Q351 1232 435 1333T719 1434L682 1257Z" />
<glyph unicode="|" glyph-name="bar" horiz-adv-x="465" d="M166 -481V1567H362V-481H166Z" />
<glyph unicode="}" glyph-name="braceright" horiz-adv-x="594" d="M487 420Q371 416 338 258L285 10Q245 -179 161 -283T-127 -387L-88 -213Q-31 -213 7 -178T76 -8L127 236Q178 480 309 528V532Q242 585 242 707Q242 783 260 856L303 1063Q315 1121 315 1161Q315
1260 223 1262L260 1436Q518 1433 518 1182Q518 1112 500 1026L451 803Q438 744 438 717Q438 611 528 602L487 420Z" />
<glyph unicode="~" glyph-name="asciitilde" horiz-adv-x="1067" d="M993 762Q986 608 916 522T731 436Q623 436 522 526Q438 594 389 594Q285 594 279 434H117Q122 588 192 673T385 758Q482 758 578 680Q671 600 723 600Q772 600 799 644T827 762H993Z" />
</font>
</defs>
</svg>
