<?xml version="1.0" standalone="no"?> <!DOCTYPE svg PUBLIC "-//W3C//DTD SVG 1.0//EN" "http://www.w3.org/TR/2001/REC-SVG-20010904/DTD/svg10.dtd" > <svg xmlns="http://www.w3.org/2000/svg" width="100%" height="100%">
<defs >
<font id="segoeli" horiz-adv-x="1028" ><font-face
    font-family="Segoe Light"
    units-per-em="2048"
    panose-1="2 11 3 2 4 2 0 9 2 3"
    ascent="2181"
    descent="-578"
    alphabetic="0" />
<missing-glyph horiz-adv-x="2048" d="" />
<glyph unicode=" " glyph-name="space" horiz-adv-x="563" d="" />
<glyph unicode="!" glyph-name="exclam" horiz-adv-x="537" d="M279 403H193L401 1434H508L279 403ZM174 -18Q140 -18 117 5T94 63Q94 98 117 120T174 143Q208 143 232 121T256 63Q256 29 232 6T174 -18Z" />
<glyph unicode="&quot;" glyph-name="quotedbl" horiz-adv-x="662" d="M621 985H545L535 1434H631L621 985ZM373 985H297L287 1434H383L373 985Z" />
<glyph unicode="#" glyph-name="numbersign" horiz-adv-x="1237" d="M1194 946H922L846 600H1130L1112 522H829L743 123H664L750 522H481L395 123H315L401 522H119L137 600H418L494 946H201L219 1024H510L598 1434H678L590 1024H858L946 1434H1026L938 1024H1212L1194
946ZM573 946L498 600H766L842 946H573Z" />
<glyph unicode="$" glyph-name="dollar" horiz-adv-x="1055" d="M977 1284Q873 1343 733 1350L604 737Q747 631 800 551T854 371Q854 217 753 113T449 0L403 -209H326L371 2Q198 13 70 80L88 180Q214 99 387 86L516 686Q377 788 324 873T270 1059Q270 1208 379
1314T674 1434L713 1614H791L752 1432Q880 1424 997 1382L977 1284ZM655 1348Q519 1337 443 1258T367 1067Q367 917 537 786L655 1348ZM584 635L467 86Q607 95 682 168T758 358Q758 501 584 635Z" />
<glyph unicode="%" glyph-name="percent" horiz-adv-x="1632" d="M416 723Q292 723 223 798T154 999Q154 1187 261 1320T535 1454Q652 1454 722 1380T793 1178Q793 986 688 855T416 723ZM526 1374Q403 1374 325 1268T246 1006Q246 911 291 857T422 803Q548 803
625 910T702 1169Q702 1374 526 1374ZM334 0H225L1395 1434H1503L334 0ZM1174 -20Q1049 -20 980 56T911 256Q911 445 1019 578T1292 711Q1410 711 1480 637T1550 434Q1550 242 1446 111T1174 -20ZM1284 631Q1160 631 1082 524T1004 262Q1004 168 1050 114T1180
59Q1306 59 1383 167T1460 426Q1460 631 1284 631Z" />
<glyph unicode="&amp;" glyph-name="ampersand" horiz-adv-x="1456" d="M1358 754Q1272 448 1090 244L1270 0H1149L1020 174Q793 -31 506 -31Q338 -31 234 73T129 338Q129 637 563 795Q444 958 444 1102Q444 1263 553 1360T819 1458Q958 1458 1044 1376T1130 1167Q1130
1034 1035 945T702 766L1038 311Q1189 485 1264 754H1358ZM655 827Q855 898 944 973T1034 1153Q1034 1251 974 1312T813 1374Q696 1374 619 1303T541 1110Q541 985 655 827ZM610 731Q417 658 321 567T225 346Q225 217 303 138T524 59Q775 59 971 240L610 731Z"
/>
<glyph unicode="&apos;" glyph-name="quotesingle" horiz-adv-x="414" d="M373 985H297L287 1434H383L373 985Z" />
<glyph unicode="(" glyph-name="parenleft" horiz-adv-x="588" d="M754 1434Q475 1160 345 900T215 330Q215 7 385 -281H289Q123 13 123 317Q123 635 244 897T649 1434H754Z" />
<glyph unicode=")" glyph-name="parenright" horiz-adv-x="588" d="M-39 -281H-143Q132 -11 263 251T395 823Q395 1148 225 1434H322Q487 1138 487 836Q487 518 366 256T-39 -281Z" />
<glyph unicode="*" glyph-name="asterisk" horiz-adv-x="831" d="M598 1051L797 784L721 733L547 1010L369 733L295 784L494 1051L199 1126L225 1212L514 1110L498 1434H592L578 1110L864 1212L891 1126L598 1051Z" />
<glyph unicode="+" glyph-name="plus" horiz-adv-x="1331" d="M729 555V143H645V555H233V639H645V1051H729V639H1141V555H729Z" />
<glyph unicode="," glyph-name="comma" horiz-adv-x="455" d="M61 -248H-25L160 227H266L61 -248Z" />
<glyph unicode="-" glyph-name="hyphen" horiz-adv-x="815" d="M690 555H143L164 645H711L690 555Z" />
<glyph unicode="." glyph-name="period" horiz-adv-x="455" d="M143 -18Q109 -18 86 5T63 63Q63 98 86 120T143 143Q177 143 201 121T225 63Q225 29 201 6T143 -18Z" />
<glyph unicode="/" glyph-name="slash" horiz-adv-x="791" d="M-66 -238H-166L874 1434H975L-66 -238Z" />
<glyph unicode="0" glyph-name="zero" horiz-adv-x="1055" d="M436 -25Q102 -25 102 444Q102 850 277 1154T721 1458Q878 1458 963 1350T1049 1036Q1049 617 879 296T436 -25ZM713 1374Q488 1374 344 1081T199 453Q199 59 451 59Q661 59 807 353T954 1030Q954
1192 892 1283T713 1374Z" />
<glyph unicode="1" glyph-name="one" horiz-adv-x="1055" d="M53 0L72 84H399L664 1333L287 1219L307 1315L782 1458L492 84H815L797 0H53Z" />
<glyph unicode="2" glyph-name="two" horiz-adv-x="1055" d="M125 88V84H825L809 0H-8L10 96L567 567Q784 751 866 870T948 1133Q948 1240 876 1307T674 1374Q532 1374 340 1253L360 1364Q539 1458 692 1458Q859 1458 951 1369T1044 1143Q1044 996 964 862T631
514L125 88Z" />
<glyph unicode="3" glyph-name="three" horiz-adv-x="1055" d="M625 741V737Q738 715 805 627T872 416Q872 223 740 99T360 -25Q197 -25 31 51L55 152Q204 59 371 59Q568 59 672 152T776 408Q776 698 414 698H311L332 788H426Q897 788 897 1135Q897 1243 833 1308T649
1374Q511 1374 352 1286L369 1386Q512 1458 657 1458Q821 1458 907 1372T993 1143Q993 992 898 883T625 741Z" />
<glyph unicode="4" glyph-name="four" horiz-adv-x="1055" d="M768 492H969L948 401H748L664 0H569L653 401H10L29 496L854 1434H967L768 492ZM846 1300L776 1214L147 492H674L817 1171Q823 1202 843 1272L850 1300H846Z" />
<glyph unicode="5" glyph-name="five" horiz-adv-x="1055" d="M989 1343H451L346 840Q438 846 473 846Q672 846 777 750T883 483Q883 252 743 114T348 -25Q185 -25 66 23L86 121Q206 59 356 59Q561 59 673 169T786 469Q786 762 457 762Q370 762 233 750L373 1434H1008L989
1343Z" />
<glyph unicode="6" glyph-name="six" horiz-adv-x="1055" d="M1049 1329Q950 1374 840 1374Q607 1374 440 1170T229 668H233Q362 895 604 895Q767 895 862 792T958 516Q958 298 832 137T498 -25Q323 -25 225 106T127 477Q127 891 333 1174T856 1458Q965 1458 1067
1419L1049 1329ZM590 811Q429 811 327 701T225 426Q225 262 300 161T500 59Q663 59 762 189T862 508Q862 648 789 729T590 811Z" />
<glyph unicode="7" glyph-name="seven" horiz-adv-x="1055" d="M246 0H141L977 1350H240L258 1434H1122L1118 1409L246 0Z" />
<glyph unicode="8" glyph-name="eight" horiz-adv-x="1055" d="M649 737Q924 593 924 356Q924 194 806 85T459 -25Q279 -25 178 69T76 313Q76 468 169 573T487 758Q281 897 281 1087Q281 1252 397 1355T694 1458Q849 1458 941 1372T1034 1145Q1034 865 649 737ZM580
788Q771 845 854 926T938 1139Q938 1245 870 1309T686 1374Q543 1374 460 1298T377 1096Q377 909 580 788ZM551 700Q375 648 274 561T172 322Q172 210 249 135T465 59Q639 59 733 140T827 352Q827 469 762 550T551 700Z" />
<glyph unicode="9" glyph-name="nine" horiz-adv-x="1055" d="M66 14L84 104Q189 59 289 59Q532 59 698 247T907 750H903Q781 524 537 524Q372 524 275 640T178 926Q178 1152 315 1305T637 1458Q817 1458 913 1326T1010 954Q1010 558 811 267T279 -25Q175 -25
66 14ZM637 1374Q485 1374 380 1249T274 934Q274 788 351 698T547 608Q710 608 811 723T913 997Q913 1178 840 1276T637 1374Z" />
<glyph unicode=":" glyph-name="colon" horiz-adv-x="455" d="M332 881Q298 881 275 905T252 963Q252 997 275 1019T332 1042Q366 1042 390 1020T414 963Q414 929 390 905T332 881ZM143 -18Q109 -18 86 5T63 63Q63 98 86 120T143 143Q177 143 201 121T225 63Q225
29 201 6T143 -18Z" />
<glyph unicode=";" glyph-name="semicolon" horiz-adv-x="455" d="M332 881Q298 881 275 905T252 963Q252 997 275 1019T332 1042Q366 1042 390 1020T414 963Q414 929 390 905T332 881ZM43 -248H-43L141 227H248L43 -248Z" />
<glyph unicode="&lt;" glyph-name="less" horiz-adv-x="1331" d="M217 580V598L1051 1065V971L373 592V588L1051 254V158L217 580Z" />
<glyph unicode="=" glyph-name="equal" horiz-adv-x="1331" d="M233 750V834H1141V750H233ZM233 362V446H1141V362H233Z" />
<glyph unicode="&gt;" glyph-name="greater" horiz-adv-x="1331" d="M289 158V254L967 588V592L289 971V1065L1122 598V580L289 158Z" />
<glyph unicode="?" glyph-name="question" horiz-adv-x="756" d="M365 403H274Q298 543 345 624T516 793Q635 875 689 955T743 1145Q743 1251 683 1312T518 1374Q399 1374 248 1296L266 1397Q409 1458 530 1458Q676 1458 758 1372T840 1155Q840 1034 779 931T569
725Q463 653 424 588T365 403ZM262 -18Q228 -18 205 5T182 63Q182 98 205 120T262 143Q296 143 320 121T344 63Q344 29 320 6T262 -18Z" />
<glyph unicode="@" glyph-name="at" horiz-adv-x="1966" d="M1192 428H1188Q1049 188 854 188Q739 188 676 267T612 475Q612 746 752 916T1069 1087Q1227 1087 1282 932H1286Q1294 963 1303 1002Q1312 1041 1323 1073H1411Q1410 1051 1374 904Q1272 488 1272 422Q1272
347 1300 310T1405 272Q1546 272 1638 423T1731 770Q1731 1062 1567 1218T1100 1374Q771 1374 548 1150T324 575Q324 256 502 76T1020 -104Q1259 -104 1479 -2L1458 -100Q1243 -188 1010 -188Q634 -188 431 15T227 575Q227 962 490 1210T1110 1458Q1447 1458 1637
1274T1827 780Q1827 552 1704 370T1399 188Q1299 188 1245 240T1190 389V408Q1190 417 1192 428ZM1061 1004Q928 1004 819 861T709 481Q709 386 753 329T866 272Q1037 272 1137 458T1237 807Q1237 1004 1061 1004Z" />
<glyph unicode="A" glyph-name="A" horiz-adv-x="1206" d="M973 0L901 446H285L20 0H-84L748 1434H840L1073 0H973ZM786 1200Q781 1232 780 1259Q779 1284 776 1309H772Q744 1251 717 1204L334 537H889L786 1200Z" />
<glyph unicode="B" glyph-name="B" horiz-adv-x="1106" d="M741 739V735Q973 678 973 436Q973 227 845 114T481 0H76L379 1434H727Q881 1434 970 1351T1059 1128Q1059 975 975 871T741 739ZM461 1343L340 788H569Q758 788 857 878T956 1118Q956 1225 889 1284T705
1343H461ZM322 698L195 90H471Q870 90 870 428Q870 555 783 626T532 698H322Z" />
<glyph unicode="C" glyph-name="C" horiz-adv-x="1294" d="M1307 1253Q1150 1368 930 1368Q627 1368 441 1148T254 602Q254 350 377 208T727 66Q933 66 1110 168L1087 57Q913 -25 719 -25Q448 -25 300 139T152 594Q152 970 375 1214T944 1458Q1153 1458 1327 1362L1307
1253Z" />
<glyph unicode="D" glyph-name="D" horiz-adv-x="1386" d="M76 0L383 1434H715Q1020 1434 1178 1284T1337 850Q1337 484 1121 242T483 0H76ZM461 1343L195 90H483Q857 90 1046 296T1235 842Q1235 1343 696 1343H461Z" />
<glyph unicode="E" glyph-name="E" horiz-adv-x="989" d="M1030 1343H459L336 768H866L848 678H317L193 90H797L778 0H76L379 1434H1049L1030 1343Z" />
<glyph unicode="F" glyph-name="F" horiz-adv-x="952" d="M1030 1343H459L334 758H864L846 668H315L174 0H76L379 1434H1049L1030 1343Z" />
<glyph unicode="G" glyph-name="G" horiz-adv-x="1421" d="M1352 1264Q1159 1368 942 1368Q615 1368 435 1157T254 614Q254 354 387 210T762 66Q922 66 1069 127L1176 623H813L834 713H1296L1161 76Q976 -25 754 -25Q465 -25 309 148T152 608Q152 981 369 1219T963
1458Q1174 1458 1376 1364L1352 1264Z" />
<glyph unicode="H" glyph-name="H" horiz-adv-x="1386" d="M1094 0H995L1141 688H319L174 0H76L379 1434H477L338 778H1159L1298 1434H1397L1094 0Z" />
<glyph unicode="I" glyph-name="I" horiz-adv-x="467" d="M174 0H76L379 1434H477L174 0Z" />
<glyph unicode="J" glyph-name="J" horiz-adv-x="655" d="M477 459Q415 170 311 73T35 -25Q-40 -25 -98 2L-78 100Q-16 66 47 66Q180 66 255 146T379 455L588 1434H686L477 459Z" />
<glyph unicode="K" glyph-name="K" horiz-adv-x="1079" d="M430 733L946 0H823L356 678Q350 686 330 723H326L174 0H76L379 1434H477L334 758H338Q346 766 356 777Q365 787 375 795L1098 1434H1231L430 733Z" />
<glyph unicode="L" glyph-name="L" horiz-adv-x="868" d="M750 0H76L379 1434H477L193 90H768L750 0Z" />
<glyph unicode="M" glyph-name="M" horiz-adv-x="1706" d="M1409 0H1317L1532 1018Q1547 1088 1583 1225H1579Q1528 1137 1505 1104L762 0H729L451 1098Q434 1165 430 1233H426Q410 1113 393 1042L172 0H76L379 1434H463L754 279Q763 245 772 160H778L850 287L1620
1434H1716L1409 0Z" />
<glyph unicode="N" glyph-name="N" horiz-adv-x="1452" d="M1157 0H1102L460 1204Q447 1231 440 1249H436Q426 1187 412 1122L172 0H76L379 1434H446L1059 285Q1092 223 1102 193H1106Q1111 220 1116 255Q1121 289 1126 313L1364 1434H1462L1157 0Z" />
<glyph unicode="O" glyph-name="O" horiz-adv-x="1544" d="M725 -25Q444 -25 298 145T152 594Q152 955 366 1206T922 1458Q1194 1458 1341 1287T1489 846Q1489 503 1289 239T725 -25ZM920 1368Q611 1368 433 1143T254 596Q254 350 377 208T729 66Q1044 66 1215
293T1386 840Q1386 1085 1260 1226T920 1368Z" />
<glyph unicode="P" glyph-name="P" horiz-adv-x="1114" d="M297 575L174 0H76L379 1434H692Q892 1434 999 1335T1106 1061Q1106 840 966 708T563 575H297ZM459 1343L315 666H569Q782 666 893 767T1004 1053Q1004 1189 921 1266T672 1343H459Z" />
<glyph unicode="Q" glyph-name="Q" horiz-adv-x="1544" d="M825 -18L1112 -358H979L719 -25Q444 -22 298 146T152 594Q152 955 366 1206T922 1458Q1194 1458 1341 1287T1489 846Q1489 539 1320 281T825 -18ZM920 1368Q611 1368 433 1143T254 596Q254 350 377 208T729
66Q1044 66 1215 293T1386 840Q1386 1085 1260 1226T920 1368Z" />
<glyph unicode="R" glyph-name="R" horiz-adv-x="1137" d="M672 659V655Q765 614 807 457L922 0H817L711 432Q685 538 630 588T467 639H309L174 0H76L379 1434H745Q925 1434 1018 1340T1112 1085Q1112 912 996 793T672 659ZM459 1343L328 729H594Q796 729 903
826T1010 1081Q1010 1201 938 1272T731 1343H459Z" />
<glyph unicode="S" glyph-name="S" horiz-adv-x="1018" d="M987 1303Q872 1368 707 1368Q545 1368 455 1286T365 1079Q365 985 409 915T588 745Q739 635 793 552T848 358Q848 194 733 85T395 -25Q207 -25 45 59L63 164Q218 66 401 66Q567 66 656 141T745 346Q745
435 695 509T516 678Q373 782 318 870T262 1071Q262 1234 387 1346T717 1458Q864 1458 1008 1405L987 1303Z" />
<glyph unicode="T" glyph-name="T" horiz-adv-x="1047" d="M1161 1343H748L463 0H365L649 1343H236L254 1434H1180L1161 1343Z" />
<glyph unicode="U" glyph-name="U" horiz-adv-x="1327" d="M1171 547Q1102 220 962 98T592 -25Q386 -25 274 88T162 399Q162 478 186 616L358 1434H457L293 651Q262 503 262 416Q262 66 610 66Q792 66 904 169T1067 520L1260 1434H1358L1171 547Z" />
<glyph unicode="V" glyph-name="V" horiz-adv-x="1282" d="M555 0H481L260 1434H367L537 287Q548 211 545 152H549Q577 218 623 289L1300 1434H1415L555 0Z" />
<glyph unicode="W" glyph-name="W" horiz-adv-x="1767" d="M1223 0H1141L1051 1079Q1045 1152 1049 1212H1044Q1026 1148 989 1081L422 0H338L215 1434H319L406 285Q412 206 412 158H416Q431 197 475 285L1073 1434H1122L1204 285Q1210 201 1210 158H1214Q1223
184 1274 285L1835 1434H1946L1223 0Z" />
<glyph unicode="X" glyph-name="X" horiz-adv-x="1153" d="M1276 1434Q1265 1417 688 725Q716 639 844 310L963 0H850L645 547Q630 588 612 653H608Q587 618 528 547L72 0H-57Q120 204 559 727Q490 916 408 1125L289 1434H401L600 895Q622 836 633 795H637Q664
837 711 895L1157 1434H1276Z" />
<glyph unicode="Y" glyph-name="Y" horiz-adv-x="1106" d="M598 545L483 0H381L496 543L248 1434H352L537 748Q558 671 563 639H567Q606 704 637 745L1130 1434H1245L598 545Z" />
<glyph unicode="Z" glyph-name="Z" horiz-adv-x="1167" d="M1274 1397L127 92H981L963 0H-45L-37 41L1104 1341H309L328 1434H1280L1274 1397Z" />
<glyph unicode="[" glyph-name="bracketleft" horiz-adv-x="588" d="M707 1350H481L141 -242H367L350 -326H33L406 1434H723L707 1350Z" />
<glyph unicode="\" glyph-name="backslash" horiz-adv-x="791" d="M549 -240L201 1434H289L633 -240H549Z" />
<glyph unicode="]" glyph-name="bracketright" horiz-adv-x="588" d="M182 -326H-135L-119 -242H106L446 1350H221L238 1434H555L182 -326Z" />
<glyph unicode="^" glyph-name="asciicircum" horiz-adv-x="1331" d="M1008 702L700 1315H696L389 702H293L678 1458H719L1104 702H1008Z" />
<glyph unicode="_" glyph-name="underscore" horiz-adv-x="850" d="M-174 -297L-150 -178H700L676 -297H-174Z" />
<glyph unicode="`" glyph-name="grave" horiz-adv-x="614" d="M487 1188L281 1516H379L571 1188H487Z" />
<glyph unicode="a" glyph-name="a" horiz-adv-x="1071" d="M879 367Q834 149 834 0H739Q744 112 782 328H778Q587 -25 365 -25Q232 -25 157 70T82 340Q82 622 249 835T700 1049Q827 1049 1012 1012L879 367ZM905 942Q796 965 692 965Q455 965 317 782T178 350Q178
59 383 59Q523 59 661 251T844 647L905 942Z" />
<glyph unicode="b" glyph-name="b" horiz-adv-x="1071" d="M70 59L379 1516H471L358 985Q330 854 297 717H301Q470 1049 709 1049Q989 1049 989 682Q989 401 828 188T377 -25Q219 -25 70 59ZM174 115Q271 59 387 59Q620 59 756 243T893 670Q893 814 846 889T684
965Q542 965 409 782T229 377L174 115Z" />
<glyph unicode="c" glyph-name="c" horiz-adv-x="838" d="M842 877Q756 965 618 965Q417 965 296 789T174 385Q174 235 246 147T449 59Q566 59 709 166L684 51Q553 -25 438 -25Q271 -25 177 85T82 381Q82 656 234 852T627 1049Q764 1049 866 979L842 877Z" />
<glyph unicode="d" glyph-name="d" horiz-adv-x="1071" d="M866 324Q856 279 845 166T834 0H739Q744 126 780 326H776Q587 -25 362 -25Q230 -25 156 70T82 342Q82 618 248 833T698 1049Q791 1049 920 1016L1026 1516H1118L866 324ZM903 930Q796 965 688 965Q453
965 316 781T178 358Q178 59 383 59Q522 59 661 251T844 647L903 930Z" />
<glyph unicode="e" glyph-name="e" horiz-adv-x="956" d="M180 457Q178 443 178 427V395Q178 236 259 148T485 59Q613 59 766 143L748 47Q616 -25 471 -25Q285 -25 184 88T82 403Q82 655 236 852T623 1049Q762 1049 838 981T915 803Q915 615 725 538T180 457ZM193
541Q508 541 663 599T819 793Q819 965 608 965Q464 965 348 849T193 541Z" />
<glyph unicode="f" glyph-name="f" horiz-adv-x="528" d="M778 1434Q740 1456 672 1456Q483 1456 428 1192L393 1024H664L645 940H375L102 -340H10L283 940H98L117 1024H301L342 1217Q411 1540 682 1540Q740 1540 797 1524L778 1434Z" />
<glyph unicode="g" glyph-name="g" horiz-adv-x="1071" d="M811 72Q746 -231 612 -356T252 -481Q112 -481 -23 -410L-6 -313Q136 -393 270 -393Q452 -393 557 -292T713 35L778 324H774Q585 -25 365 -25Q228 -25 155 71T82 344Q82 621 250 835T702 1049Q858 1049
1012 1012L811 72ZM905 942Q799 965 688 965Q453 965 316 781T178 360Q178 59 377 59Q530 59 666 256T844 647L905 942Z" />
<glyph unicode="h" glyph-name="h" horiz-adv-x="1102" d="M838 0H745L866 588Q893 719 893 758Q893 965 717 965Q571 965 429 800T252 477L150 0H57L381 1516H473L307 735H311Q502 1049 735 1049Q987 1049 987 768Q987 699 958 573L838 0Z" />
<glyph unicode="i" glyph-name="i" horiz-adv-x="428" d="M391 1282Q361 1282 338 1304T315 1360Q315 1393 338 1413T391 1434Q422 1434 445 1414T469 1360Q469 1328 446 1305T391 1282ZM150 0H57L274 1024H367L150 0Z" />
<glyph unicode="j" glyph-name="j" horiz-adv-x="428" d="M391 1282Q361 1282 338 1304T315 1360Q315 1393 338 1413T391 1434Q422 1434 445 1414T469 1360Q469 1328 446 1305T391 1282ZM160 43Q95 -260 -5 -370T-264 -481Q-346 -481 -412 -442L-391 -348Q-322
-397 -252 -397Q-142 -397 -68 -318T61 12L276 1024H369L160 43Z" />
<glyph unicode="k" glyph-name="k" horiz-adv-x="891" d="M367 522L770 0H653L264 518H260L150 0H57L381 1516H473L264 541H268L838 1024H969L367 522Z" />
<glyph unicode="l" glyph-name="l" horiz-adv-x="428" d="M150 0H57L381 1516H473L150 0Z" />
<glyph unicode="m" glyph-name="m" horiz-adv-x="1704" d="M1440 0H1348L1468 588Q1495 720 1495 758Q1495 965 1341 965Q1215 965 1074 806T897 481L795 0H702L823 588Q850 719 850 758Q850 965 696 965Q569 965 429 803T252 477L150 0H57L215 739Q249 898 260
1024H352L303 733H307Q502 1049 715 1049Q835 1049 889 979T944 733Q1141 1049 1360 1049Q1589 1049 1589 768Q1589 719 1561 573L1440 0Z" />
<glyph unicode="n" glyph-name="n" horiz-adv-x="1104" d="M838 0H745L866 588Q893 719 893 758Q893 965 717 965Q571 965 429 800T252 477L150 0H57L215 739Q249 898 260 1024H352L303 733H307Q502 1049 735 1049Q989 1049 989 774Q989 707 958 573L838 0Z" />
<glyph unicode="o" glyph-name="o" horiz-adv-x="1061" d="M440 -25Q271 -25 177 81T82 371Q82 652 235 850T623 1049Q790 1049 884 946T979 655Q979 368 828 172T440 -25ZM612 965Q419 965 299 788T178 379Q178 231 249 145T449 59Q644 59 763 235T883 645Q883
801 812 883T612 965Z" />
<glyph unicode="p" glyph-name="p" horiz-adv-x="1071" d="M156 16L49 -481H-43L207 700Q218 752 229 861T240 1024H334Q327 886 291 696H295Q485 1049 711 1049Q989 1049 989 682Q989 404 821 190T371 -25Q265 -25 156 16ZM172 102Q267 59 385 59Q617 59 755
241T893 666Q893 965 686 965Q548 965 411 774T229 377L172 102Z" />
<glyph unicode="q" glyph-name="q" horiz-adv-x="1071" d="M696 -481H604L715 39Q747 191 776 309H772Q592 -25 365 -25Q228 -25 155 69T82 342Q82 621 249 835T702 1049Q845 1049 1010 997L696 -481ZM903 930Q792 965 688 965Q457 965 318 783T178 358Q178 59
383 59Q525 59 663 254T844 647L903 930Z" />
<glyph unicode="r" glyph-name="r" horiz-adv-x="684" d="M735 930H731Q679 965 625 965Q502 965 397 811T248 453L152 0H59L217 739Q249 890 260 1024H352L315 782H319Q449 1049 643 1049Q699 1049 752 1024L735 930Z" />
<glyph unicode="s" glyph-name="s" horiz-adv-x="795" d="M713 901Q613 965 485 965Q383 965 320 909T256 762Q256 688 294 643T424 543Q541 472 588 409T635 264Q635 137 545 56T287 -25Q145 -25 27 45L47 143Q161 59 293 59Q539 59 539 254Q539 312 509 357T369
469Q240 550 200 612T160 750Q160 879 254 964T494 1049Q629 1049 733 997L713 901Z" />
<glyph unicode="t" glyph-name="t" horiz-adv-x="608" d="M647 940H377L240 297Q221 208 221 160Q221 63 309 63Q353 63 471 115L451 27Q352 -20 289 -20Q127 -20 127 154Q127 212 147 301L285 940H98L117 1024H301L358 1290Q381 1298 408 1306Q434 1313 457 1321L393
1024H668L647 940Z" />
<glyph unicode="u" glyph-name="u" horiz-adv-x="1104" d="M889 285Q855 126 844 0H752L766 85Q769 109 774 134L801 291H797Q602 -25 369 -25Q115 -25 115 256Q115 295 145 451L266 1024H358L238 436Q211 304 211 266Q211 59 387 59Q533 59 675 224T852 547L954
1024H1047L889 285Z" />
<glyph unicode="v" glyph-name="v" horiz-adv-x="928" d="M401 0H317L139 1024H233L367 215Q377 155 377 109H381Q397 148 432 211L909 1024H1014L401 0Z" />
<glyph unicode="w" glyph-name="w" horiz-adv-x="1386" d="M918 0H836L772 772Q769 812 774 858H770Q763 832 731 774L319 0H236L141 1024H236L301 207Q304 163 299 121H307Q318 163 342 207L776 1024H838L899 207Q902 167 895 121H903Q914 163 938 207L1356 1024H1456L918
0Z" />
<glyph unicode="x" glyph-name="x" horiz-adv-x="883" d="M485 498L717 0H608L461 348Q442 392 426 436H422Q416 429 408 418L390 394Q380 382 371 370Q361 357 352 348L55 0H-66L387 504L158 1024H260L412 657Q433 607 446 565H451Q461 581 483 609Q493 621 502
633Q511 645 518 653L834 1024H948L485 498Z" />
<glyph unicode="y" glyph-name="y" horiz-adv-x="928" d="M289 -190Q182 -361 103 -421T-80 -481Q-135 -481 -168 -465L-147 -371Q-115 -389 -74 -389Q-4 -389 54 -348T178 -201L313 14L133 1024H227L373 195Q376 178 381 119H385L426 190L936 1024H1044L289 -190Z" />
<glyph unicode="z" glyph-name="z" horiz-adv-x="950" d="M995 991L117 84H778L760 0H-51L-43 43L825 940H197L215 1024H1001L995 991Z" />
<glyph unicode="{" glyph-name="braceleft" horiz-adv-x="588" d="M672 1360Q591 1357 541 1308T463 1130L399 831Q351 606 195 563V559Q295 524 295 383Q295 337 283 283L223 2Q207 -73 207 -113Q207 -231 332 -240L317 -309Q115 -293 115 -113Q115 -80 127 -20L188
274Q201 337 201 375Q201 510 80 535L94 598Q199 616 241 668T307 831L373 1137Q408 1301 485 1366T686 1432L672 1360Z" />
<glyph unicode="|" glyph-name="bar" horiz-adv-x="463" d="M184 -481V1567H279V-481H184Z" />
<glyph unicode="}" glyph-name="braceright" horiz-adv-x="588" d="M494 524Q396 509 351 458T281 291L215 -14Q179 -180 101 -244T-98 -309L-84 -238Q-1 -233 48 -184T125 -8L188 291Q235 515 393 559V563Q293 600 293 739Q293 785 305 840L365 1120Q381 1195
381 1235Q381 1354 256 1362L270 1432Q473 1416 473 1235Q473 1203 461 1143L399 848Q387 791 387 748Q387 612 508 588L494 524Z" />
<glyph unicode="~" glyph-name="asciitilde" horiz-adv-x="1331" d="M1108 711Q1101 596 1039 533T874 469Q777 469 674 553Q569 637 498 637Q356 637 344 479H266Q272 592 334 656T500 721Q594 721 694 641Q762 587 798 569T879 551Q1012 551 1030 711H1108Z" />
</font>
</defs>
</svg>
