<?xml version="1.0" standalone="no"?> <!DOCTYPE svg PUBLIC "-//W3C//DTD SVG 1.0//EN" "http://www.w3.org/TR/2001/REC-SVG-20010904/DTD/svg10.dtd" > <svg xmlns="http://www.w3.org/2000/svg" width="100%" height="100%">
<defs >
<font id="segoebi" horiz-adv-x="1165" ><font-face
    font-family="Segoe"
    units-per-em="2048"
    panose-1="2 11 8 2 4 2 0 9 2 3"
    ascent="2181"
    descent="-578"
    alphabetic="0" />
<missing-glyph horiz-adv-x="2048" d="" />
<glyph unicode=" " glyph-name="space" horiz-adv-x="563" d="" />
<glyph unicode="!" glyph-name="exclam" horiz-adv-x="709" d="M463 446H207L379 1434H711L463 446ZM274 -23Q199 -23 148 22T96 133Q96 209 151 258T289 307Q364 307 414 262T465 150Q465 76 411 27T274 -23Z" />
<glyph unicode="&quot;" glyph-name="quotedbl" horiz-adv-x="1010" d="M930 1008H729L698 1452H961L930 1008ZM535 1008H332L303 1452H565L535 1008Z" />
<glyph unicode="#" glyph-name="numbersign" horiz-adv-x="1171" d="M1163 889H979L924 641H1130L1085 461H887L809 115H608L682 461H453L379 115H178L250 461H63L100 641H289L342 889H139L174 1069H379L453 1425H657L584 1069H813L889 1425H1092L1018 1069H1202L1163
889ZM545 889L489 641H721L776 889H545Z" />
<glyph unicode="$" glyph-name="dollar" horiz-adv-x="1180" d="M1092 1124Q950 1195 811 1214L727 819Q1049 673 1049 432Q1049 226 919 110T551 -12L508 -209H365L406 -8Q239 6 63 82L117 334Q267 244 455 219L537 602Q207 757 207 1016Q207 1205 341 1321T715
1444L752 1620H897L858 1438Q1004 1426 1143 1368L1092 1124ZM666 1212Q580 1210 530 1163T479 1042Q479 949 594 877L666 1212ZM670 543L598 217Q682 221 730 272T778 395Q778 481 670 543Z" />
<glyph unicode="%" glyph-name="percent" horiz-adv-x="1778" d="M492 707Q340 707 255 795T170 1018Q170 1189 278 1321T578 1454Q722 1454 807 1373T893 1149Q893 974 785 841T492 707ZM569 1282Q486 1282 436 1199T385 1018Q385 957 415 919T500 881Q578 881
628 961T678 1143Q678 1282 569 1282ZM428 0H182L1421 1434H1667L428 0ZM1286 -20Q1132 -20 1048 68T963 289Q963 462 1071 594T1370 727Q1516 727 1601 646T1686 420Q1686 245 1579 113T1286 -20ZM1362 553Q1279 553 1229 470T1178 289Q1178 229 1208 192T1292
154Q1371 154 1420 234T1470 416Q1470 476 1442 514T1362 553Z" />
<glyph unicode="&amp;" glyph-name="ampersand" horiz-adv-x="1505" d="M1440 768Q1376 498 1163 281L1366 0H1024L946 111Q742 -25 494 -25Q283 -25 170 77T57 342Q57 493 155 602T477 799Q385 941 385 1079Q385 1235 507 1346T836 1458Q1014 1458 1117 1370T1221
1147Q1221 898 838 752L1032 475Q1144 615 1174 768H1440ZM727 913Q860 971 904 1021T948 1133Q948 1187 913 1218T817 1249Q748 1249 704 1206T659 1096Q659 1006 727 913ZM823 291Q759 377 660 526Q606 606 586 633Q360 534 360 381Q360 303 413 250T555 197Q700
197 823 291Z" />
<glyph unicode="&apos;" glyph-name="quotesingle" horiz-adv-x="600" d="M528 1010H328L299 1452H561L528 1010Z" />
<glyph unicode="(" glyph-name="parenleft" horiz-adv-x="758" d="M956 1434Q428 890 428 283Q428 -64 569 -315H324Q246 -195 201 -23T156 315Q156 960 684 1434H956Z" />
<glyph unicode=")" glyph-name="parenright" horiz-adv-x="758" d="M74 -315H-199Q330 227 330 834Q330 1178 188 1434H434Q512 1313 557 1140T602 803Q602 163 74 -315Z" />
<glyph unicode="*" glyph-name="asterisk" horiz-adv-x="932" d="M682 1016L881 805L696 680L559 934L422 680L240 805L438 1016L164 1053L236 1255L485 1147L442 1434H676L633 1147L885 1255L956 1053L682 1016Z" />
<glyph unicode="+" glyph-name="plus" horiz-adv-x="1450" d="M846 485V100H643V485H258V688H643V1073H846V688H1231V485H846Z" />
<glyph unicode="," glyph-name="comma" horiz-adv-x="555" d="M150 -254H-109L123 252H420L150 -254Z" />
<glyph unicode="-" glyph-name="hyphen" horiz-adv-x="827" d="M666 436H119L166 657H713L666 436Z" />
<glyph unicode="." glyph-name="period" horiz-adv-x="555" d="M193 -25Q115 -25 65 20T14 131Q14 205 69 254T207 303Q282 303 332 259T383 145Q383 73 330 24T193 -25Z" />
<glyph unicode="/" glyph-name="slash" horiz-adv-x="909" d="M92 -238H-225L827 1434H1145L92 -238Z" />
<glyph unicode="0" glyph-name="zero" horiz-adv-x="1180" d="M504 -25Q311 -25 196 104T80 465Q80 836 257 1147T764 1458Q959 1458 1068 1334T1178 1004Q1178 604 1004 290T504 -25ZM743 1217Q589 1217 489 932T389 432Q389 326 427 273T526 219Q676 219 772
509T868 1016Q868 1217 743 1217Z" />
<glyph unicode="1" glyph-name="one" horiz-adv-x="1180" d="M39 0L94 250H389L580 1143L260 1077L315 1333L963 1458L707 250H999L944 0H39Z" />
<glyph unicode="2" glyph-name="two" horiz-adv-x="1180" d="M416 266V262H987L930 0H-14L41 256L555 662Q727 798 788 875T850 1040Q850 1117 798 1161T649 1206Q473 1206 279 1079L342 1368Q526 1458 735 1458Q941 1458 1054 1361T1167 1096Q1167 952 1083 825T770
528L416 266Z" />
<glyph unicode="3" glyph-name="three" horiz-adv-x="1180" d="M756 733V729Q883 704 950 623T1018 420Q1018 221 865 98T422 -25Q210 -25 35 57L90 313Q248 217 414 217Q554 217 628 274T702 428Q702 614 424 614H301L352 856H504Q647 856 729 911T811 1065Q811
1217 610 1217Q460 1217 305 1145L360 1401Q535 1458 713 1458Q909 1458 1018 1367T1128 1118Q1128 972 1029 867T756 733Z" />
<glyph unicode="4" glyph-name="four" horiz-adv-x="1180" d="M944 530H1116L1069 305H897L834 0H541L606 305H-18L23 504L811 1434H1137L944 530ZM776 1108Q734 1040 700 997L315 530H653L750 971Q775 1086 782 1108H776Z" />
<glyph unicode="5" glyph-name="five" horiz-adv-x="1180" d="M1122 1176H596L535 889Q570 893 602 893Q809 893 923 786T1038 496Q1038 285 876 130T418 -25Q183 -25 49 47L104 303Q248 217 414 217Q562 217 642 289T723 459Q723 651 459 651Q326 651 209 635L381
1434H1178L1122 1176Z" />
<glyph unicode="6" glyph-name="six" horiz-adv-x="1180" d="M1130 1155Q1024 1217 889 1217Q728 1217 608 1101T432 768H436Q559 922 748 922Q910 922 1003 816T1096 524Q1096 302 951 140T571 -23Q351 -23 226 119T100 514Q100 911 322 1184T905 1458Q1066 1458
1186 1413L1130 1155ZM623 688Q528 688 468 613T408 432Q408 332 455 278T582 223Q675 223 734 305T793 496Q793 688 623 688Z" />
<glyph unicode="7" glyph-name="seven" horiz-adv-x="1180" d="M475 0H121L874 1176H217L272 1434H1274L1239 1272L475 0Z" />
<glyph unicode="8" glyph-name="eight" horiz-adv-x="1180" d="M846 731Q1075 618 1075 395Q1075 210 920 91T514 -29Q295 -29 167 74T39 352Q39 650 410 758Q240 871 240 1059Q240 1237 378 1347T750 1458Q952 1458 1071 1358T1190 1106Q1190 821 846 731ZM655
852Q891 917 891 1083Q891 1150 846 1190T731 1231Q638 1231 589 1181T539 1049Q539 933 655 852ZM602 629Q466 595 400 525T334 369Q334 300 388 250T537 199Q644 199 711 254T778 397Q778 542 602 629Z" />
<glyph unicode="9" glyph-name="nine" horiz-adv-x="1180" d="M70 23L115 279Q225 219 360 219Q712 219 823 666H819Q696 510 516 510Q350 510 253 622T156 911Q156 1131 298 1295T690 1460Q906 1460 1030 1313T1155 922Q1155 545 943 261T346 -23Q182 -23 70
23ZM680 1212Q584 1212 525 1131T465 940Q465 851 508 796T631 741Q728 741 790 814T852 999Q852 1084 805 1148T680 1212Z" />
<glyph unicode=":" glyph-name="colon" horiz-adv-x="555" d="M344 707Q270 707 219 750T168 862Q168 939 222 987T360 1036Q436 1036 486 991T537 879Q537 803 481 755T344 707ZM193 -25Q115 -25 65 20T14 131Q14 205 69 254T207 303Q282 303 332 259T383 145Q383
73 330 24T193 -25Z" />
<glyph unicode=";" glyph-name="semicolon" horiz-adv-x="555" d="M344 707Q270 707 219 750T168 862Q168 939 222 987T360 1036Q436 1036 486 991T537 879Q537 803 481 755T344 707ZM119 -254H-137L92 252H391L119 -254Z" />
<glyph unicode="&lt;" glyph-name="less" horiz-adv-x="1450" d="M229 489V653L1163 1098V860L498 573V569L1163 301V66L229 489Z" />
<glyph unicode="=" glyph-name="equal" horiz-adv-x="1450" d="M258 700V905H1231V700H258ZM258 266V469H1231V266H258Z" />
<glyph unicode="&gt;" glyph-name="greater" horiz-adv-x="1450" d="M307 76V313L975 580V584L307 870V1108L1243 664V502L307 76Z" />
<glyph unicode="?" glyph-name="question" horiz-adv-x="920" d="M506 434H246Q278 599 330 684T471 829Q601 920 640 970T680 1075Q680 1136 634 1175T508 1214Q349 1214 203 1124L260 1401Q418 1470 590 1470Q785 1470 890 1378T995 1133Q995 897 707 717Q609
657 567 596T506 434ZM324 -23Q248 -23 198 22T147 133Q147 211 201 259T340 307Q415 307 465 262T516 150Q516 76 462 27T324 -23Z" />
<glyph unicode="@" glyph-name="at" horiz-adv-x="1954" d="M1108 369H1102Q991 180 821 180Q704 180 635 270T565 510Q565 731 703 902T1047 1073Q1189 1073 1229 965H1233L1257 1055H1483Q1325 516 1325 432Q1325 358 1393 358Q1489 358 1569 488T1649 793Q1649
1012 1508 1142T1098 1272Q787 1272 583 1064T379 537Q379 278 529 134T967 -10Q1247 -10 1446 78L1411 -115Q1224 -188 942 -188Q571 -188 363 5T154 532Q154 928 424 1190T1116 1452Q1469 1452 1664 1277T1860 811Q1860 549 1714 365T1327 180Q1220 180 1162
227T1104 334Q1104 353 1108 369ZM1061 901Q955 901 878 784T801 518Q801 358 913 358Q1017 358 1094 511T1171 784Q1171 901 1061 901Z" />
<glyph unicode="A" glyph-name="A" horiz-adv-x="1440" d="M985 0L944 319H430L262 0H-102L725 1434H1110L1315 0H985ZM868 1051Q862 1110 870 1178H864Q850 1125 813 1055L551 567H920L868 1051Z" />
<glyph unicode="B" glyph-name="B" horiz-adv-x="1327" d="M952 752V748Q1080 729 1152 651T1225 453Q1225 248 1065 124T618 0H49L354 1434H862Q1076 1434 1186 1350T1296 1110Q1296 972 1206 878T952 752ZM629 1196L555 856H707Q822 856 889 907T956 1047Q956
1196 762 1196H629ZM506 616L424 238H604Q740 238 811 295T883 451Q883 526 831 571T676 616H506Z" />
<glyph unicode="C" glyph-name="C" horiz-adv-x="1300" d="M1313 1087Q1151 1176 981 1176Q740 1176 593 1021T446 629Q446 452 548 353T827 254Q1001 254 1176 344L1108 39Q955 -25 743 -25Q447 -25 276 144T104 598Q104 976 343 1217T1001 1458Q1188 1458 1380
1393L1313 1087Z" />
<glyph unicode="D" glyph-name="D" horiz-adv-x="1542" d="M49 0L354 1434H858Q1157 1434 1328 1279T1499 854Q1499 474 1269 237T629 0H49ZM623 1171L430 262H627Q868 262 1012 417T1157 829Q1157 1171 780 1171H623Z" />
<glyph unicode="E" glyph-name="E" horiz-adv-x="1085" d="M1124 1171H623L555 848H1022L965 584H500L430 262H965L909 0H49L354 1434H1180L1124 1171Z" />
<glyph unicode="F" glyph-name="F" horiz-adv-x="1067" d="M1128 1167H623L549 821H1014L956 555H492L375 0H49L354 1434H1184L1128 1167Z" />
<glyph unicode="G" glyph-name="G" horiz-adv-x="1452" d="M1370 1081Q1207 1188 993 1188Q748 1188 600 1036T451 627Q451 446 547 344T807 242Q890 242 961 264L1022 555H731L786 813H1399L1245 86Q1018 -25 762 -25Q459 -25 285 149T111 612Q111 980 351 1219T1008
1458Q1222 1458 1434 1376L1370 1081Z" />
<glyph unicode="H" glyph-name="H" horiz-adv-x="1565" d="M1290 0H965L1087 580H498L375 0H49L354 1434H680L557 862H1147L1270 1434H1595L1290 0Z" />
<glyph unicode="I" glyph-name="I" horiz-adv-x="649" d="M375 0H49L352 1434H678L375 0Z" />
<glyph unicode="J" glyph-name="J" horiz-adv-x="901" d="M762 573Q634 -25 131 -25Q21 -25 -86 18L-27 317Q56 254 147 254Q370 254 438 582L621 1434H946L762 573Z" />
<glyph unicode="K" glyph-name="K" horiz-adv-x="1333" d="M1509 1434Q1447 1356 1183 1085Q918 813 856 735Q892 645 1050 368Q1207 90 1243 0H850Q831 57 700 310Q537 624 524 690H520L375 0H49L354 1434H680L539 768H543Q554 783 569 801L592 831Q637 887 855
1132Q1089 1395 1114 1434H1509Z" />
<glyph unicode="L" glyph-name="L" horiz-adv-x="1049" d="M905 0H49L354 1434H680L432 266H961L905 0Z" />
<glyph unicode="M" glyph-name="M" horiz-adv-x="1968" d="M1694 0H1374L1569 922Q1584 993 1612 1098L1624 1147H1618Q1551 990 1536 965L989 0H733L588 954Q580 1007 580 1147H573Q549 967 526 856L344 0H49L352 1434H803L940 520Q951 449 946 377H952Q989 485
1012 524L1518 1434H1997L1694 0Z" />
<glyph unicode="N" glyph-name="N" horiz-adv-x="1636" d="M1362 0H1067L618 911Q579 990 569 1030H563Q547 904 535 856L352 0H49L352 1434H672L1102 557Q1145 469 1153 438H1157Q1161 499 1178 578L1360 1434H1665L1362 0Z" />
<glyph unicode="O" glyph-name="O" horiz-adv-x="1554" d="M711 -25Q439 -25 275 146T111 592Q111 958 333 1208T911 1458Q1184 1458 1347 1290T1511 842Q1511 487 1295 231T711 -25ZM874 1176Q689 1176 571 1004T453 596Q453 435 531 345T743 254Q937 254 1053
428T1169 831Q1169 991 1091 1083T874 1176Z" />
<glyph unicode="P" glyph-name="P" horiz-adv-x="1290" d="M479 494L375 0H49L354 1434H846Q1071 1434 1194 1325T1317 1026Q1317 786 1149 640T680 494H479ZM627 1186L532 739H680Q820 739 897 812T975 1004Q975 1087 919 1136T754 1186H627Z" />
<glyph unicode="Q" glyph-name="Q" horiz-adv-x="1554" d="M973 14L1298 -367H883L659 -23Q405 -5 258 165T111 590Q111 957 332 1207T913 1458Q1184 1458 1347 1291T1511 838Q1511 547 1362 317T973 14ZM879 1176Q690 1176 572 1005T453 596Q453 435 531 345T743
254Q937 254 1053 427T1169 829Q1169 993 1091 1084T879 1176Z" />
<glyph unicode="R" glyph-name="R" horiz-adv-x="1311" d="M885 643V639Q1014 596 1057 414L1157 0H811L733 369Q695 549 547 549H492L375 0H49L354 1434H844Q1068 1434 1186 1336T1305 1069Q1305 902 1192 787T885 643ZM629 1192L543 793H674Q809 793 885 856T961
1016Q961 1192 764 1192H629Z" />
<glyph unicode="S" glyph-name="S" horiz-adv-x="1100" d="M1067 1102Q900 1204 731 1204Q635 1204 583 1159T530 1051Q530 993 564 948T721 827Q878 730 942 637T1006 418Q1006 226 866 101T453 -25Q229 -25 29 76L84 360Q267 229 457 229Q666 229 666 389Q666
449 629 491T461 610Q188 762 188 1012Q188 1206 331 1332T729 1458Q931 1458 1122 1380L1067 1102Z" />
<glyph unicode="T" glyph-name="T" horiz-adv-x="1202" d="M1303 1171H899L651 0H326L573 1171H164L221 1434H1360L1303 1171Z" />
<glyph unicode="U" glyph-name="U" horiz-adv-x="1481" d="M1343 584Q1268 236 1109 106T668 -25Q427 -25 289 104T150 459Q150 564 178 690L338 1434H664L502 688Q473 554 473 492Q473 380 538 317T705 254Q833 254 907 336T1018 590L1200 1434H1526L1343 584Z" />
<glyph unicode="V" glyph-name="V" horiz-adv-x="1366" d="M739 0H383L199 1434H530L627 442Q631 406 631 365Q631 332 625 303H633Q654 370 692 446L1190 1434H1546L739 0Z" />
<glyph unicode="W" glyph-name="W" horiz-adv-x="2064" d="M1550 0H1206L1145 930Q1142 982 1161 1087H1157Q1123 983 1098 930L643 0H274L201 1434H541L551 483Q552 431 535 326H541Q561 397 602 485L1063 1434H1405L1452 473Q1455 412 1444 328H1448Q1467 395
1501 479L1898 1434H2236L1550 0Z" />
<glyph unicode="X" glyph-name="X" horiz-adv-x="1341" d="M928 709L1212 0H846L702 455Q688 499 688 565H684Q676 548 664 517Q651 486 633 461L289 0H-111L504 739L227 1434H604L731 993Q743 951 743 881H748Q776 954 799 985L1141 1434H1518L928 709Z" />
<glyph unicode="Y" glyph-name="Y" horiz-adv-x="1245" d="M776 520L668 0H342L451 514L193 1434H543L657 889Q665 849 667 826Q668 797 670 774H672Q698 841 725 885L1075 1434H1438L776 520Z" />
<glyph unicode="Z" glyph-name="Z" horiz-adv-x="1243" d="M1350 1253L440 262H1141L1085 0H-70L-31 186L891 1171H231L287 1434H1389L1350 1253Z" />
<glyph unicode="[" glyph-name="bracketleft" horiz-adv-x="758" d="M858 1233H639L350 -125H569L526 -326H53L426 1434H899L858 1233Z" />
<glyph unicode="\" glyph-name="backslash" horiz-adv-x="895" d="M516 -238L170 1434H444L786 -238H516Z" />
<glyph unicode="]" glyph-name="bracketright" horiz-adv-x="758" d="M332 -326H-139L-96 -125H119L408 1233H190L231 1434H705L332 -326Z" />
<glyph unicode="^" glyph-name="asciicircum" horiz-adv-x="1450" d="M1053 610L766 1196H760L492 610H250L680 1458H842L1294 610H1053Z" />
<glyph unicode="_" glyph-name="underscore" horiz-adv-x="850" d="M-176 -297L-152 -178H698L674 -297H-176Z" />
<glyph unicode="`" glyph-name="grave" horiz-adv-x="899" d="M551 1186L291 1511H555L764 1186H551Z" />
<glyph unicode="a" glyph-name="a" horiz-adv-x="1214" d="M1044 338Q1006 160 1006 0H686Q686 59 700 174H696Q556 -25 375 -25Q226 -25 144 79T61 371Q61 637 235 843T752 1049Q944 1049 1184 995L1044 338ZM829 817Q783 827 725 827Q562 827 471 693T379 389Q379
307 413 262T504 217Q596 217 666 310T776 578L829 817Z" />
<glyph unicode="b" glyph-name="b" horiz-adv-x="1214" d="M37 86L340 1516H659L563 1065Q539 951 516 870H524Q655 1049 844 1049Q988 1049 1070 948T1153 666Q1153 383 978 179T473 -25Q224 -25 37 86ZM385 223Q440 197 518 197Q655 197 745 331T836 631Q836
807 700 807Q612 807 540 711T438 473L385 223Z" />
<glyph unicode="c" glyph-name="c" horiz-adv-x="946" d="M901 743Q813 807 696 807Q561 807 470 692T379 432Q379 217 571 217Q688 217 813 291L764 49Q618 -25 465 -25Q275 -25 168 88T61 397Q61 670 237 859T694 1049Q850 1049 958 991L901 743Z" />
<glyph unicode="d" glyph-name="d" horiz-adv-x="1214" d="M1044 338Q1006 158 1006 0H686Q686 36 697 135L700 172H696Q560 -25 377 -25Q229 -25 145 76T61 367Q61 655 246 852T725 1049Q802 1049 874 1036L977 1516H1292L1044 338ZM829 815Q783 827 725 827Q560
827 470 691T379 389Q379 217 508 217Q695 217 778 584L829 815Z" />
<glyph unicode="e" glyph-name="e" horiz-adv-x="1065" d="M373 395Q371 389 371 384V375Q371 295 425 248T580 201Q741 201 913 295L864 59Q695 -25 500 -25Q292 -25 177 88T61 399Q61 673 235 861T676 1049Q858 1049 954 969T1051 760Q1051 576 882 488T373
395ZM393 590Q750 586 750 756Q750 793 723 817T645 842Q562 842 491 775T393 590Z" />
<glyph unicode="f" glyph-name="f" horiz-adv-x="768" d="M940 1270Q867 1298 813 1298Q684 1298 647 1137L623 1024H856L807 791H569L326 -340H10L252 791H78L129 1024H301L334 1171Q417 1540 801 1540Q901 1540 989 1513L940 1270Z" />
<glyph unicode="g" glyph-name="g" horiz-adv-x="1214" d="M999 123Q927 -217 757 -349T299 -481Q124 -481 -33 -406L23 -152Q170 -248 319 -248Q465 -248 550 -171T672 76L690 166H686Q559 -25 375 -25Q228 -25 145 78T61 362Q61 654 244 851T731 1049Q929 1049
1184 997L999 123ZM829 817Q783 827 711 827Q574 827 477 700T379 389Q379 307 413 262T504 217Q603 217 672 317T776 575L829 817Z" />
<glyph unicode="h" glyph-name="h" horiz-adv-x="1225" d="M997 0H680L803 584Q821 669 821 702Q821 807 721 807Q642 807 555 715T442 504L336 0H16L338 1516H657L510 827H514Q596 933 698 991T895 1049Q1151 1049 1151 780Q1151 723 1122 592L997 0Z" />
<glyph unicode="i" glyph-name="i" horiz-adv-x="578" d="M449 1184Q372 1184 322 1228T272 1337Q272 1412 325 1459T463 1507Q539 1507 589 1463T639 1354Q639 1281 586 1233T449 1184ZM336 0H16L233 1024H553L336 0Z" />
<glyph unicode="j" glyph-name="j" horiz-adv-x="578" d="M449 1184Q372 1184 322 1228T272 1337Q272 1412 325 1459T463 1507Q539 1507 589 1463T639 1354Q639 1281 586 1233T449 1184ZM346 53Q232 -481 -184 -481Q-277 -481 -344 -449L-293 -207Q-242 -240 -188
-240Q-35 -240 20 20L233 1024H553L346 53Z" />
<glyph unicode="k" glyph-name="k" horiz-adv-x="1151" d="M764 541L1028 0H676L451 532H446L334 0H16L338 1516H657L457 580H461L868 1024H1243L764 541Z" />
<glyph unicode="l" glyph-name="l" horiz-adv-x="578" d="M336 0H16L338 1516H657L336 0Z" />
<glyph unicode="m" glyph-name="m" horiz-adv-x="1866" d="M1638 0H1321L1446 584Q1464 668 1464 702Q1464 807 1366 807Q1291 807 1205 714T1094 506L989 0H670L795 584Q813 668 813 702Q813 807 715 807Q638 807 553 714T444 506L336 0H16L168 702Q202 861 223
1024H535Q518 863 510 827H514Q688 1049 887 1049Q1115 1049 1139 815Q1313 1049 1536 1049Q1792 1049 1792 780Q1792 723 1763 592L1638 0Z" />
<glyph unicode="n" glyph-name="n" horiz-adv-x="1225" d="M997 0H680L803 584Q821 669 821 702Q821 807 723 807Q642 807 555 715T444 506L338 0H16L168 702Q202 861 223 1024H535Q518 863 510 827H514Q594 930 696 989T895 1049Q1151 1049 1151 780Q1151 723
1122 592L997 0Z" />
<glyph unicode="o" glyph-name="o" horiz-adv-x="1178" d="M508 -25Q295 -25 178 91T61 408Q61 678 224 863T672 1049Q881 1049 998 933T1116 618Q1116 349 957 162T508 -25ZM645 807Q530 807 455 687T379 408Q379 317 421 267T532 217Q650 217 723 334T797 614Q797
702 756 754T645 807Z" />
<glyph unicode="p" glyph-name="p" horiz-adv-x="1214" d="M334 -4L233 -471H-86L160 686Q203 886 209 1024H520Q516 958 500 850H504Q639 1049 846 1049Q987 1049 1070 947T1153 670Q1153 382 977 179T504 -25Q417 -25 334 -4ZM375 215Q435 197 502 197Q643 197
739 326T836 633Q836 807 702 807Q606 807 533 706T428 449L375 215Z" />
<glyph unicode="q" glyph-name="q" horiz-adv-x="1214" d="M872 -471H555L645 -41Q663 43 683 116Q690 141 694 158H690Q558 -25 377 -25Q227 -25 144 80T61 369Q61 646 239 847T743 1049Q964 1049 1182 987L872 -471ZM827 813Q773 827 719 827Q561 827 470 691T379
393Q379 217 506 217Q695 217 774 561L827 813Z" />
<glyph unicode="r" glyph-name="r" horiz-adv-x="819" d="M831 733H829Q770 762 715 762Q612 762 537 677T426 430L336 0H16L156 653Q202 867 219 1024H532Q519 895 506 817H510Q635 1049 799 1049Q825 1049 850 1044Q875 1039 895 1036L831 733Z" />
<glyph unicode="s" glyph-name="s" horiz-adv-x="899" d="M817 768Q690 831 580 831Q444 831 444 735Q444 694 475 668T557 616Q703 546 750 479T797 315Q797 166 675 71T319 -25Q145 -25 4 29L51 270Q206 190 344 190Q492 190 492 287Q492 356 367 414Q238 475
186 542T133 709Q133 855 248 952T578 1049Q723 1049 866 1006L817 768Z" />
<glyph unicode="t" glyph-name="t" horiz-adv-x="768" d="M776 791H537L455 408Q438 329 438 299Q438 221 524 221Q569 221 659 252L610 18Q496 -23 379 -23Q115 -23 115 231Q115 283 139 397L221 791H63L119 1024H270L322 1264L655 1346L588 1024H831L776 791Z" />
<glyph unicode="u" glyph-name="u" horiz-adv-x="1225" d="M1051 340Q1017 184 1004 0H684Q691 72 698 116L709 193H705Q529 -25 324 -25Q66 -25 66 244Q66 306 94 432L219 1024H537L414 446Q395 357 395 324Q395 227 489 227Q582 227 666 323T776 541L879 1024H1198L1051
340Z" />
<glyph unicode="v" glyph-name="v" horiz-adv-x="1092" d="M602 0H250L115 1024H430L471 457Q482 303 477 248H481Q488 266 571 455L846 1024H1194L602 0Z" />
<glyph unicode="w" glyph-name="w" horiz-adv-x="1628" d="M1200 0H872L848 606Q846 653 856 737H852Q832 665 805 606L520 0H186L117 1024H420V358Q420 289 410 242H416L437 302Q454 351 461 365L772 1024H1077L1096 360Q1098 299 1087 240H1094Q1115 310 1135
360L1403 1024H1710L1200 0Z" />
<glyph unicode="x" glyph-name="x" horiz-adv-x="1122" d="M780 514L1008 0H657L565 268Q553 304 537 369H532Q486 291 471 272L268 0H-104L352 518L133 1024H485L569 754Q591 684 596 647H600Q621 685 668 750L868 1024H1227L780 514Z" />
<glyph unicode="y" glyph-name="y" horiz-adv-x="1102" d="M551 -90Q414 -324 290 -402T10 -481Q-83 -481 -160 -453L-106 -209Q-62 -240 8 -240Q135 -240 207 -123L289 6L90 1024H422L494 401Q503 327 496 264H500Q532 354 557 401L870 1024H1202L551 -90Z" />
<glyph unicode="z" glyph-name="z" horiz-adv-x="995" d="M1026 864L420 233H895L846 0H-84L-57 133L588 791H135L184 1024H1061L1026 864Z" />
<glyph unicode="{" glyph-name="braceleft" horiz-adv-x="758" d="M821 1245Q735 1245 690 1205T623 1063L569 815Q516 572 358 524V520Q455 462 455 328Q455 275 442 213L395 -2Q387 -39 387 -70Q387 -184 516 -184L477 -371Q131 -371 131 -96Q131 -54 145 18L197
256Q205 293 205 324Q205 446 82 446L123 633Q277 633 309 799L362 1051Q400 1231 499 1332T860 1434L821 1245Z" />
<glyph unicode="|" glyph-name="bar" horiz-adv-x="668" d="M229 -481V1567H481V-481H229Z" />
<glyph unicode="}" glyph-name="braceright" horiz-adv-x="758" d="M633 434Q481 434 444 268L391 16Q353 -166 252 -267T-106 -369L-66 -180Q18 -180 64 -139T133 4L184 252Q233 493 395 543V547Q299 606 299 739Q299 795 313 854L358 1067Q367 1110 367 1135Q367
1249 238 1249L276 1436Q623 1436 623 1165Q623 1103 608 1047L557 811Q549 774 549 743Q549 618 672 618L633 434Z" />
<glyph unicode="~" glyph-name="asciitilde" horiz-adv-x="1450" d="M1268 772Q1263 602 1179 505T956 408Q856 408 761 461L622 537Q582 559 541 559Q422 559 414 399H207Q215 571 298 667T524 764Q596 764 651 743T816 656Q891 610 942 610Q993 610 1026 653T1063
772H1268Z" />
</font>
</defs>
</svg>
