<?xml version="1.0" standalone="no"?> <!DOCTYPE svg PUBLIC "-//W3C//DTD SVG 1.0//EN" "http://www.w3.org/TR/2001/REC-SVG-20010904/DTD/svg10.dtd" > <svg xmlns="http://www.w3.org/2000/svg" width="100%" height="100%">
<defs >
<font id="segoecit" horiz-adv-x="881" ><font-face
    font-family="Segoe Condensed"
    units-per-em="2048"
    panose-1="2 11 6 6 4 2 0 9 2 3"
    ascent="2181"
    descent="-578"
    alphabetic="0" />
<missing-glyph horiz-adv-x="2048" d="" />
<glyph unicode=" " glyph-name="space" horiz-adv-x="442" d="" />
<glyph unicode="!" glyph-name="exclam" horiz-adv-x="469" d="M262 422H141L336 1434H498L262 422ZM147 -16Q102 -16 73 13T43 88Q43 138 75 168T154 199Q199 199 228 171T258 96Q258 48 226 16T147 -16Z" />
<glyph unicode="&quot;" glyph-name="quotedbl" horiz-adv-x="637" d="M618 995H516L504 1442H633L618 995ZM373 995H272L258 1442H389L373 995Z" />
<glyph unicode="#" glyph-name="numbersign" horiz-adv-x="950" d="M948 934H764L692 610H889L864 512H672L584 119H483L569 512H371L283 119H182L268 512H78L98 610H289L362 934H160L182 1032H381L469 1430H571L483 1032H682L770 1430H872L784 1032H973L948 934ZM463
934L391 610H590L662 934H463Z" />
<glyph unicode="$" glyph-name="dollar" horiz-adv-x="874" d="M862 1225Q765 1298 653 1309L535 754Q760 576 760 385Q760 219 657 113T373 2L330 -209H246L293 2Q154 15 37 98L68 238Q164 146 317 127L432 664Q213 833 213 1042Q213 1204 317 1313T596 1434L635
1616H719L680 1432Q780 1420 891 1362L862 1225ZM571 1309Q469 1300 409 1230T348 1049Q348 913 463 809L571 1309ZM504 608L401 125Q507 132 565 201T623 375Q623 500 504 608Z" />
<glyph unicode="%" glyph-name="percent" horiz-adv-x="1317" d="M354 721Q249 721 191 796T133 987Q133 1175 228 1316T471 1458Q574 1458 630 1388T686 1194Q686 1025 598 873T354 721ZM463 1354Q371 1354 311 1236T250 985Q250 823 365 823Q455 823 513 942T571
1192Q571 1354 463 1354ZM262 0H133L1139 1434H1268L262 0ZM932 -20Q829 -20 770 52T711 246Q711 435 805 577T1047 719Q1150 719 1207 648T1264 453Q1264 285 1175 133T932 -20ZM1038 614Q947 614 887 497T827 244Q827 84 940 84Q1032 84 1089 204T1147 451Q1147
614 1038 614Z" />
<glyph unicode="&amp;" glyph-name="ampersand" horiz-adv-x="1130" d="M1098 760Q1023 465 858 252L993 0H836L756 147Q590 -25 389 -25Q237 -25 148 68T59 309Q59 625 420 799Q346 947 346 1077Q346 1247 443 1352T686 1458Q806 1458 875 1386T944 1200Q944
926 592 760Q674 601 784 401Q800 372 801 369Q914 534 969 760H1098ZM545 858Q811 982 811 1190Q811 1259 775 1302T676 1346Q590 1346 535 1274T479 1087Q479 980 545 858ZM702 254Q700 260 532 577L469 696Q199 566 199 330Q199 224 256 158T412 92Q562 92 702
254Z" />
<glyph unicode="&apos;" glyph-name="quotesingle" horiz-adv-x="391" d="M367 995H266L252 1442H383L367 995Z" />
<glyph unicode="(" glyph-name="parenleft" horiz-adv-x="512" d="M685 1434Q210 873 210 243Q210 -43 310 -295H185Q81 -48 81 253Q81 906 548 1434H685Z" />
<glyph unicode=")" glyph-name="parenright" horiz-adv-x="512" d="M-29 -295H-164Q309 267 309 899Q309 1187 211 1434H336Q438 1188 438 887Q438 233 -29 -295Z" />
<glyph unicode="*" glyph-name="asterisk" horiz-adv-x="760" d="M530 1049L705 799L608 729L471 989L330 729L233 799L408 1049L180 1104L213 1217L430 1135L412 1434H530L510 1133L727 1217L762 1104L530 1049Z" />
<glyph unicode="+" glyph-name="plus" horiz-adv-x="1073" d="M610 545V137H506V545H178V651H506V1057H610V651H938V545H610Z" />
<glyph unicode="," glyph-name="comma" horiz-adv-x="420" d="M41 -248H-80L98 238H250L41 -248Z" />
<glyph unicode="-" glyph-name="hyphen" horiz-adv-x="643" d="M541 526H111L135 643H565L541 526Z" />
<glyph unicode="." glyph-name="period" horiz-adv-x="420" d="M115 -16Q70 -16 40 13T10 88Q10 138 42 168T121 199Q166 199 196 171T227 96Q227 48 195 16T115 -16Z" />
<glyph unicode="/" glyph-name="slash" horiz-adv-x="676" d="M10 -238H-135L766 1434H909L10 -238Z" />
<glyph unicode="0" glyph-name="zero" horiz-adv-x="874" d="M348 -25Q72 -25 72 389Q72 770 226 1114T625 1458Q895 1458 895 1073Q895 682 744 329T348 -25ZM610 1331Q461 1331 340 1008T219 377Q219 102 365 102Q516 102 633 440T750 1071Q750 1331 610 1331Z" />
<glyph unicode="1" glyph-name="one" horiz-adv-x="874" d="M657 0H23L49 121H295L545 1298L266 1202L293 1337L729 1475L440 121H684L657 0Z" />
<glyph unicode="2" glyph-name="two" horiz-adv-x="874" d="M158 131V127H684L659 0H-29L-4 127L444 592Q636 792 688 898T741 1110Q741 1210 691 1267T553 1325Q428 1325 291 1223L322 1374Q454 1454 596 1454Q734 1454 813 1369T893 1130Q893 998 829 869T537
512L158 131Z" />
<glyph unicode="3" glyph-name="three" horiz-adv-x="874" d="M537 735V731Q627 703 679 623T731 434Q731 240 614 110T279 -20Q127 -20 2 57L33 199Q144 109 274 109Q422 109 500 199T578 434Q578 678 328 678H250L276 805H356Q514 805 608 891T702 1126Q702
1225 650 1275T512 1325Q401 1325 297 1262L328 1399Q435 1454 557 1454Q695 1454 774 1374T854 1151Q854 997 769 879T537 735Z" />
<glyph unicode="4" glyph-name="four" horiz-adv-x="874" d="M676 504H821L799 391H653L569 0H428L512 391H0L25 504L715 1434H874L676 504ZM694 1245Q652 1171 631 1143L156 504H535L662 1090Q672 1135 698 1245H694Z" />
<glyph unicode="5" glyph-name="five" horiz-adv-x="874" d="M885 1309H467L371 858Q415 862 444 862Q600 862 682 770T764 516Q764 302 641 141T293 -20Q150 -20 45 41L76 176Q176 104 291 104Q448 104 532 223T616 504Q616 741 379 741Q303 741 209 727L358
1434H913L885 1309Z" />
<glyph unicode="6" glyph-name="six" horiz-adv-x="874" d="M913 1282Q842 1331 745 1331Q576 1331 445 1155T262 686H266Q372 903 559 903Q684 903 751 816T819 565Q819 351 707 166T399 -20Q251 -20 173 92T94 418Q94 815 273 1134T750 1454Q864 1454 944 1409L913
1282ZM510 782Q391 782 317 656T242 377Q242 102 406 102Q525 102 597 244T670 549Q670 782 510 782Z" />
<glyph unicode="7" glyph-name="seven" horiz-adv-x="874" d="M983 1368L260 0H96L807 1311H240L264 1434H995L983 1368Z" />
<glyph unicode="8" glyph-name="eight" horiz-adv-x="874" d="M598 739V735Q784 595 784 391Q784 204 674 92T375 -20Q226 -20 139 75T51 305Q51 617 385 758V762Q248 904 248 1063Q248 1234 351 1344T616 1454Q755 1454 832 1371T909 1151Q909 864 598 739ZM510
811Q768 905 768 1141Q768 1234 724 1285T606 1337Q516 1337 453 1265T389 1063Q389 917 510 811ZM477 682Q343 635 269 541T195 324Q195 221 249 161T389 100Q510 100 576 179T643 385Q643 567 477 682Z" />
<glyph unicode="9" glyph-name="nine" horiz-adv-x="874" d="M31 25L61 158Q136 102 227 102Q410 102 535 268T715 741H711Q603 535 428 535Q301 535 228 627T154 879Q154 1092 269 1273T578 1454Q879 1454 879 1034Q879 596 704 288T225 -20Q119 -20 31 25ZM569
1331Q454 1331 379 1200T303 893Q303 657 471 657Q591 657 661 780T731 1065Q731 1331 569 1331Z" />
<glyph unicode=":" glyph-name="colon" horiz-adv-x="420" d="M295 825Q250 825 220 855T190 932Q190 978 223 1010T301 1042Q346 1042 376 1014T406 940Q406 893 374 859T295 825ZM113 -16Q66 -16 37 13T8 88Q8 138 39 168T119 199Q164 199 193 171T223 96Q223
48 191 16T113 -16Z" />
<glyph unicode=";" glyph-name="semicolon" horiz-adv-x="420" d="M293 825Q248 825 218 855T188 932Q188 978 221 1010T299 1042Q344 1042 373 1014T403 940Q403 891 372 858T293 825ZM39 -248H-82L96 238H250L39 -248Z" />
<glyph unicode="&lt;" glyph-name="less" horiz-adv-x="1073" d="M178 565V614L864 1018V895L340 594V590L864 293V168L178 565Z" />
<glyph unicode="=" glyph-name="equal" horiz-adv-x="1073" d="M178 754V858H938V754H178ZM178 338V440H938V338H178Z" />
<glyph unicode="&gt;" glyph-name="greater" horiz-adv-x="1073" d="M250 168V293L776 590V594L250 895V1018L936 616V565L250 168Z" />
<glyph unicode="?" glyph-name="question" horiz-adv-x="719" d="M350 418H227Q265 671 432 807Q621 964 621 1145Q621 1229 575 1280T446 1331Q341 1331 244 1270L276 1415Q380 1462 489 1462Q620 1462 696 1383T772 1176Q772 1052 720 948T528 731Q453 672 413
605T350 418ZM229 -16Q184 -16 155 13T125 88Q125 138 156 168T236 199Q281 199 310 171T340 96Q340 48 308 16T229 -16Z" />
<glyph unicode="@" glyph-name="at" horiz-adv-x="1542" d="M911 393H907Q819 184 666 184Q579 184 524 257T469 463Q469 708 579 894T860 1081Q985 1081 1016 944H1018L1049 1065H1159L1055 637Q1018 485 1018 399Q1018 299 1094 299Q1194 299 1274 461T1354
836Q1354 1086 1242 1219T915 1352Q641 1352 458 1104T274 494Q274 222 404 68T764 -86Q959 -86 1133 20L1106 -104Q947 -188 745 -188Q470 -188 314 -3T158 498Q158 893 375 1174T924 1456Q1188 1456 1327 1294T1466 842Q1466 590 1352 387T1065 184Q991 184 949
232T909 350V374Q909 385 911 393ZM860 979Q752 979 672 821T592 473Q592 295 700 295Q823 295 896 507T969 840Q969 979 860 979Z" />
<glyph unicode="A" glyph-name="A" horiz-adv-x="1071" d="M770 0L741 414H299L94 0H-74L645 1434H819L926 0H770ZM696 1135Q692 1189 698 1251H694Q665 1177 647 1141L358 543H737L696 1135Z" />
<glyph unicode="B" glyph-name="B" horiz-adv-x="969" d="M692 743V739Q877 691 877 457Q877 268 759 134T424 0H51L356 1434H670Q969 1434 969 1133Q969 995 893 882T692 743ZM481 1298L377 809H537Q670 809 740 896T811 1102Q811 1298 629 1298H481ZM348 674L233
135H426Q568 135 642 224T717 446Q717 674 512 674H348Z" />
<glyph unicode="C" glyph-name="C" horiz-adv-x="1028" d="M1077 1223Q965 1321 809 1321Q575 1321 428 1092T281 549Q281 338 364 226T602 113Q748 113 889 211L854 49Q725 -25 563 -25Q354 -25 238 119T121 535Q121 924 311 1191T815 1458Q980 1458 1114 1378L1077
1223Z" />
<glyph unicode="D" glyph-name="D" horiz-adv-x="1169" d="M51 0L356 1434H666Q895 1434 1017 1299T1139 907Q1139 708 1056 484T807 130T408 0H51ZM481 1298L236 135H410Q684 135 831 369T979 899Q979 1298 633 1298H481Z" />
<glyph unicode="E" glyph-name="E" horiz-adv-x="879" d="M907 1298H481L373 788H770L741 653H346L236 135H688L659 0H51L356 1434H936L907 1298Z" />
<glyph unicode="F" glyph-name="F" horiz-adv-x="831" d="M909 1298H483L371 770H764L737 633H342L207 0H51L356 1434H938L909 1298Z" />
<glyph unicode="G" glyph-name="G" horiz-adv-x="1176" d="M1116 1217Q977 1321 821 1321Q570 1321 426 1087T281 549Q281 343 364 228T608 113Q710 113 797 162L895 610H633L662 741H1077L936 80Q765 -25 586 -25Q364 -25 242 126T119 541Q119 905 309 1181T829
1458Q1005 1458 1153 1370L1116 1217Z" />
<glyph unicode="H" glyph-name="H" horiz-adv-x="1174" d="M901 0H745L887 662H348L207 0H53L358 1434H512L379 803H918L1051 1434H1206L901 0Z" />
<glyph unicode="I" glyph-name="I" horiz-adv-x="477" d="M205 0H51L356 1434H510L205 0Z" />
<glyph unicode="J" glyph-name="J" horiz-adv-x="631" d="M463 485Q405 209 305 92T29 -25Q-40 -25 -98 6L-68 147Q-21 109 37 109Q139 109 201 192T309 494L510 1434H664L463 485Z" />
<glyph unicode="K" glyph-name="K" horiz-adv-x="961" d="M508 723L840 0H662L379 659Q373 674 370 687L362 715H358L205 0H51L356 1434H510L365 754H369Q377 765 388 782Q398 798 406 807L938 1434H1128L508 723Z" />
<glyph unicode="L" glyph-name="L" horiz-adv-x="764" d="M643 0H51L356 1434H512L236 135H672L643 0Z" />
<glyph unicode="M" glyph-name="M" horiz-adv-x="1460" d="M1190 0H1053L1257 961Q1265 1000 1321 1233H1315Q1260 1103 1233 1055L668 0H565L451 1036Q444 1100 444 1233H438Q424 1124 393 973L186 0H53L356 1434H539L657 373Q668 273 662 217H666Q697 305 737
381L1309 1434H1493L1190 0Z" />
<glyph unicode="N" glyph-name="N" horiz-adv-x="1214" d="M940 0H815L465 1044Q455 1074 438 1176H434Q425 1108 403 1001L193 0H53L356 1434H492L838 408Q852 367 862 276H866Q878 372 889 428L1104 1434H1247L940 0Z" />
<glyph unicode="O" glyph-name="O" horiz-adv-x="1198" d="M545 -25Q342 -25 231 115T119 514Q119 906 293 1182T754 1458Q958 1458 1063 1320T1169 932Q1169 554 1003 265T545 -25ZM743 1321Q541 1321 411 1068T281 516Q281 322 352 218T557 113Q764 113 887
372T1010 928Q1010 1321 743 1321Z" />
<glyph unicode="P" glyph-name="P" horiz-adv-x="954" d="M322 541L205 0H51L356 1434H649Q816 1434 904 1340T993 1083Q993 846 868 694T510 541H322ZM483 1298L348 678H516Q667 678 749 786T831 1063Q831 1298 614 1298H483Z" />
<glyph unicode="Q" glyph-name="Q" horiz-adv-x="1198" d="M674 -6L905 -365H717L524 -23Q332 -17 226 122T119 514Q119 906 293 1182T754 1458Q958 1458 1063 1320T1169 932Q1169 612 1039 335T674 -6ZM743 1321Q542 1321 412 1069T281 520Q281 320 353 217T557
113Q761 113 885 371T1010 924Q1010 1321 743 1321Z" />
<glyph unicode="R" glyph-name="R" horiz-adv-x="963" d="M627 655V651Q718 603 741 438L807 0H647L590 406Q575 510 539 561T426 612H336L205 0H51L356 1434H653Q991 1434 991 1110Q991 930 891 804T627 655ZM483 1300L365 748H522Q674 748 752 847T831 1087Q831
1300 623 1300H483Z" />
<glyph unicode="S" glyph-name="S" horiz-adv-x="827" d="M854 1241Q745 1321 625 1321Q514 1321 445 1244T375 1053Q375 987 399 928T526 772Q729 586 729 391Q729 223 622 99T313 -25Q149 -25 20 70L53 223Q189 113 317 113Q437 113 503 187T569 369Q569 456
536 516T416 657Q292 772 254 857T215 1030Q215 1209 329 1333T627 1458Q772 1458 885 1391L854 1241Z" />
<glyph unicode="T" glyph-name="T" horiz-adv-x="874" d="M1001 1298H680L406 0H252L528 1298H205L236 1434H1032L1001 1298Z" />
<glyph unicode="U" glyph-name="U" horiz-adv-x="1155" d="M1010 561Q938 218 820 97T508 -25Q332 -25 238 78T143 358Q143 471 184 647L350 1434H504L338 637Q297 440 297 369Q297 113 522 113Q643 113 720 197T846 516L1040 1434H1194L1010 561Z" />
<glyph unicode="V" glyph-name="V" horiz-adv-x="987" d="M453 0H299L207 1434H367L422 360Q423 340 423 325V284Q423 247 418 211H422Q446 275 467 326Q476 347 483 365L1001 1434H1174L453 0Z" />
<glyph unicode="W" glyph-name="W" horiz-adv-x="1542" d="M1061 0H901L895 1014Q895 1053 903 1167H901Q869 1064 846 1016L403 0H242L223 1434H381L379 369Q379 340 376 294L371 225H373L385 257Q397 293 428 371L897 1434H1032L1030 367Q1030 265 1024 227H1028Q1054
301 1081 369L1540 1434H1704L1061 0Z" />
<glyph unicode="X" glyph-name="X" horiz-adv-x="946" d="M600 713L801 0H633L506 506Q500 531 497 562Q493 594 489 618H487Q451 537 430 508L84 0H-96L432 741L240 1434H406L524 950Q536 899 543 842H545Q575 910 602 948L934 1434H1112L600 713Z" />
<glyph unicode="Y" glyph-name="Y" horiz-adv-x="901" d="M528 543L414 0H256L373 543L217 1434H377L473 815Q475 799 478 756Q479 724 481 698H487Q516 767 545 813L909 1434H1079L528 543Z" />
<glyph unicode="Z" glyph-name="Z" horiz-adv-x="950" d="M1083 1356L182 135H815L786 0H-51L-33 82L860 1298H274L301 1434H1098L1083 1356Z" />
<glyph unicode="[" glyph-name="bracketleft" horiz-adv-x="512" d="M637 1325H461L131 -217H307L285 -326H-16L358 1434H659L637 1325Z" />
<glyph unicode="\" glyph-name="backslash" horiz-adv-x="655" d="M403 -240L209 1434H338L528 -240H403Z" />
<glyph unicode="]" glyph-name="bracketright" horiz-adv-x="512" d="M152 -326H-147L-125 -217H49L379 1325H203L227 1434H526L152 -326Z" />
<glyph unicode="^" glyph-name="asciicircum" horiz-adv-x="1073" d="M889 748L606 1284H602L326 748H203L580 1440H629L1012 748H889Z" />
<glyph unicode="_" glyph-name="underscore" horiz-adv-x="819" d="M645 -295H-174L-150 -178H670L645 -295Z" />
<glyph unicode="`" glyph-name="grave" horiz-adv-x="571" d="M481 1182L303 1507H436L592 1182H481Z" />
<glyph unicode="a" glyph-name="a" horiz-adv-x="942" d="M776 362Q735 169 735 0H590Q590 91 618 256H614Q475 -18 287 -18Q180 -18 120 63T59 307Q59 598 223 820T643 1042Q779 1042 913 1008L776 362ZM748 907Q697 922 623 922Q451 922 332 739T213 326Q213
111 342 111Q457 111 549 261T676 580L748 907Z" />
<glyph unicode="b" glyph-name="b" horiz-adv-x="940" d="M35 43L348 1516H494L387 1010Q362 893 332 778H336Q472 1042 670 1042Q774 1042 832 962T891 729Q891 460 731 221T309 -18Q140 -18 35 43ZM199 129Q249 104 332 104Q503 104 621 297T739 709Q739 915
608 915Q504 915 409 786T272 471L199 129Z" />
<glyph unicode="c" glyph-name="c" horiz-adv-x="741" d="M709 850Q651 915 555 915Q413 915 313 750T213 358Q213 240 259 175T385 109Q477 109 588 188L559 45Q453 -23 340 -23Q206 -23 134 75T61 346Q61 640 204 842T555 1044Q666 1044 741 987L709 850Z" />
<glyph unicode="d" glyph-name="d" horiz-adv-x="940" d="M778 365Q745 207 735 0H590Q590 88 621 258H616Q474 -18 287 -18Q182 -18 121 63T59 307Q59 599 225 820T635 1042Q696 1042 770 1020L879 1516H1022L778 365ZM745 899Q684 922 625 922Q452 922 333 739T213
328Q213 111 342 111Q453 111 544 254T684 608L745 899Z" />
<glyph unicode="e" glyph-name="e" horiz-adv-x="813" d="M215 440Q209 390 209 348Q209 102 403 102Q508 102 641 186L614 51Q500 -18 371 -18Q221 -18 141 76T61 348Q61 634 205 838T565 1042Q678 1042 743 983T809 815Q809 648 659 550T215 440ZM231 555Q439
564 551 628T664 803Q664 922 543 922Q438 922 353 823T231 555Z" />
<glyph unicode="f" glyph-name="f" horiz-adv-x="512" d="M729 1393Q696 1413 639 1413Q510 1413 471 1239L424 1024H616L588 901H397L133 -340H-12L250 901H123L150 1024H279L326 1249Q386 1538 645 1538Q704 1538 758 1520L729 1393Z" />
<glyph unicode="g" glyph-name="g" horiz-adv-x="940" d="M702 0Q645 -272 522 -376T199 -481Q80 -481 -33 -430L-8 -291Q101 -352 211 -352Q482 -352 555 -20L614 256H610Q535 111 461 47T285 -18Q178 -18 119 66T59 305Q59 602 225 822T645 1042Q775 1042 913
1008L702 0ZM748 907Q677 922 623 922Q451 922 332 739T213 326Q213 111 344 111Q447 111 539 245T676 582L748 907Z" />
<glyph unicode="h" glyph-name="h" horiz-adv-x="942" d="M713 0H567L707 649Q727 742 727 797Q727 915 612 915Q499 915 410 811T299 596L172 0H27L350 1516H496L352 840H356Q475 1042 672 1042Q768 1042 822 987T877 834Q877 758 854 662L713 0Z" />
<glyph unicode="i" glyph-name="i" horiz-adv-x="420" d="M379 1245Q338 1245 310 1271T281 1343Q281 1388 310 1418T383 1448Q425 1448 454 1423T483 1352Q483 1305 453 1275T379 1245ZM172 0H27L244 1024H389L172 0Z" />
<glyph unicode="j" glyph-name="j" horiz-adv-x="420" d="M381 1245Q340 1245 312 1271T283 1343Q283 1390 314 1419T387 1448Q429 1448 457 1423T485 1352Q485 1305 455 1275T381 1245ZM168 -23Q114 -279 27 -380T-197 -481Q-266 -481 -324 -449L-297 -317Q-251
-352 -195 -352Q-123 -352 -75 -294T12 -59L246 1024H389L168 -23Z" />
<glyph unicode="k" glyph-name="k" horiz-adv-x="782" d="M432 526L682 0H518L287 522H283L170 0H27L350 1516H496L289 553H293L717 1024H893L432 526Z" />
<glyph unicode="l" glyph-name="l" horiz-adv-x="420" d="M172 0H27L350 1516H496L172 0Z" />
<glyph unicode="m" glyph-name="m" horiz-adv-x="1409" d="M1180 0H1036L1174 653Q1196 757 1196 801Q1196 915 1098 915Q993 915 911 820T803 592L678 0H530L670 653Q692 756 692 803Q692 915 592 915Q493 915 410 822T299 596L172 0H27L184 739Q212 871 229
1024H375Q352 849 348 836H352Q466 1042 662 1042Q746 1042 794 988T840 840Q969 1042 1165 1042Q1252 1042 1301 989T1350 850Q1350 795 1323 664L1180 0Z" />
<glyph unicode="n" glyph-name="n" horiz-adv-x="934" d="M713 0H567L707 649Q727 742 727 797Q727 915 612 915Q499 915 410 811T299 596L172 0H27L184 739Q216 889 229 1024H377Q366 944 348 838H352Q475 1042 672 1042Q768 1042 822 987T877 834Q877 758 854
662L713 0Z" />
<glyph unicode="o" glyph-name="o" horiz-adv-x="915" d="M367 -18Q222 -18 143 80T63 350Q63 628 196 835T551 1042Q699 1042 775 945T852 674Q852 426 724 204T367 -18ZM535 915Q398 915 307 740T215 348Q215 109 383 109Q525 109 612 295T700 670Q700 915 535 915Z" />
<glyph unicode="p" glyph-name="p" horiz-adv-x="940" d="M174 4L72 -471H-74L168 659Q205 832 215 1024H360Q354 897 328 766H332Q466 1042 668 1042Q893 1042 893 731Q893 457 732 220T319 -18Q256 -18 174 4ZM201 127Q266 102 330 102Q504 102 621 295T739
702Q739 913 614 913Q505 913 410 782T270 451L201 127Z" />
<glyph unicode="q" glyph-name="q" horiz-adv-x="940" d="M600 -471H455L540 -75Q577 106 614 250H610Q470 -18 287 -18Q178 -18 119 66T59 307Q59 588 220 815T643 1042Q778 1042 911 995L600 -471ZM745 901Q694 922 623 922Q449 922 331 737T213 328Q213 111
344 111Q453 111 546 255T674 567L745 901Z" />
<glyph unicode="r" glyph-name="r" horiz-adv-x="614" d="M664 883Q634 897 580 897Q364 897 276 489L172 0H27L184 739Q221 913 227 1024H375Q357 888 346 827H350Q455 1040 621 1040Q667 1040 694 1028L664 883Z" />
<glyph unicode="s" glyph-name="s" horiz-adv-x="666" d="M633 868Q549 920 461 920Q375 920 328 874T281 752Q281 703 301 661T397 555Q489 479 522 417T555 283Q555 148 462 65T213 -18Q93 -18 -10 39L16 170Q109 102 217 102Q403 102 403 270Q403 366 285 467Q187
551 158 611T129 739Q129 867 219 954T461 1042Q566 1042 657 999L633 868Z" />
<glyph unicode="t" glyph-name="t" horiz-adv-x="537" d="M571 901H377L252 309Q238 243 238 193Q238 109 315 109Q351 109 428 141L401 14Q315 -18 258 -18Q86 -18 86 164Q86 222 104 305L231 901H94L121 1024H258L313 1280Q335 1287 390 1302Q445 1316 467 1323L403
1024H600L571 901Z" />
<glyph unicode="u" glyph-name="u" horiz-adv-x="934" d="M750 285Q718 135 705 0H557Q570 96 586 186H582Q530 91 442 37T260 -18Q167 -18 112 40T57 180Q57 263 80 362L221 1024H367L227 375Q207 282 207 223Q207 174 236 142T319 109Q431 109 520 210T635 428L760
1024H907L750 285Z" />
<glyph unicode="v" glyph-name="v" horiz-adv-x="788" d="M354 0H193L129 1024H274L307 266Q310 194 303 135H305Q328 200 356 266L721 1024H881L354 0Z" />
<glyph unicode="w" glyph-name="w" horiz-adv-x="1204" d="M815 0H664L657 702Q657 732 668 819H664Q641 745 621 705L307 0H154L133 1024H274V279Q274 245 264 168H270Q273 180 309 279L645 1024H776L778 276Q778 223 768 168H774Q776 178 781 193Q786 207 791
223Q797 241 811 276L1130 1024H1280L815 0Z" />
<glyph unicode="x" glyph-name="x" horiz-adv-x="762" d="M467 512L637 0H487L399 317L373 422H369Q347 377 311 326L82 0H-84L315 526L143 1024H295L385 721Q397 680 410 621H414Q419 631 427 644Q435 656 443 670Q456 692 473 717L688 1024H854L467 512Z" />
<glyph unicode="y" glyph-name="y" horiz-adv-x="784" d="M264 -174Q169 -361 96 -421T-82 -481Q-141 -481 -184 -459L-156 -332Q-126 -352 -80 -352Q-34 -352 6 -326T100 -201L209 12L125 1024H274L315 287Q319 218 315 180H317Q325 199 336 228Q346 257 360
283L719 1024H870L264 -174Z" />
<glyph unicode="z" glyph-name="z" horiz-adv-x="778" d="M821 936L164 123H641L614 0H-59L-43 82L623 901H168L195 1024H842L821 936Z" />
<glyph unicode="{" glyph-name="braceleft" horiz-adv-x="512" d="M629 1329Q570 1329 528 1286T455 1102L395 823Q346 594 219 545L217 541Q289 494 289 379Q289 327 272 242L219 -2Q203 -76 203 -121Q203 -231 295 -238L272 -336Q78 -332 78 -127Q78 -87 94
-4L152 264Q166 329 166 369Q166 488 76 502L98 604Q225 618 268 817L330 1100Q370 1283 444 1357T649 1432L629 1329Z" />
<glyph unicode="|" glyph-name="bar" horiz-adv-x="393" d="M147 -481V1567H268V-481H147Z" />
<glyph unicode="}" glyph-name="braceright" horiz-adv-x="512" d="M414 492Q283 478 244 281L182 -4Q143 -185 68 -260T-137 -336L-117 -233Q-58 -233 -16 -190T57 -6L117 272Q168 507 293 551L295 555Q223 607 223 717Q223 782 240 854L293 1098Q309 1172 309
1219Q309 1329 217 1333L238 1434Q432 1426 432 1225Q432 1170 418 1102L360 831Q344 756 344 727Q344 607 436 594L414 492Z" />
<glyph unicode="~" glyph-name="asciitilde" horiz-adv-x="1073" d="M938 733Q933 602 875 529T719 455Q636 455 535 551Q453 633 399 633Q290 633 281 459H178Q183 592 241 664T397 737Q448 737 491 711T609 614Q669 557 719 557Q821 557 834 733H938Z" />
</font>
</defs>
</svg>
