<?xml version="1.0" standalone="no"?> <!DOCTYPE svg PUBLIC "-//W3C//DTD SVG 1.0//EN" "http://www.w3.org/TR/2001/REC-SVG-20010904/DTD/svg10.dtd" > <svg xmlns="http://www.w3.org/2000/svg" width="100%" height="100%">
<defs >
<font id="segoecbd" horiz-adv-x="919" ><font-face
    font-family="Segoe Condensed"
    units-per-em="2048"
    panose-1="2 11 8 6 4 2 0 2 2 3"
    ascent="2181"
    descent="-578"
    alphabetic="0" />
<missing-glyph horiz-adv-x="2048" d="" />
<glyph unicode=" " glyph-name="space" horiz-adv-x="469" d="" />
<glyph unicode="!" glyph-name="exclam" horiz-adv-x="571" d="M389 461H176L137 1434H428L389 461ZM287 -18Q218 -18 173 27T127 143Q127 217 171 261T287 305Q361 305 403 260T446 143Q446 75 403 29T287 -18Z" />
<glyph unicode="&quot;" glyph-name="quotedbl" horiz-adv-x="821" d="M659 1014H496L467 1460H688L659 1014ZM326 1016H160L133 1460H354L326 1016Z" />
<glyph unicode="#" glyph-name="numbersign" horiz-adv-x="952" d="M881 903H754L705 633H848L817 479H678L614 113H457L518 479H338L274 113H115L176 479H43L68 633H203L250 903H106L127 1057H274L334 1423H498L436 1057H614L674 1423H838L776 1057H907L881 903ZM412
903L362 633H541L592 903H412Z" />
<glyph unicode="$" glyph-name="dollar" horiz-adv-x="918" d="M520 6V-209H406V2Q263 6 106 92V332Q245 213 406 199V618Q82 744 82 1038Q82 1193 169 1300T406 1427V1620H520V1432Q677 1425 772 1370V1141Q638 1228 520 1235V797Q848 655 848 383Q848 239 756
133T520 6ZM406 1225Q354 1213 323 1163T291 1053Q291 915 406 850V1225ZM520 561V203Q573 215 606 263T639 377Q639 490 520 561Z" />
<glyph unicode="%" glyph-name="percent" horiz-adv-x="1419" d="M354 709Q227 709 152 808T76 1071Q76 1250 156 1353T369 1456Q497 1456 572 1359T647 1092Q647 920 566 815T354 709ZM367 1294Q316 1294 288 1234T260 1077Q260 872 362 872Q463 872 463 1083Q463
1294 367 1294ZM455 -6H254L963 1434H1163L455 -6ZM1051 -20Q924 -20 848 79T772 340Q772 520 853 622T1065 725Q1195 725 1270 628T1346 360Q1346 189 1266 85T1051 -20ZM1063 563Q1011 563 985 501T958 346Q958 141 1059 141Q1159 141 1159 354Q1159 563 1063
563Z" />
<glyph unicode="&amp;" glyph-name="ampersand" horiz-adv-x="1157" d="M881 0L797 115Q663 -25 465 -25Q280 -25 172 84T63 373Q63 602 326 782Q207 952 207 1106Q207 1260 294 1359T530 1458Q674 1458 758 1371T842 1149Q842 924 600 764L817 467Q868 595 868
774H1073Q1073 500 940 293L1151 0H881ZM504 907Q635 997 635 1139Q635 1286 526 1286Q477 1286 447 1242T416 1135Q416 1025 504 907ZM430 631Q303 535 303 383Q303 287 353 224T487 160Q602 160 692 264L430 631Z" />
<glyph unicode="&apos;" glyph-name="quotesingle" horiz-adv-x="487" d="M326 1016H160L133 1460H354L326 1016Z" />
<glyph unicode="(" glyph-name="parenleft" horiz-adv-x="629" d="M610 1434Q377 1037 377 553Q377 80 612 -313H399Q145 41 145 553Q145 1051 399 1434H610Z" />
<glyph unicode=")" glyph-name="parenright" horiz-adv-x="629" d="M231 -313H18Q252 74 252 553Q252 1037 18 1434H231Q485 1045 485 553Q485 40 231 -313Z" />
<glyph unicode="*" glyph-name="asterisk" horiz-adv-x="758" d="M467 1036L662 848L518 721L377 946L233 721L90 846L283 1034L61 1071L115 1255L315 1167L283 1434H473L440 1167L643 1253L696 1071L467 1036Z" />
<glyph unicode="+" glyph-name="plus" horiz-adv-x="1067" d="M614 516V135H453V516H123V680H453V1061H614V680H942V516H614Z" />
<glyph unicode="," glyph-name="comma" horiz-adv-x="487" d="M248 -242H39L127 258H383L248 -242Z" />
<glyph unicode="-" glyph-name="hyphen" horiz-adv-x="643" d="M111 467V651H535V467H111Z" />
<glyph unicode="." glyph-name="period" horiz-adv-x="487" d="M244 -18Q175 -18 130 27T84 143Q84 217 128 261T244 305Q318 305 360 260T403 143Q403 75 360 29T244 -18Z" />
<glyph unicode="/" glyph-name="slash" horiz-adv-x="717" d="M188 -238H-43L504 1434H737L188 -238Z" />
<glyph unicode="0" glyph-name="zero" horiz-adv-x="918" d="M455 -25Q55 -25 55 696Q55 1458 477 1458Q864 1458 864 727Q864 -25 455 -25ZM465 1243Q391 1243 359 1117T326 705Q326 431 357 311T459 190Q534 190 565 320T596 723Q596 984 571 1113T465 1243Z" />
<glyph unicode="1" glyph-name="one" horiz-adv-x="918" d="M129 0V207H352V1198L117 1133V1346L612 1464V207H831V0H129Z" />
<glyph unicode="2" glyph-name="two" horiz-adv-x="918" d="M84 0V190L356 594Q553 887 553 1053Q553 1142 509 1190T393 1239Q268 1239 131 1100V1341Q269 1456 457 1456Q629 1456 726 1355T823 1081Q823 842 555 483L356 223V217H823V0H84Z" />
<glyph unicode="3" glyph-name="three" horiz-adv-x="918" d="M109 45V291Q214 190 336 190Q434 190 492 249T551 406Q551 512 486 570T315 629H221V844H281Q390 844 450 900T510 1049Q510 1134 466 1186T336 1239Q238 1239 143 1147V1382Q250 1456 408 1456Q585
1456 682 1356T780 1085Q780 970 724 879T565 748V743Q821 670 821 393Q821 210 703 94T381 -23Q226 -23 109 45Z" />
<glyph unicode="4" glyph-name="four" horiz-adv-x="918" d="M739 334V0H498V334H29V506L494 1434H739V522H870V334H739ZM494 1077Q472 1009 457 977L225 522H498V1013Q498 1049 500 1077H494Z" />
<glyph unicode="5" glyph-name="five" horiz-adv-x="918" d="M121 35V279Q225 190 346 190Q445 190 502 257T559 428Q559 543 497 606T317 670Q250 670 150 651V1434H778V1217H377V879L408 883Q573 907 701 796T829 451Q829 238 711 108T385 -23Q224 -23 121 35Z" />
<glyph unicode="6" glyph-name="six" horiz-adv-x="918" d="M795 1419V1184Q712 1243 612 1243Q483 1243 409 1122T326 776H330Q414 928 571 928Q705 928 791 810T877 485Q877 282 767 130T473 -23Q70 -23 70 641Q70 1019 205 1237T594 1456Q715 1456 795 1419ZM481
715Q421 715 384 648T346 467Q346 347 384 269T485 190Q544 190 578 264T612 461Q612 579 577 647T481 715Z" />
<glyph unicode="7" glyph-name="seven" horiz-adv-x="918" d="M467 0H188L582 1223H72V1434H823V1266L467 0Z" />
<glyph unicode="8" glyph-name="eight" horiz-adv-x="918" d="M283 743V748Q94 864 94 1073Q94 1239 197 1347T463 1456Q635 1456 736 1356T838 1092Q838 859 616 750V745Q860 638 860 385Q860 195 753 86T453 -23Q277 -23 169 82T61 367Q61 610 283 743ZM463
848Q596 922 596 1075Q596 1163 561 1211T467 1260Q409 1260 372 1209T334 1073Q334 922 463 848ZM455 649Q303 557 303 383Q303 293 347 238T463 182Q539 182 580 238T621 389Q621 563 455 649Z" />
<glyph unicode="9" glyph-name="nine" horiz-adv-x="918" d="M121 29V260Q213 190 328 190Q593 190 600 653H596Q520 506 362 506Q227 506 138 619T49 934Q49 1163 158 1309T451 1456Q645 1456 750 1289T856 784Q856 386 729 182T360 -23Q232 -23 121 29ZM442
1243Q385 1243 349 1175T313 981Q313 856 350 788T446 719Q505 719 542 789T580 967Q580 1086 542 1164T442 1243Z" />
<glyph unicode=":" glyph-name="colon" horiz-adv-x="487" d="M244 721Q174 721 129 767T84 883Q84 956 129 1000T244 1044Q316 1044 359 999T403 883Q403 814 361 768T244 721ZM244 -18Q175 -18 130 27T84 143Q84 217 128 261T244 305Q318 305 360 260T403 143Q403
75 360 29T244 -18Z" />
<glyph unicode=";" glyph-name="semicolon" horiz-adv-x="487" d="M244 721Q174 721 129 767T84 883Q84 956 129 1000T244 1044Q316 1044 361 998T406 883Q406 812 362 767T244 721ZM244 -242H35L123 258H379L244 -242Z" />
<glyph unicode="&lt;" glyph-name="less" horiz-adv-x="1067" d="M133 535V651L885 1042V854L356 596V592L887 348V156L133 535Z" />
<glyph unicode="=" glyph-name="equal" horiz-adv-x="1067" d="M123 723V889H942V723H123ZM123 307V471H942V307H123Z" />
<glyph unicode="&gt;" glyph-name="greater" horiz-adv-x="1067" d="M182 158V348L713 592V596L182 854V1044L936 651V535L182 158Z" />
<glyph unicode="?" glyph-name="question" horiz-adv-x="680" d="M403 428H188V530Q188 680 293 823Q346 894 373 952T401 1090Q401 1157 361 1199T258 1241Q149 1241 37 1126V1364Q159 1458 313 1458Q487 1458 579 1364T672 1118Q672 917 502 723Q451 664 427
615T403 492V428ZM305 -18Q236 -18 191 27T145 143Q145 217 189 261T305 305Q379 305 423 259T467 143Q467 74 424 28T305 -18Z" />
<glyph unicode="@" glyph-name="at" horiz-adv-x="1509" d="M858 356H854Q791 182 662 182Q556 182 490 276T424 549Q424 789 517 932T725 1075Q836 1075 872 961H877L883 1055H1071Q1036 550 1036 457Q1036 336 1094 336Q1153 336 1193 454T1233 764Q1233 1015
1118 1156T780 1298Q553 1298 415 1101T276 584Q276 307 412 136T770 -35Q936 -35 1085 53V-113Q937 -188 743 -188Q458 -188 276 21T94 592Q94 976 283 1215T778 1454Q1070 1454 1243 1267T1417 764Q1417 500 1322 341T1065 182Q988 182 932 228T858 356ZM770
932Q700 932 656 816T612 553Q612 340 713 340Q780 340 822 465T864 756Q864 837 839 884T770 932Z" />
<glyph unicode="A" glyph-name="A" horiz-adv-x="1126" d="M819 0L739 352H381L299 0H10L408 1434H729L1110 0H819ZM592 1024Q582 1071 570 1176Q567 1197 565 1204H559Q541 1077 528 1032L422 569H692L592 1024Z" />
<glyph unicode="B" glyph-name="B" horiz-adv-x="1049" d="M129 0V1434H551Q952 1434 952 1092Q952 973 889 888T725 772V768Q845 750 919 656T993 432Q993 232 886 116T578 0H129ZM395 1198V852H506Q580 852 625 903T670 1032Q670 1198 489 1198H395ZM395 616V238H530Q617
238 664 290T711 432Q711 518 662 567T535 616H395Z" />
<glyph unicode="C" glyph-name="C" horiz-adv-x="975" d="M903 43Q783 -25 629 -25Q372 -25 223 165T74 684Q74 1058 228 1258T662 1458Q793 1458 903 1409V1141Q801 1217 678 1217Q530 1217 445 1081T360 709Q360 477 441 347T666 217Q790 217 903 299V43Z" />
<glyph unicode="D" glyph-name="D" horiz-adv-x="1171" d="M121 0V1434H502Q1100 1434 1100 735Q1100 393 944 197T506 0H121ZM397 1196V238H508Q652 238 732 369T813 731Q813 949 735 1072T506 1196H397Z" />
<glyph unicode="E" glyph-name="E" horiz-adv-x="858" d="M121 0V1434H780V1196H397V838H756V600H397V238H805V0H121Z" />
<glyph unicode="F" glyph-name="F" horiz-adv-x="840" d="M397 1196V799H752V563H397V0H121V1434H782V1196H397Z" />
<glyph unicode="G" glyph-name="G" horiz-adv-x="1118" d="M1022 96Q886 -25 651 -25Q391 -25 233 164T74 692Q74 1053 240 1255T686 1458Q864 1458 973 1399V1128Q857 1217 705 1217Q548 1217 454 1079T360 700Q360 475 444 346T659 217Q712 217 752 242V565H561V803H1022V96Z"
/>
<glyph unicode="H" glyph-name="H" horiz-adv-x="1163" d="M766 0V596H397V0H121V1434H397V854H766V1434H1042V0H766Z" />
<glyph unicode="I" glyph-name="I" horiz-adv-x="518" d="M121 0V1434H397V0H121Z" />
<glyph unicode="J" glyph-name="J" horiz-adv-x="735" d="M633 561Q633 251 525 113T199 -25Q122 -25 27 14V276Q103 233 174 233Q270 233 313 308T356 557V1434H633V561Z" />
<glyph unicode="K" glyph-name="K" horiz-adv-x="1038" d="M743 0L428 647Q416 673 412 688Q406 709 401 721H397V0H121V1434H397V748H401Q415 790 428 813L723 1434H1030L674 748L1063 0H743Z" />
<glyph unicode="L" glyph-name="L" horiz-adv-x="836" d="M121 0V1434H397V238H801V0H121Z" />
<glyph unicode="M" glyph-name="M" horiz-adv-x="1464" d="M1106 0V834Q1106 942 1116 1159H1110Q1097 1068 1067 918L858 0H606L387 905L348 1159H340Q350 957 350 760V0H121V1434H508L709 561Q739 429 745 340H750L757 393Q770 514 782 569L971 1434H1343V0H1106Z" />
<glyph unicode="N" glyph-name="N" horiz-adv-x="1163" d="M735 0L416 819Q396 871 364 982Q356 1010 350 1028H346Q352 861 352 735V0H121V1434H434L752 596Q767 556 813 391H815L811 627V1434H1042V0H735Z" />
<glyph unicode="O" glyph-name="O" horiz-adv-x="1174" d="M582 -25Q339 -25 207 165T74 698Q74 1059 210 1258T596 1458Q844 1458 972 1270T1100 721Q1100 365 966 170T582 -25ZM594 1217Q360 1217 360 715Q360 217 588 217Q698 217 755 344T813 707Q813 1217 594 1217Z" />
<glyph unicode="P" glyph-name="P" horiz-adv-x="1016" d="M397 489V0H121V1434H535Q740 1434 853 1317T967 977Q967 765 842 627T512 489H397ZM397 1196V729H492Q680 729 680 965Q680 1081 627 1138T489 1196H397Z" />
<glyph unicode="Q" glyph-name="Q" horiz-adv-x="1174" d="M768 12L1036 -362H696L510 -18Q300 3 187 193T74 698Q74 1058 209 1258T598 1458Q847 1458 973 1269T1100 721Q1100 441 1014 257T768 12ZM594 1217Q360 1217 360 715Q360 217 588 217Q698 217 755 344T813
707Q813 1217 594 1217Z" />
<glyph unicode="R" glyph-name="R" horiz-adv-x="1044" d="M702 0L600 350Q541 551 438 551H397V0H121V1434H520Q952 1434 952 1047Q952 755 698 662V657Q812 618 881 403L1010 0H702ZM397 1202V786H483Q565 786 615 849T666 1004Q666 1095 620 1148T483 1202H397Z" />
<glyph unicode="S" glyph-name="S" horiz-adv-x="877" d="M76 51V338Q233 217 373 217Q449 217 490 263T532 375Q532 442 492 492T338 610Q66 770 66 1028Q66 1221 181 1339T485 1458Q645 1458 764 1405V1139Q640 1217 512 1217Q446 1217 400 1172T354 1059Q354
930 526 829Q692 736 756 634T821 395Q821 209 709 92T385 -25Q307 -25 214 -2T76 51Z" />
<glyph unicode="T" glyph-name="T" horiz-adv-x="922" d="M598 1196V0H322V1196H33V1434H891V1196H598Z" />
<glyph unicode="U" glyph-name="U" horiz-adv-x="1118" d="M1008 606Q1008 -25 561 -25Q113 -25 113 592V1434H389V561Q389 217 563 217Q654 217 692 299T731 553V1434H1008V606Z" />
<glyph unicode="V" glyph-name="V" horiz-adv-x="1067" d="M676 0H381L25 1434H311L510 489Q525 417 532 307H539L544 345Q551 416 565 494L764 1434H1042L676 0Z" />
<glyph unicode="W" glyph-name="W" horiz-adv-x="1571" d="M1262 0H948L803 924Q788 1019 780 1096H778Q775 1048 762 963Q758 941 756 926L598 0H285L16 1434H309L457 516Q465 467 477 334H481Q495 416 508 516L649 1434H950L1092 494Q1115 341 1114 334H1118Q1127
446 1137 494L1288 1434H1554L1262 0Z" />
<glyph unicode="X" glyph-name="X" horiz-adv-x="1020" d="M662 729L1012 0H713L532 434Q522 459 516 488L506 537H502Q487 465 473 428L295 0H6L360 729L29 1434H324L485 1034Q502 991 505 974Q509 948 514 924H516Q532 991 549 1036L713 1434H999L662 729Z" />
<glyph unicode="Y" glyph-name="Y" horiz-adv-x="983" d="M631 510V0H354V504L8 1434H324L475 920Q485 886 492 840Q498 801 504 770H508Q524 886 532 913L686 1434H977L631 510Z" />
<glyph unicode="Z" glyph-name="Z" horiz-adv-x="969" d="M381 238H913V0H49V195L590 1196H86V1434H905V1243L381 238Z" />
<glyph unicode="[" glyph-name="bracketleft" horiz-adv-x="629" d="M186 -326V1434H569V1264H399V-158H569V-326H186Z" />
<glyph unicode="\" glyph-name="backslash" horiz-adv-x="715" d="M545 -238L4 1434H238L774 -238H545Z" />
<glyph unicode="]" glyph-name="bracketright" horiz-adv-x="629" d="M61 -326V-158H231V1264H61V1434H444V-326H61Z" />
<glyph unicode="^" glyph-name="asciicircum" horiz-adv-x="1067" d="M809 684L528 1245H524L258 684H70L467 1458H584L999 684H809Z" />
<glyph unicode="_" glyph-name="underscore" horiz-adv-x="850" d="M0 -297V-178H850V-297H0Z" />
<glyph unicode="`" glyph-name="grave" horiz-adv-x="600" d="M332 1161L78 1485H305L520 1161H332Z" />
<glyph unicode="a" glyph-name="a" horiz-adv-x="893" d="M541 0V135H537Q463 -18 295 -18Q187 -18 120 62T53 279Q53 566 338 625L541 666V694Q541 834 391 834Q270 834 127 737V967Q287 1042 436 1042Q633 1042 717 946T801 635V0H541ZM541 496L422 471Q305
446 305 319Q305 256 334 223T406 190Q470 190 505 244T541 393V496Z" />
<glyph unicode="b" glyph-name="b" horiz-adv-x="977" d="M369 106H365V0H104V1516H365V883H369Q445 1042 614 1042Q759 1042 836 911T913 549Q913 280 826 131T582 -18Q440 -18 369 106ZM358 551V459Q358 340 395 269T494 197Q643 197 643 526Q643 827 502 827Q434
827 396 754T358 551Z" />
<glyph unicode="c" glyph-name="c" horiz-adv-x="725" d="M670 41Q594 -18 461 -18Q289 -18 176 125T63 489Q63 748 181 895T492 1042Q616 1042 670 999V770Q614 829 532 829Q441 829 388 741T334 508Q334 356 383 277T520 197Q606 197 670 254V41Z" />
<glyph unicode="d" glyph-name="d" horiz-adv-x="977" d="M612 0V127H608Q535 -18 377 -18Q224 -18 144 116T63 492Q63 748 154 895T408 1042Q547 1042 608 907H612V1516H872V0H612ZM616 569Q616 691 581 759T483 827Q334 827 334 498Q334 197 475 197Q616 197
616 479V569Z" />
<glyph unicode="e" glyph-name="e" horiz-adv-x="887" d="M326 430Q330 190 551 190Q666 190 786 260V45Q655 -18 512 -18Q296 -18 180 117T63 510Q63 743 173 892T481 1042Q661 1042 754 920T848 569V430H326ZM602 614Q602 722 575 782T475 842Q336 842 326 614H602Z" />
<glyph unicode="f" glyph-name="f" horiz-adv-x="549" d="M580 1307Q548 1319 504 1319Q395 1319 395 1188V1024H561V811H395V0H135V811H16V1024H135V1178Q135 1345 222 1439T475 1534Q510 1534 536 1529Q561 1523 580 1520V1307Z" />
<glyph unicode="g" glyph-name="g" horiz-adv-x="977" d="M872 125Q872 -182 747 -331T362 -481Q229 -481 125 -440V-203Q243 -266 352 -266Q476 -266 544 -189T612 33V127H608Q535 -18 377 -18Q224 -18 144 116T63 492Q63 748 154 895T408 1042Q546 1042 608
901H612V1024H872V125ZM616 569Q616 691 581 759T483 827Q334 827 334 498Q334 197 475 197Q616 197 616 479V569Z" />
<glyph unicode="h" glyph-name="h" horiz-adv-x="979" d="M623 0V662Q623 827 498 827Q438 827 402 781T365 659V0H104V1516H365V877H369Q442 1042 621 1042Q881 1042 881 727V0H623Z" />
<glyph unicode="i" glyph-name="i" horiz-adv-x="467" d="M233 1165Q164 1165 120 1212T76 1325Q76 1397 121 1440T233 1483Q305 1483 349 1439T393 1325Q393 1255 349 1210T233 1165ZM104 0V1024H365V0H104Z" />
<glyph unicode="j" glyph-name="j" horiz-adv-x="467" d="M233 1165Q164 1165 120 1212T76 1325Q76 1397 121 1440T233 1483Q305 1483 349 1439T393 1325Q393 1255 349 1210T233 1165ZM365 -6Q365 -481 31 -481Q-28 -481 -94 -451V-238Q-38 -266 -4 -266Q104 -266
104 -70V1024H365V-6Z" />
<glyph unicode="k" glyph-name="k" horiz-adv-x="895" d="M606 0L367 522H365V0H104V1516H365V543H367L590 1024H881L618 547L897 0H606Z" />
<glyph unicode="l" glyph-name="l" horiz-adv-x="467" d="M104 0V1516H365V0H104Z" />
<glyph unicode="m" glyph-name="m" horiz-adv-x="1456" d="M1100 0V664Q1100 827 987 827Q933 827 898 785T862 668V0H602V662Q602 827 489 827Q438 827 402 784T365 664V0H104V1024H365V879H369Q447 1042 616 1042Q790 1042 844 868Q934 1042 1106 1042Q1360
1042 1360 731V0H1100Z" />
<glyph unicode="n" glyph-name="n" horiz-adv-x="979" d="M623 0V662Q623 827 498 827Q438 827 402 781T365 659V0H104V1024H365V877H369Q442 1042 621 1042Q881 1042 881 727V0H623Z" />
<glyph unicode="o" glyph-name="o" horiz-adv-x="958" d="M477 -18Q279 -18 171 121T63 514Q63 767 174 904T481 1042Q678 1042 787 906T897 528Q897 264 789 123T477 -18ZM481 827Q334 827 334 516Q334 197 481 197Q627 197 627 526Q627 827 481 827Z" />
<glyph unicode="p" glyph-name="p" horiz-adv-x="977" d="M367 109H365V-471H104V1024H365V881H367Q444 1042 610 1042Q755 1042 834 914T913 549Q913 280 826 131T580 -18Q440 -18 367 109ZM358 541V469Q358 338 395 267T498 195Q643 195 643 539Q643 827 504
827Q358 827 358 541Z" />
<glyph unicode="q" glyph-name="q" horiz-adv-x="977" d="M612 -471V125H608Q530 -18 377 -18Q231 -18 147 110T63 485Q63 753 155 897T401 1042Q544 1042 608 901H612V1024H872V-471H612ZM618 567Q618 687 583 757T483 827Q334 827 334 502Q334 197 471 197Q542
197 580 270T618 471V567Z" />
<glyph unicode="r" glyph-name="r" horiz-adv-x="651" d="M645 780Q600 799 555 799Q365 799 365 516V0H104V1024H365V854H369Q423 1042 580 1042Q611 1042 645 1032V780Z" />
<glyph unicode="s" glyph-name="s" horiz-adv-x="725" d="M72 33V260Q181 184 299 184Q420 184 420 285Q420 325 388 352T297 414Q154 496 111 571T68 733Q68 871 162 956T424 1042Q539 1042 635 1004V782Q529 840 449 840Q328 840 328 739Q328 707 349 680T459
604Q592 528 635 457T678 293Q678 155 586 69T317 -18Q165 -18 72 33Z" />
<glyph unicode="t" glyph-name="t" horiz-adv-x="606" d="M571 14Q491 -18 399 -18Q137 -18 137 295V811H12V1024H137V1253Q138 1253 158 1260Q384 1335 397 1335V1024H571V811H397V317Q397 197 492 197Q536 197 571 215V14Z" />
<glyph unicode="u" glyph-name="u" horiz-adv-x="979" d="M614 0V147H610Q534 -18 358 -18Q96 -18 96 297V1024H356V362Q356 197 481 197Q541 197 577 243T614 365V1024H874V0H614Z" />
<glyph unicode="v" glyph-name="v" horiz-adv-x="891" d="M586 0H270L8 1024H279L406 379Q425 280 430 190H434Q445 287 465 375L618 1024H885L586 0Z" />
<glyph unicode="w" glyph-name="w" horiz-adv-x="1325" d="M1081 0H793L682 594Q671 651 664 776H659Q653 676 639 596L524 0H233L16 1024H283L385 393Q401 294 401 233H408Q416 317 426 393L549 1024H815L926 391Q931 361 935 311L940 233H946Q946 312 963 391L1071
1024H1309L1081 0Z" />
<glyph unicode="x" glyph-name="x" horiz-adv-x="862" d="M569 516L858 0H573L449 262Q433 296 420 352H416Q401 290 387 260L272 0H0L283 516L10 1024H305L406 770Q421 732 434 678H438Q452 743 461 764L586 1024H854L569 516Z" />
<glyph unicode="y" glyph-name="y" horiz-adv-x="860" d="M563 -78Q447 -481 195 -481Q107 -481 37 -449V-238Q74 -266 137 -266Q230 -266 268 -150L317 2L-8 1024H283L416 420Q434 340 442 246H444Q447 261 450 282Q460 352 475 418L610 1024H879L563 -78Z" />
<glyph unicode="z" glyph-name="z" horiz-adv-x="786" d="M352 213H750V0H25V152L440 811H59V1024H743V842L352 213Z" />
<glyph unicode="{" glyph-name="braceleft" horiz-adv-x="629" d="M551 -389Q398 -389 308 -317T217 -12V236Q217 423 98 432V598Q217 602 217 764V1034Q217 1279 298 1356T551 1434V1257Q426 1257 426 1081V793Q426 584 309 520V516Q426 435 426 176V-29Q426
-217 551 -217V-389Z" />
<glyph unicode="|" glyph-name="bar" horiz-adv-x="465" d="M135 -481V1567H332V-481H135Z" />
<glyph unicode="}" glyph-name="braceright" horiz-adv-x="629" d="M532 432Q414 428 414 268V8Q414 -238 332 -313T82 -389V-215Q205 -215 205 -33V242Q205 450 324 512V516Q205 596 205 858V1075Q205 1260 82 1260V1434Q243 1434 328 1357T414 1055V795Q414
605 532 598V432Z" />
<glyph unicode="~" glyph-name="asciitilde" horiz-adv-x="1067" d="M973 762Q966 606 895 521T711 436Q603 436 502 526Q418 594 369 594Q265 594 258 434H96Q102 588 172 673T365 758Q464 758 557 680Q650 600 702 600Q753 600 780 646T807 762H973Z" />
</font>
</defs>
</svg>
