<?xml version="1.0" standalone="no"?> <!DOCTYPE svg PUBLIC "-//W3C//DTD SVG 1.0//EN" "http://www.w3.org/TR/2001/REC-SVG-20010904/DTD/svg10.dtd" > <svg xmlns="http://www.w3.org/2000/svg" width="100%" height="100%">
<defs >
<font id="segoebli" horiz-adv-x="1227" ><font-face
    font-family="Segoe Black"
    units-per-em="2048"
    panose-1="2 11 10 2 4 2 0 9 2 3"
    ascent="2181"
    descent="-578"
    alphabetic="0" />
<missing-glyph horiz-adv-x="2048" d="" />
<glyph unicode=" " glyph-name="space" horiz-adv-x="563" d="" />
<glyph unicode="!" glyph-name="exclam" horiz-adv-x="713" d="M512 483H170L319 1434H768L512 483ZM274 -25Q175 -25 112 26T49 160Q49 256 119 315T303 375Q402 375 464 323T526 188Q526 91 456 33T274 -25Z" />
<glyph unicode="&quot;" glyph-name="quotedbl" horiz-adv-x="1188" d="M1124 1024H866L815 1468H1174L1124 1024ZM641 1024H379L334 1468H690L641 1024Z" />
<glyph unicode="#" glyph-name="numbersign" horiz-adv-x="1145" d="M1126 864H1004L952 643H1094L1036 408H901L834 106H586L649 408H430L365 106H113L176 408H49L98 643H227L279 864H135L182 1100H328L395 1417H651L584 1100H799L866 1417H1122L1055 1100H1178L1126
864ZM530 864L479 643H698L750 864H530Z" />
<glyph unicode="$" glyph-name="dollar" d="M1100 1028Q913 1133 750 1133Q679 1133 642 1103T604 1030Q604 979 642 948T770 868Q947 774 1008 681T1069 449Q1069 277 952 154T602 2L561 -195H324L365 0Q173 17 14 100L88 449Q279 309 467 309Q621 309 621 418Q621
462 591 492T451 575Q283 656 220 748T156 979Q156 1165 288 1297T672 1446L707 1608H944L907 1436Q1016 1421 1169 1368L1100 1028Z" />
<glyph unicode="%" glyph-name="percent" horiz-adv-x="1839" d="M502 707Q342 707 252 795T162 1020Q162 1202 266 1328T578 1454Q736 1454 823 1371T911 1143Q911 958 808 833T502 707ZM561 1239Q497 1239 465 1177T432 1024Q432 924 514 924Q577 924 610 987T643
1137Q643 1239 561 1239ZM506 0H188L1415 1434H1731L506 0ZM1346 -20Q1186 -20 1095 67T1004 293Q1004 476 1109 601T1419 727Q1576 727 1664 644T1753 416Q1753 229 1650 105T1346 -20ZM1403 512Q1339 512 1307 452T1274 297Q1274 197 1356 197Q1419 197 1452
260T1485 410Q1485 512 1403 512Z" />
<glyph unicode="&amp;" glyph-name="ampersand" horiz-adv-x="1550" d="M1485 782Q1428 514 1206 297L1415 0H985L930 86Q730 -25 496 -25Q270 -25 156 72T41 342Q41 494 143 601T471 795Q383 938 383 1065Q383 1222 513 1340T872 1458Q1058 1458 1165 1370T1272
1135Q1272 884 901 760L1049 539Q1138 663 1159 782H1485ZM780 946Q934 1016 934 1122Q934 1210 834 1210Q787 1210 755 1176T723 1100Q723 1027 780 946ZM596 600Q525 566 482 510T438 401Q438 335 483 292T596 248Q690 248 780 309L596 600Z" />
<glyph unicode="&apos;" glyph-name="quotesingle" horiz-adv-x="705" d="M641 1026H379L334 1468H690L641 1026Z" />
<glyph unicode="(" glyph-name="parenleft" horiz-adv-x="862" d="M1061 1434Q783 1134 663 857T543 262Q543 -73 668 -324H346Q267 -198 223 -18T178 328Q178 984 709 1434H1061Z" />
<glyph unicode=")" glyph-name="parenright" horiz-adv-x="862" d="M154 -324H-199Q79 -24 199 253T319 848Q319 1187 195 1434H516Q594 1313 639 1134T684 782Q684 125 154 -324Z" />
<glyph unicode="*" glyph-name="asterisk" horiz-adv-x="991" d="M754 989L961 795L729 637L600 887L471 639L240 795L446 989L166 1016L256 1272L508 1153L449 1434H752L692 1153L944 1272L1034 1016L754 989Z" />
<glyph unicode="+" glyph-name="plus" horiz-adv-x="1464" d="M868 455V82H621V455H250V702H621V1073H868V702H1241V455H868Z" />
<glyph unicode="," glyph-name="comma" horiz-adv-x="655" d="M240 -238H-115L135 272H530L240 -238Z" />
<glyph unicode="-" glyph-name="hyphen" horiz-adv-x="834" d="M659 393H113L174 680H721L659 393Z" />
<glyph unicode="." glyph-name="period" horiz-adv-x="655" d="M248 -25Q149 -25 86 26T23 160Q23 258 93 316T276 375Q376 375 438 322T500 188Q500 94 431 35T248 -25Z" />
<glyph unicode="/" glyph-name="slash" horiz-adv-x="987" d="M141 -238H-281L784 1434H1206L141 -238Z" />
<glyph unicode="0" glyph-name="zero" d="M537 -25Q322 -25 198 106T74 475Q74 834 246 1146T770 1458Q991 1458 1110 1325T1229 975Q1229 595 1055 285T537 -25ZM748 1147Q635 1147 558 864T481 424Q481 289 561 289Q667 289 744 570T821 1016Q821 1147 748 1147Z" />
<glyph unicode="1" glyph-name="one" d="M29 0L98 322H371L532 1081L233 1036L301 1356L1038 1458L797 322H1063L993 0H29Z" />
<glyph unicode="2" glyph-name="two" d="M537 346V342H1051L977 0H-18L55 338L530 686Q674 792 728 858T782 989Q782 1053 735 1090T602 1128Q442 1128 244 1012L324 1372Q508 1458 743 1458Q964 1458 1085 1354T1206 1071Q1206 919 1124 797T842 545L537 346Z" />
<glyph unicode="3" glyph-name="three" d="M819 727V723Q1067 672 1067 414Q1067 214 904 95T430 -25Q214 -25 33 55L102 377Q264 287 414 287Q526 287 585 330T645 442Q645 575 432 575H299L365 889H532Q754 889 754 1034Q754 1147 582 1147Q449 1147 303 1083L367
1399Q553 1458 741 1458Q952 1458 1064 1366T1176 1104Q1176 971 1080 863T819 727Z" />
<glyph unicode="4" glyph-name="four" d="M979 537H1143L1081 246H918L866 0H492L543 246H-35L23 518L764 1434H1169L979 537ZM696 977Q661 918 629 877L365 537H604L672 856Q696 970 700 977H696Z" />
<glyph unicode="5" glyph-name="five" d="M1159 1102H643L598 901Q612 903 617 903H641Q853 903 968 792T1083 496Q1083 283 912 129T438 -25Q197 -25 39 59L106 375Q167 339 259 313T418 287Q535 287 599 335T664 455Q664 598 420 598Q287 598 182 575L367 1434H1231L1159
1102Z" />
<glyph unicode="6" glyph-name="six" d="M1161 1087Q1061 1147 918 1147Q620 1147 530 821H535Q652 944 813 944Q967 944 1059 837T1151 541Q1151 317 1000 147T594 -23Q363 -23 227 127T90 541Q90 935 322 1196T930 1458Q1100 1458 1233 1413L1161 1087ZM645
647Q580 647 537 588T494 438Q494 367 524 332T600 297Q669 297 711 359T754 498Q754 563 726 605T645 647Z" />
<glyph unicode="7" glyph-name="seven" d="M575 0H104L836 1102H215L285 1434H1325L1272 1184L575 0Z" />
<glyph unicode="8" glyph-name="eight" d="M909 733Q1014 693 1076 605T1139 410Q1139 216 970 92T535 -33Q295 -33 159 73T23 358Q23 650 393 750Q309 798 264 880T219 1049Q219 1229 363 1343T770 1458Q991 1458 1122 1353T1253 1083Q1253 953 1162 860T909
733ZM690 881Q868 939 868 1059Q868 1107 834 1140T748 1174Q685 1174 645 1137T604 1028Q604 942 690 881ZM627 594Q519 569 464 509T408 383Q408 330 448 291T565 252Q648 252 701 300T754 416Q754 461 719 514T627 594Z" />
<glyph unicode="9" glyph-name="nine" d="M63 27L127 348Q235 289 389 289Q682 289 764 616H760Q648 496 489 496Q341 496 243 608T145 899Q145 1127 297 1293T705 1460Q937 1460 1071 1305T1206 885Q1206 535 994 256T367 -23Q199 -23 63 27ZM696 1141Q634 1141
593 1080T551 938Q551 873 581 832T662 791Q722 791 766 845T811 991Q811 1047 780 1094T696 1141Z" />
<glyph unicode=":" glyph-name="colon" horiz-adv-x="655" d="M381 625Q283 625 220 675T156 809Q156 906 226 965T410 1024Q509 1024 571 972T633 838Q633 744 564 685T381 625ZM248 -25Q149 -25 86 26T23 160Q23 258 93 316T276 375Q376 375 438 322T500 188Q500
94 431 35T248 -25Z" />
<glyph unicode=";" glyph-name="semicolon" horiz-adv-x="655" d="M381 625Q283 625 220 675T156 809Q156 906 226 965T410 1024Q509 1024 571 972T633 838Q633 744 564 685T381 625ZM207 -238H-147L102 272H498L207 -238Z" />
<glyph unicode="&lt;" glyph-name="less" horiz-adv-x="1464" d="M213 436V676L1204 1083V791L504 555V551L1204 315V23L213 436Z" />
<glyph unicode="=" glyph-name="equal" horiz-adv-x="1464" d="M250 666V913H1241V666H250ZM250 236V483H1241V236H250Z" />
<glyph unicode="&gt;" glyph-name="greater" horiz-adv-x="1464" d="M274 43V338L975 571V575L274 809V1104L1266 696V457L274 43Z" />
<glyph unicode="?" glyph-name="question" horiz-adv-x="907" d="M547 463H211Q239 602 271 670T340 777T493 898Q600 974 600 1036Q600 1137 459 1137Q311 1137 139 1051L215 1399Q396 1477 582 1477Q801 1477 914 1384T1028 1126Q1028 871 721 700Q637 653 600
604T547 463ZM328 -25Q229 -25 166 27T102 160Q102 256 172 315T356 375Q454 375 517 323T580 188Q580 94 511 35T328 -25Z" />
<glyph unicode="@" glyph-name="at" horiz-adv-x="1944" d="M1081 330H1075Q973 180 813 180Q684 180 619 270T553 518Q553 742 685 907T1026 1073Q1152 1073 1184 965H1188L1208 1051H1501Q1366 511 1366 467Q1366 406 1423 406Q1487 406 1550 524T1614 811Q1614
1231 1104 1231Q797 1231 605 1035T412 524Q412 287 549 159T954 31Q1209 31 1419 119L1378 -119Q1184 -188 909 -188Q529 -188 324 -1T119 518Q119 914 395 1183T1118 1452Q1493 1452 1691 1286T1890 817Q1890 564 1738 372T1319 180Q1200 180 1141 224T1081 317V330ZM1044
854Q966 854 909 753T852 535Q852 399 942 399Q1016 399 1075 524T1135 760Q1135 854 1044 854Z" />
<glyph unicode="A" glyph-name="A" horiz-adv-x="1536" d="M961 0L940 264H508L381 0H-94L702 1434H1239L1401 0H961ZM905 967Q901 1055 907 1124H897Q875 1053 838 975L647 571H924L905 967Z" />
<glyph unicode="B" glyph-name="B" horiz-adv-x="1436" d="M1065 754V750Q1202 732 1277 650T1352 444Q1352 241 1185 121T702 0H31L334 1434H924Q1423 1434 1423 1098Q1423 965 1329 876T1065 754ZM705 1145L647 874H782Q864 874 914 916T965 1014Q965 1086 925
1115T784 1145H705ZM588 584L522 291H674Q778 291 835 335T893 453Q893 511 855 547T750 584H588Z" />
<glyph unicode="C" glyph-name="C" horiz-adv-x="1290" d="M1294 1014Q1149 1083 983 1083Q775 1083 658 953T541 629Q541 495 622 420T856 344Q998 344 1171 426L1085 31Q929 -25 741 -25Q424 -25 253 139T82 590Q82 970 325 1214T1020 1458Q1203 1458 1382 1409L1294
1014Z" />
<glyph unicode="D" glyph-name="D" horiz-adv-x="1591" d="M31 0L334 1434H905Q1229 1434 1395 1281T1561 852Q1561 475 1335 238T700 0H31ZM694 1096L535 338H680Q879 338 990 468T1102 819Q1102 1096 805 1096H694Z" />
<glyph unicode="E" glyph-name="E" horiz-adv-x="1130" d="M1155 1096H694L651 887H1083L1012 549H580L535 338H1028L956 0H31L334 1434H1227L1155 1096Z" />
<glyph unicode="F" glyph-name="F" horiz-adv-x="1108" d="M1161 1096H694L641 838H1067L993 500H567L463 0H31L334 1434H1233L1161 1096Z" />
<glyph unicode="G" glyph-name="G" horiz-adv-x="1497" d="M1391 1014Q1222 1108 1036 1108Q807 1108 679 978T551 621Q551 477 622 398T823 319Q870 319 913 330L958 539H694L764 866H1460L1296 94Q1053 -25 760 -25Q442 -25 267 143T92 614Q92 976 345 1217T1044
1458Q1244 1458 1475 1386L1391 1014Z" />
<glyph unicode="H" glyph-name="H" horiz-adv-x="1645" d="M1391 0H956L1071 535H575L461 0H29L334 1434H766L653 903H1149L1262 1434H1696L1391 0Z" />
<glyph unicode="I" glyph-name="I" horiz-adv-x="713" d="M461 0H29L332 1434H764L461 0Z" />
<glyph unicode="J" glyph-name="J" horiz-adv-x="1051" d="M942 612Q806 -25 186 -25Q61 -25 -66 23L20 422Q126 344 221 344Q450 344 514 637L684 1434H1118L942 612Z" />
<glyph unicode="K" glyph-name="K" horiz-adv-x="1413" d="M1612 1434L1051 750L1348 0H823L673 462Q620 623 610 680H606L463 0H31L334 1434H766L627 774H631Q640 791 656 812L1100 1434H1612Z" />
<glyph unicode="L" glyph-name="L" horiz-adv-x="1108" d="M956 0H31L334 1434H766L535 338H1028L956 0Z" />
<glyph unicode="M" glyph-name="M" horiz-adv-x="2019" d="M1767 0H1341L1567 1059H1559Q1497 903 1468 842L1081 0H684L633 831L627 1059H618Q587 831 551 655L412 0H29L332 1434H938L987 633Q992 547 983 442H989Q1043 598 1061 637L1411 1434H2071L1767 0Z" />
<glyph unicode="N" glyph-name="N" horiz-adv-x="1690" d="M1438 0H1098L682 702Q628 792 608 850H604Q586 729 559 612L428 0H29L332 1434H705L1106 768Q1151 694 1171 631H1176Q1179 668 1188 709L1341 1434H1741L1438 0Z" />
<glyph unicode="O" glyph-name="O" horiz-adv-x="1565" d="M707 -25Q416 -25 254 149T92 602Q92 960 313 1209T913 1458Q1201 1458 1367 1290T1534 829Q1534 477 1319 226T707 -25ZM864 1083Q720 1083 636 941T551 612Q551 344 758 344Q908 344 991 486T1075 815Q1075
1083 864 1083Z" />
<glyph unicode="P" glyph-name="P" horiz-adv-x="1364" d="M559 461L463 0H31L334 1434H913Q1156 1434 1284 1322T1413 1001Q1413 763 1244 612T764 461H559ZM700 1124L627 770H748Q846 770 900 829T954 971Q954 1124 776 1124H700Z" />
<glyph unicode="Q" glyph-name="Q" horiz-adv-x="1565" d="M1032 29L1391 -389H842L616 -20Q369 5 231 175T92 602Q92 960 313 1209T913 1458Q1201 1458 1367 1290T1534 829Q1534 566 1405 343T1032 29ZM864 1083Q720 1083 636 941T551 612Q551 344 758 344Q908
344 991 486T1075 815Q1075 1083 864 1083Z" />
<glyph unicode="R" glyph-name="R" horiz-adv-x="1397" d="M989 635V631Q1147 570 1188 375L1268 0H809L756 319Q725 504 573 504H569L463 0H31L334 1434H897Q1140 1434 1270 1335T1401 1063Q1401 902 1290 786T989 635ZM705 1135L631 807H727Q827 807 883 859T940
983Q940 1135 782 1135H705Z" />
<glyph unicode="S" glyph-name="S" horiz-adv-x="1171" d="M1133 1030Q943 1137 774 1137Q702 1137 665 1107T627 1032Q627 984 663 952T797 866Q971 774 1036 679T1102 438Q1102 238 946 107T487 -25Q233 -25 25 84L100 438Q291 297 487 297Q643 297 643 408Q643
453 611 486T469 569Q307 645 238 739T168 981Q168 1183 322 1320T758 1458Q976 1458 1204 1376L1133 1030Z" />
<glyph unicode="T" glyph-name="T" horiz-adv-x="1303" d="M1393 1096H987L756 0H322L553 1096H152L223 1434H1464L1393 1096Z" />
<glyph unicode="U" glyph-name="U" horiz-adv-x="1511" d="M1401 596Q1327 248 1158 112T684 -25Q418 -25 275 103T131 475Q131 566 166 741L313 1434H748L598 737Q563 574 563 526Q563 440 607 392T733 344Q827 344 883 408T971 621L1145 1434H1579L1401 596Z" />
<glyph unicode="V" glyph-name="V" horiz-adv-x="1438" d="M850 0H365L205 1434H647L694 551Q699 458 688 391H698Q716 450 764 557L1149 1434H1622L850 0Z" />
<glyph unicode="W" glyph-name="W" horiz-adv-x="2157" d="M1663 0H1210L1176 817Q1174 861 1190 948L1196 983H1192Q1169 900 1130 817L748 0H252L213 1434H668L627 586Q624 530 606 422H612Q640 518 674 592L1065 1434H1534L1542 580Q1543 517 1532 424H1536Q1544
457 1575 548L1884 1434H2329L1663 0Z" />
<glyph unicode="X" glyph-name="X" horiz-adv-x="1438" d="M1055 700L1309 0H821L741 371Q725 444 729 524H725Q691 440 657 385L414 0H-121L467 741L225 1434H727L782 1073Q796 978 793 915H797Q832 1012 862 1057L1118 1434H1620L1055 700Z" />
<glyph unicode="Y" glyph-name="Y" horiz-adv-x="1331" d="M868 498L764 0H330L434 492L193 1434H662L721 983Q731 907 731 831H735Q778 945 795 975L1040 1434H1524L868 498Z" />
<glyph unicode="Z" glyph-name="Z" horiz-adv-x="1313" d="M1372 1133L592 338H1225L1153 0H-49L14 303L827 1096H223L295 1434H1436L1372 1133Z" />
<glyph unicode="[" glyph-name="bracketleft" horiz-adv-x="862" d="M934 1174H717L453 -68H670L614 -326H68L440 1434H987L934 1174Z" />
<glyph unicode="\" glyph-name="backslash" horiz-adv-x="987" d="M541 -238L199 1434H561L901 -238H541Z" />
<glyph unicode="]" glyph-name="bracketright" horiz-adv-x="862" d="M422 -326H-121L-66 -68H145L410 1174H193L248 1434H795L422 -326Z" />
<glyph unicode="^" glyph-name="asciicircum" horiz-adv-x="1464" d="M1032 629L795 1182H791L555 629H250L674 1458H911L1335 629H1032Z" />
<glyph unicode="_" glyph-name="underscore" horiz-adv-x="850" d="M-178 -297L-154 -178H696L672 -297H-178Z" />
<glyph unicode="`" glyph-name="grave" horiz-adv-x="1024" d="M555 1145L289 1466H629L838 1145H555Z" />
<glyph unicode="a" glyph-name="a" horiz-adv-x="1292" d="M1157 360Q1118 176 1118 0H696Q696 33 711 182H707Q556 -25 365 -25Q213 -25 131 80T49 375Q49 650 234 849T784 1049Q1019 1049 1290 987L1157 360ZM821 772Q797 778 760 778Q628 778 551 663T473 410Q473
350 499 319T563 287Q713 287 782 602L821 772Z" />
<glyph unicode="b" glyph-name="b" horiz-adv-x="1292" d="M14 98L315 1516H741L649 1081Q633 1004 596 866H606Q740 1049 938 1049Q1075 1049 1159 951T1243 672Q1243 368 1055 172T500 -25Q232 -25 14 98ZM475 264Q508 246 565 246Q672 246 745 360T819 606Q819
737 721 737Q655 737 599 651T512 428L475 264Z" />
<glyph unicode="c" glyph-name="c" horiz-adv-x="971" d="M926 694Q856 737 750 737Q637 737 555 655T473 449Q473 287 643 287Q752 287 856 342L797 51Q652 -25 475 -25Q275 -25 162 88T49 397Q49 670 237 859T723 1049Q884 1049 995 995L926 694Z" />
<glyph unicode="d" glyph-name="d" horiz-adv-x="1292" d="M1157 360Q1118 175 1118 0H696Q696 33 711 182H707Q558 -25 365 -25Q216 -25 133 79T49 369Q49 672 244 860T745 1049Q828 1049 874 1040L977 1516H1401L1157 360ZM821 772Q783 778 758 778Q623 778
548 659T473 410Q473 350 500 319T565 287Q710 287 782 602L821 772Z" />
<glyph unicode="e" glyph-name="e" horiz-adv-x="1110" d="M457 385V377Q457 322 503 288T637 254Q803 254 981 338L922 59Q734 -25 510 -25Q295 -25 172 89T49 401Q49 670 228 859T709 1049Q907 1049 1011 968T1116 743Q1116 562 948 478T457 385ZM481 608Q723
605 723 745Q723 803 662 803Q518 803 481 608Z" />
<glyph unicode="f" glyph-name="f" horiz-adv-x="883" d="M1028 1198Q946 1229 899 1229Q768 1229 739 1094L725 1024H965L903 729H662L432 -340H10L236 729H61L123 1024H297L322 1133Q415 1540 860 1540Q988 1540 1094 1509L1028 1198Z" />
<glyph unicode="g" glyph-name="g" horiz-adv-x="1292" d="M1116 164Q1039 -201 847 -341T317 -481Q146 -481 -27 -412L43 -88Q190 -186 348 -186Q491 -186 568 -118T674 88L690 166H686Q559 -25 362 -25Q213 -25 131 80T49 360Q49 658 238 853T772 1049Q1017
1049 1290 987L1116 164ZM821 772Q796 778 752 778Q635 778 554 667T473 410Q473 350 499 319T563 287Q711 287 782 602L821 772Z" />
<glyph unicode="h" glyph-name="h" horiz-adv-x="1282" d="M1079 0H653L774 567Q791 647 791 670Q791 737 721 737Q669 737 605 667T522 504L416 0H-10L311 1516H737L596 848H600Q684 942 789 995T987 1049Q1233 1049 1233 797Q1233 727 1210 623L1079 0Z" />
<glyph unicode="i" glyph-name="i" horiz-adv-x="631" d="M455 1098Q355 1098 292 1150T229 1282Q229 1378 299 1437T483 1497Q581 1497 644 1445T707 1311Q707 1217 638 1158T455 1098ZM416 0H-10L207 1024H633L416 0Z" />
<glyph unicode="j" glyph-name="j" horiz-adv-x="631" d="M455 1098Q355 1098 292 1150T229 1282Q229 1378 299 1437T483 1497Q581 1497 644 1445T707 1311Q707 1217 638 1158T455 1098ZM428 55Q367 -236 226 -358T-137 -481Q-236 -481 -309 -446L-244 -145Q-208
-170 -160 -170Q-93 -170 -60 -124T-6 20L207 1024H633L428 55Z" />
<glyph unicode="k" glyph-name="k" horiz-adv-x="1239" d="M948 520L1141 0H676L528 516H524L414 0H-12L311 1516H737L532 553H537L872 1024H1362L948 520Z" />
<glyph unicode="l" glyph-name="l" horiz-adv-x="631" d="M416 0H-10L311 1516H737L416 0Z" />
<glyph unicode="m" glyph-name="m" horiz-adv-x="1942" d="M1739 0H1313L1434 567Q1450 642 1450 670Q1450 737 1382 737Q1331 737 1267 667T1184 504L1081 0H653L774 567Q791 647 791 670Q791 737 723 737Q671 737 607 667T524 504L418 0H-10L135 680Q168 834
195 1024H614Q608 918 594 848H598Q683 943 789 996T987 1049Q1216 1049 1231 823Q1312 929 1425 989T1647 1049Q1892 1049 1892 797Q1892 722 1870 623L1739 0Z" />
<glyph unicode="n" glyph-name="n" horiz-adv-x="1282" d="M1079 0H653L774 567Q791 647 791 670Q791 737 723 737Q671 737 607 667T524 504L420 0H-10L135 680Q168 834 195 1024H614Q608 918 594 848H598Q683 943 789 996T987 1049Q1233 1049 1233 797Q1233 727
1210 623L1079 0Z" />
<glyph unicode="o" glyph-name="o" horiz-adv-x="1237" d="M545 -25Q302 -25 176 97T49 428Q49 685 213 867T698 1049Q933 1049 1060 931T1188 598Q1188 337 1025 156T545 -25ZM657 737Q572 737 523 641T473 424Q473 287 582 287Q668 287 716 379T764 598Q764
737 657 737Z" />
<glyph unicode="p" glyph-name="p" horiz-adv-x="1292" d="M422 -16L322 -471H-106L135 664Q187 908 197 1024H606Q600 937 584 842H588Q729 1049 942 1049Q1076 1049 1159 947T1243 678Q1243 370 1058 173T549 -25Q468 -25 422 -16ZM471 252Q509 246 535 246Q653
246 736 353T819 612Q819 737 723 737Q584 737 510 422L471 252Z" />
<glyph unicode="q" glyph-name="q" horiz-adv-x="1292" d="M981 -471H555L643 -57Q655 0 671 58Q693 142 698 166H694Q556 -25 365 -25Q214 -25 132 79T49 373Q49 649 235 849T776 1049Q1047 1049 1286 971L981 -471ZM819 766Q792 778 748 778Q629 778 551 662T473
418Q473 287 561 287Q635 287 691 368T776 578L819 766Z" />
<glyph unicode="r" glyph-name="r" horiz-adv-x="885" d="M881 659H879Q827 684 770 684Q667 684 603 626T504 418L416 0H-10L129 653Q175 867 193 1024H612Q604 932 586 827H590Q704 1049 877 1049Q903 1049 925 1044Q947 1039 967 1036L881 659Z" />
<glyph unicode="s" glyph-name="s" horiz-adv-x="973" d="M893 721Q737 782 629 782Q537 782 537 725Q537 696 557 682T621 649Q800 577 844 508T889 340Q889 180 751 78T352 -25Q158 -25 -4 25L51 319Q230 238 367 238Q492 238 492 303Q492 351 395 383Q243 433
183 504T123 690Q123 843 251 946T625 1049Q776 1049 948 1008L893 721Z" />
<glyph unicode="t" glyph-name="t" horiz-adv-x="842" d="M838 729H608L549 451Q535 385 535 348Q535 287 606 287Q660 287 743 315L682 20Q553 -25 393 -25Q98 -25 98 254Q98 296 120 400L188 729H33L104 1024H250L299 1260L743 1362L672 1024H909L838 729Z" />
<glyph unicode="u" glyph-name="u" horiz-adv-x="1282" d="M1143 381Q1100 179 1100 0H668Q675 116 684 168H680Q501 -25 291 -25Q41 -25 41 227Q41 302 63 401L195 1024H621L502 469Q485 390 485 356Q485 305 545 305Q619 305 678 382T758 563L854 1024H1280L1143 381Z" />
<glyph unicode="v" glyph-name="v" horiz-adv-x="1184" d="M733 0H213L94 1024H518L530 465Q533 309 526 262H532L604 459L836 1024H1298L733 0Z" />
<glyph unicode="w" glyph-name="w" horiz-adv-x="1731" d="M1315 0H872L877 518Q878 595 889 672H885Q871 616 834 522L625 0H170L117 1024H524L487 428Q482 342 473 295H479L526 432L772 1024H1188L1174 432Q1173 369 1165 297H1171L1212 432L1413 1024H1819L1315 0Z" />
<glyph unicode="x" glyph-name="x" horiz-adv-x="1272" d="M950 528L1165 0H692L627 233Q612 288 606 340H602Q588 314 575 288Q562 262 547 238L391 0H-113L336 524L125 1024H600L664 786Q680 727 684 674H688Q728 749 754 788L903 1024H1384L950 528Z" />
<glyph unicode="y" glyph-name="y" horiz-adv-x="1176" d="M686 -29Q529 -307 390 -394T72 -481Q-61 -481 -164 -440L-94 -127Q-42 -170 43 -170Q163 -170 221 -74L272 10L63 1024H510L551 530Q562 399 555 344H559Q590 434 631 530L842 1024H1280L686 -29Z" />
<glyph unicode="z" glyph-name="z" horiz-adv-x="1067" d="M1071 772L567 295H977L915 0H-82L-41 199L532 729H117L178 1024H1124L1071 772Z" />
<glyph unicode="{" glyph-name="braceleft" horiz-adv-x="862" d="M905 1208Q821 1208 776 1175T707 1026L659 801Q605 547 434 500V496Q539 431 539 291Q539 221 522 156L481 -29Q475 -56 475 -84Q475 -199 606 -199L559 -422Q145 -422 145 -113Q145 -49 164
31L209 227Q217 262 217 293Q217 410 92 410L141 635Q292 635 319 770L367 997Q404 1173 476 1268T654 1399T952 1434L905 1208Z" />
<glyph unicode="|" glyph-name="bar" horiz-adv-x="815" d="M281 -481V1567H608V-481H281Z" />
<glyph unicode="}" glyph-name="braceright" horiz-adv-x="862" d="M715 379Q564 379 537 244L489 16Q452 -160 380 -254T202 -384T-98 -420L-49 -195Q38 -195 82 -159T150 -12L197 213Q250 465 422 514V518Q317 583 317 723Q317 786 334 858L375 1042Q379 1060
379 1098Q379 1212 250 1212L297 1436Q709 1436 709 1133Q709 1048 692 983L647 786Q639 751 639 721Q639 604 762 604L715 379Z" />
<glyph unicode="~" glyph-name="asciitilde" horiz-adv-x="1464" d="M1282 776Q1275 597 1187 493T958 389Q827 389 685 474Q612 518 569 518Q469 518 455 377H207Q214 561 301 663T539 766Q649 766 762 705Q852 655 874 646T926 637Q1024 637 1034 776H1282Z" />
</font>
</defs>
</svg>
